M48
; DRILL file {KiCad 8.0.6} date 2025-04-17T08:46:20+0200
; FORMAT={-:-/ absolute / inch / decimal}
; #@! TF.CreationDate,2025-04-17T08:46:20+02:00
; #@! TF.GenerationSoftware,Kicad,Pcbnew,8.0.6
; #@! TF.FileFunction,NonPlated,1,2,NPTH
FMAT,2
INCH
; #@! TA.AperFunction,NonPlated,NPTH,ComponentDrill
T1C0.0748
; #@! TA.AperFunction,NonPlated,NPTH,ComponentDrill
T2C0.0866
; #@! TA.AperFunction,NonPlated,NPTH,ComponentDrill
T3C0.1358
%
G90
G05
T1
X3.2087Y-2.628
X3.2087Y-3.3091
X3.2087Y-3.9843
X3.6417Y-2.628
X3.6417Y-3.3091
X3.6417Y-3.9843
X3.9272Y-2.628
X3.9272Y-3.3071
X3.9272Y-3.9843
X4.3602Y-2.628
X4.3602Y-3.3071
X4.3602Y-3.9843
X4.6457Y-2.6299
X4.6457Y-3.3071
X4.6457Y-3.9843
X5.0787Y-2.6299
X5.0787Y-3.3071
X5.0787Y-3.9843
X5.3622Y-2.6299
X5.3622Y-3.3071
X5.3622Y-3.9843
X5.7953Y-2.6299
X5.7953Y-3.3071
X5.7953Y-3.9843
X5.9016Y-4.6614
X6.0787Y-2.6299
X6.0787Y-3.3071
X6.0787Y-3.9843
X6.3346Y-4.6614
X6.5118Y-2.6299
X6.5118Y-3.3071
X6.5118Y-3.9843
X6.7953Y-2.6299
X6.7953Y-3.3071
X6.7953Y-3.9843
X6.9724Y-4.6614
X7.2283Y-2.6299
X7.2283Y-3.3071
X7.2283Y-3.9843
X7.4055Y-4.6614
X7.5118Y-2.6299
X7.5118Y-3.3071
X7.5118Y-3.9843
X7.9449Y-2.6299
X7.9449Y-3.3071
X7.9449Y-3.9843
X8.2283Y-2.6299
X8.2283Y-3.3071
X8.2283Y-3.9843
X8.6614Y-2.6299
X8.6614Y-3.3071
X8.6614Y-3.9843
X8.9449Y-2.6299
X8.9449Y-3.3071
X8.9449Y-3.9843
X9.378Y-2.6299
X9.378Y-3.3071
X9.378Y-3.9843
X9.6614Y-2.6299
X9.6614Y-3.3071
X9.6614Y-3.9843
X10.0945Y-2.6299
X10.0945Y-3.3071
X10.0945Y-3.9843
T2
X2.1969Y-1.9803
X2.2638Y-3.626
X2.8268Y-3.9055
X3.2874Y-4.7953
X4.1102Y-2.0748
X4.5Y-3.6457
X4.5039Y-2.9685
X6.6535Y-4.8661
X6.6575Y-2.9685
X8.8031Y-2.9685
X8.811Y-3.6535
X10.2165Y-2.2795
T3
X3.4252Y-2.628
X3.4252Y-3.3091
X3.4252Y-3.9843
X4.1437Y-2.628
X4.1437Y-3.3071
X4.1437Y-3.9843
X4.8622Y-2.6299
X4.8622Y-3.3071
X4.8622Y-3.9843
X5.5787Y-2.6299
X5.5787Y-3.3071
X5.5787Y-3.9843
X6.1181Y-4.6614
X6.2953Y-2.6299
X6.2953Y-3.3071
X6.2953Y-3.9843
X7.0118Y-2.6299
X7.0118Y-3.3071
X7.0118Y-3.9843
X7.189Y-4.6614
X7.7283Y-2.6299
X7.7283Y-3.3071
X7.7283Y-3.9843
X8.4449Y-2.6299
X8.4449Y-3.3071
X8.4449Y-3.9843
X9.1614Y-2.6299
X9.1614Y-3.3071
X9.1614Y-3.9843
X9.878Y-2.6299
X9.878Y-3.3071
X9.878Y-3.9843
M30
