M48
; DRILL file {KiCad 8.0.6} date 2025-04-17T08:46:20+0200
; FORMAT={-:-/ absolute / inch / decimal}
; #@! TF.CreationDate,2025-04-17T08:46:20+02:00
; #@! TF.GenerationSoftware,Kicad,Pcbnew,8.0.6
; #@! TF.FileFunction,Plated,1,2,PTH
FMAT,2
INCH
; #@! TA.AperFunction,Plated,PTH,ComponentDrill
T1C0.0430
; #@! TA.AperFunction,Plated,PTH,ComponentDrill
T2C0.0472
; #@! TA.AperFunction,Plated,PTH,ComponentDrill
T3C0.0512
%
G90
G05
T1
X2.3024Y-2.0406
X2.3024Y-2.1406
X2.3024Y-2.2406
X2.3024Y-2.3406
X2.3024Y-2.4406
X2.3024Y-2.5406
X2.3024Y-2.6406
X2.3024Y-2.7406
X2.3024Y-2.8406
X2.3024Y-2.9406
X2.3024Y-3.0406
X2.3024Y-3.1406
X2.9024Y-2.0406
X2.9024Y-2.1406
X2.9024Y-2.2406
X2.9024Y-2.3406
X2.9024Y-2.4406
X2.9024Y-2.5406
X2.9024Y-2.6406
X2.9024Y-2.7406
X2.9024Y-2.8406
X2.9024Y-2.9406
X2.9024Y-3.0406
X2.9024Y-3.1406
T2
X3.4252Y-2.3957
X3.4252Y-3.0768
X3.4252Y-3.752
X3.622Y-2.4783
X3.622Y-3.1594
X3.622Y-3.8346
X4.1437Y-2.3957
X4.1437Y-3.0748
X4.1437Y-3.752
X4.3406Y-2.4783
X4.3406Y-3.1575
X4.3406Y-3.8346
X4.8622Y-2.3976
X4.8622Y-3.0748
X4.8622Y-3.752
X5.0591Y-2.4803
X5.0591Y-3.1575
X5.0591Y-3.8346
X5.5787Y-2.3976
X5.5787Y-3.0748
X5.5787Y-3.752
X5.7756Y-2.4803
X5.7756Y-3.1575
X5.7756Y-3.8346
X6.1181Y-4.4291
X6.2953Y-2.3976
X6.2953Y-3.0748
X6.2953Y-3.752
X6.315Y-4.5118
X6.4921Y-2.4803
X6.4921Y-3.1575
X6.4921Y-3.8346
X7.0118Y-2.3976
X7.0118Y-3.0748
X7.0118Y-3.752
X7.189Y-4.4291
X7.2087Y-2.4803
X7.2087Y-3.1575
X7.2087Y-3.8346
X7.3858Y-4.5118
X7.7283Y-2.3976
X7.7283Y-3.0748
X7.7283Y-3.752
X7.9252Y-2.4803
X7.9252Y-3.1575
X7.9252Y-3.8346
X8.4449Y-2.3976
X8.4449Y-3.0748
X8.4449Y-3.752
X8.6417Y-2.4803
X8.6417Y-3.1575
X8.6417Y-3.8346
X9.1614Y-2.3976
X9.1614Y-3.0748
X9.1614Y-3.752
X9.3583Y-2.4803
X9.3583Y-3.1575
X9.3583Y-3.8346
X9.878Y-2.3976
X9.878Y-3.0748
X9.878Y-3.752
X10.0748Y-2.4803
X10.0748Y-3.1575
X10.0748Y-3.8346
T3
X2.4705Y-3.3425
X2.7264Y-3.3425
M30
