%TF.GenerationSoftware,KiCad,Pcbnew,8.0.6*%
%TF.CreationDate,2025-04-17T08:46:25+02:00*%
%TF.ProjectId,KYBR_ORTHO,4b594252-5f4f-4525-9448-4f2e6b696361,rev?*%
%TF.SameCoordinates,Original*%
%TF.FileFunction,Legend,Top*%
%TF.FilePolarity,Positive*%
%FSLAX46Y46*%
G04 Gerber Fmt 4.6, Leading zero omitted, Abs format (unit mm)*
G04 Created by KiCad (PCBNEW 8.0.6) date 2025-04-17 08:46:25*
%MOMM*%
%LPD*%
G01*
G04 APERTURE LIST*
%ADD10C,0.100000*%
%ADD11C,0.200000*%
%ADD12C,0.150000*%
%ADD13C,0.120000*%
%ADD14R,1.752600X1.752600*%
%ADD15C,1.752600*%
G04 APERTURE END LIST*
D10*
X253400000Y-114200000D02*
X262600000Y-114200000D01*
X262600000Y-126800000D01*
X253400000Y-126800000D01*
X253400000Y-114200000D01*
G36*
X253400000Y-114200000D02*
G01*
X262600000Y-114200000D01*
X262600000Y-126800000D01*
X253400000Y-126800000D01*
X253400000Y-114200000D01*
G37*
D11*
X218100000Y-114100000D02*
X230500000Y-114100000D01*
X230500000Y-126500000D01*
X218100000Y-126500000D01*
X218100000Y-114100000D01*
X218100000Y-114100000D02*
X230500000Y-126500000D01*
X230500000Y-114100000D02*
X218100000Y-126500000D01*
D12*
X232451064Y-119062900D02*
X232451064Y-115062900D01*
X234736779Y-119062900D02*
X233022493Y-116777185D01*
X234736779Y-115062900D02*
X232451064Y-117348614D01*
X237212969Y-117158138D02*
X237212969Y-119062900D01*
X235879636Y-115062900D02*
X237212969Y-117158138D01*
X237212969Y-117158138D02*
X238546303Y-115062900D01*
X241212969Y-116967662D02*
X241784397Y-117158138D01*
X241784397Y-117158138D02*
X241974874Y-117348614D01*
X241974874Y-117348614D02*
X242165350Y-117729566D01*
X242165350Y-117729566D02*
X242165350Y-118300995D01*
X242165350Y-118300995D02*
X241974874Y-118681947D01*
X241974874Y-118681947D02*
X241784397Y-118872424D01*
X241784397Y-118872424D02*
X241403445Y-119062900D01*
X241403445Y-119062900D02*
X239879635Y-119062900D01*
X239879635Y-119062900D02*
X239879635Y-115062900D01*
X239879635Y-115062900D02*
X241212969Y-115062900D01*
X241212969Y-115062900D02*
X241593921Y-115253376D01*
X241593921Y-115253376D02*
X241784397Y-115443852D01*
X241784397Y-115443852D02*
X241974874Y-115824804D01*
X241974874Y-115824804D02*
X241974874Y-116205757D01*
X241974874Y-116205757D02*
X241784397Y-116586709D01*
X241784397Y-116586709D02*
X241593921Y-116777185D01*
X241593921Y-116777185D02*
X241212969Y-116967662D01*
X241212969Y-116967662D02*
X239879635Y-116967662D01*
X243498683Y-115062900D02*
X245974874Y-115062900D01*
X245974874Y-115062900D02*
X244641540Y-116586709D01*
X244641540Y-116586709D02*
X245212969Y-116586709D01*
X245212969Y-116586709D02*
X245593921Y-116777185D01*
X245593921Y-116777185D02*
X245784397Y-116967662D01*
X245784397Y-116967662D02*
X245974874Y-117348614D01*
X245974874Y-117348614D02*
X245974874Y-118300995D01*
X245974874Y-118300995D02*
X245784397Y-118681947D01*
X245784397Y-118681947D02*
X245593921Y-118872424D01*
X245593921Y-118872424D02*
X245212969Y-119062900D01*
X245212969Y-119062900D02*
X244070112Y-119062900D01*
X244070112Y-119062900D02*
X243689159Y-118872424D01*
X243689159Y-118872424D02*
X243498683Y-118681947D01*
X249974874Y-119062900D02*
X248641540Y-117158138D01*
X247689159Y-119062900D02*
X247689159Y-115062900D01*
X247689159Y-115062900D02*
X249212969Y-115062900D01*
X249212969Y-115062900D02*
X249593921Y-115253376D01*
X249593921Y-115253376D02*
X249784398Y-115443852D01*
X249784398Y-115443852D02*
X249974874Y-115824804D01*
X249974874Y-115824804D02*
X249974874Y-116396233D01*
X249974874Y-116396233D02*
X249784398Y-116777185D01*
X249784398Y-116777185D02*
X249593921Y-116967662D01*
X249593921Y-116967662D02*
X249212969Y-117158138D01*
X249212969Y-117158138D02*
X247689159Y-117158138D01*
X233212969Y-121502676D02*
X233974874Y-121502676D01*
X233974874Y-121502676D02*
X234355826Y-121693152D01*
X234355826Y-121693152D02*
X234736779Y-122074104D01*
X234736779Y-122074104D02*
X234927255Y-122836009D01*
X234927255Y-122836009D02*
X234927255Y-124169342D01*
X234927255Y-124169342D02*
X234736779Y-124931247D01*
X234736779Y-124931247D02*
X234355826Y-125312200D01*
X234355826Y-125312200D02*
X233974874Y-125502676D01*
X233974874Y-125502676D02*
X233212969Y-125502676D01*
X233212969Y-125502676D02*
X232832017Y-125312200D01*
X232832017Y-125312200D02*
X232451064Y-124931247D01*
X232451064Y-124931247D02*
X232260588Y-124169342D01*
X232260588Y-124169342D02*
X232260588Y-122836009D01*
X232260588Y-122836009D02*
X232451064Y-122074104D01*
X232451064Y-122074104D02*
X232832017Y-121693152D01*
X232832017Y-121693152D02*
X233212969Y-121502676D01*
X238927255Y-125502676D02*
X237593921Y-123597914D01*
X236641540Y-125502676D02*
X236641540Y-121502676D01*
X236641540Y-121502676D02*
X238165350Y-121502676D01*
X238165350Y-121502676D02*
X238546302Y-121693152D01*
X238546302Y-121693152D02*
X238736779Y-121883628D01*
X238736779Y-121883628D02*
X238927255Y-122264580D01*
X238927255Y-122264580D02*
X238927255Y-122836009D01*
X238927255Y-122836009D02*
X238736779Y-123216961D01*
X238736779Y-123216961D02*
X238546302Y-123407438D01*
X238546302Y-123407438D02*
X238165350Y-123597914D01*
X238165350Y-123597914D02*
X236641540Y-123597914D01*
X240070112Y-121502676D02*
X242355826Y-121502676D01*
X241212969Y-125502676D02*
X241212969Y-121502676D01*
X243689159Y-125502676D02*
X243689159Y-121502676D01*
X243689159Y-123407438D02*
X245974874Y-123407438D01*
X245974874Y-125502676D02*
X245974874Y-121502676D01*
X248641540Y-121502676D02*
X249403445Y-121502676D01*
X249403445Y-121502676D02*
X249784397Y-121693152D01*
X249784397Y-121693152D02*
X250165350Y-122074104D01*
X250165350Y-122074104D02*
X250355826Y-122836009D01*
X250355826Y-122836009D02*
X250355826Y-124169342D01*
X250355826Y-124169342D02*
X250165350Y-124931247D01*
X250165350Y-124931247D02*
X249784397Y-125312200D01*
X249784397Y-125312200D02*
X249403445Y-125502676D01*
X249403445Y-125502676D02*
X248641540Y-125502676D01*
X248641540Y-125502676D02*
X248260588Y-125312200D01*
X248260588Y-125312200D02*
X247879635Y-124931247D01*
X247879635Y-124931247D02*
X247689159Y-124169342D01*
X247689159Y-124169342D02*
X247689159Y-122836009D01*
X247689159Y-122836009D02*
X247879635Y-122074104D01*
X247879635Y-122074104D02*
X248260588Y-121693152D01*
X248260588Y-121693152D02*
X248641540Y-121502676D01*
X252070111Y-125121723D02*
X252260588Y-125312200D01*
X252260588Y-125312200D02*
X252070111Y-125502676D01*
X252070111Y-125502676D02*
X251879635Y-125312200D01*
X251879635Y-125312200D02*
X252070111Y-125121723D01*
X252070111Y-125121723D02*
X252070111Y-125502676D01*
X249661905Y-75407200D02*
X249804762Y-75454819D01*
X249804762Y-75454819D02*
X250042857Y-75454819D01*
X250042857Y-75454819D02*
X250138095Y-75407200D01*
X250138095Y-75407200D02*
X250185714Y-75359580D01*
X250185714Y-75359580D02*
X250233333Y-75264342D01*
X250233333Y-75264342D02*
X250233333Y-75169104D01*
X250233333Y-75169104D02*
X250185714Y-75073866D01*
X250185714Y-75073866D02*
X250138095Y-75026247D01*
X250138095Y-75026247D02*
X250042857Y-74978628D01*
X250042857Y-74978628D02*
X249852381Y-74931009D01*
X249852381Y-74931009D02*
X249757143Y-74883390D01*
X249757143Y-74883390D02*
X249709524Y-74835771D01*
X249709524Y-74835771D02*
X249661905Y-74740533D01*
X249661905Y-74740533D02*
X249661905Y-74645295D01*
X249661905Y-74645295D02*
X249709524Y-74550057D01*
X249709524Y-74550057D02*
X249757143Y-74502438D01*
X249757143Y-74502438D02*
X249852381Y-74454819D01*
X249852381Y-74454819D02*
X250090476Y-74454819D01*
X250090476Y-74454819D02*
X250233333Y-74502438D01*
X250614286Y-74550057D02*
X250661905Y-74502438D01*
X250661905Y-74502438D02*
X250757143Y-74454819D01*
X250757143Y-74454819D02*
X250995238Y-74454819D01*
X250995238Y-74454819D02*
X251090476Y-74502438D01*
X251090476Y-74502438D02*
X251138095Y-74550057D01*
X251138095Y-74550057D02*
X251185714Y-74645295D01*
X251185714Y-74645295D02*
X251185714Y-74740533D01*
X251185714Y-74740533D02*
X251138095Y-74883390D01*
X251138095Y-74883390D02*
X250566667Y-75454819D01*
X250566667Y-75454819D02*
X251185714Y-75454819D01*
X251804762Y-74454819D02*
X251900000Y-74454819D01*
X251900000Y-74454819D02*
X251995238Y-74502438D01*
X251995238Y-74502438D02*
X252042857Y-74550057D01*
X252042857Y-74550057D02*
X252090476Y-74645295D01*
X252090476Y-74645295D02*
X252138095Y-74835771D01*
X252138095Y-74835771D02*
X252138095Y-75073866D01*
X252138095Y-75073866D02*
X252090476Y-75264342D01*
X252090476Y-75264342D02*
X252042857Y-75359580D01*
X252042857Y-75359580D02*
X251995238Y-75407200D01*
X251995238Y-75407200D02*
X251900000Y-75454819D01*
X251900000Y-75454819D02*
X251804762Y-75454819D01*
X251804762Y-75454819D02*
X251709524Y-75407200D01*
X251709524Y-75407200D02*
X251661905Y-75359580D01*
X251661905Y-75359580D02*
X251614286Y-75264342D01*
X251614286Y-75264342D02*
X251566667Y-75073866D01*
X251566667Y-75073866D02*
X251566667Y-74835771D01*
X251566667Y-74835771D02*
X251614286Y-74645295D01*
X251614286Y-74645295D02*
X251661905Y-74550057D01*
X251661905Y-74550057D02*
X251709524Y-74502438D01*
X251709524Y-74502438D02*
X251804762Y-74454819D01*
X64836667Y-82607200D02*
X64979524Y-82654819D01*
X64979524Y-82654819D02*
X65217619Y-82654819D01*
X65217619Y-82654819D02*
X65312857Y-82607200D01*
X65312857Y-82607200D02*
X65360476Y-82559580D01*
X65360476Y-82559580D02*
X65408095Y-82464342D01*
X65408095Y-82464342D02*
X65408095Y-82369104D01*
X65408095Y-82369104D02*
X65360476Y-82273866D01*
X65360476Y-82273866D02*
X65312857Y-82226247D01*
X65312857Y-82226247D02*
X65217619Y-82178628D01*
X65217619Y-82178628D02*
X65027143Y-82131009D01*
X65027143Y-82131009D02*
X64931905Y-82083390D01*
X64931905Y-82083390D02*
X64884286Y-82035771D01*
X64884286Y-82035771D02*
X64836667Y-81940533D01*
X64836667Y-81940533D02*
X64836667Y-81845295D01*
X64836667Y-81845295D02*
X64884286Y-81750057D01*
X64884286Y-81750057D02*
X64931905Y-81702438D01*
X64931905Y-81702438D02*
X65027143Y-81654819D01*
X65027143Y-81654819D02*
X65265238Y-81654819D01*
X65265238Y-81654819D02*
X65408095Y-81702438D01*
X65741429Y-81654819D02*
X65979524Y-82654819D01*
X65979524Y-82654819D02*
X66170000Y-81940533D01*
X66170000Y-81940533D02*
X66360476Y-82654819D01*
X66360476Y-82654819D02*
X66598572Y-81654819D01*
X67503333Y-82654819D02*
X66931905Y-82654819D01*
X67217619Y-82654819D02*
X67217619Y-81654819D01*
X67217619Y-81654819D02*
X67122381Y-81797676D01*
X67122381Y-81797676D02*
X67027143Y-81892914D01*
X67027143Y-81892914D02*
X66931905Y-81940533D01*
X140461905Y-92607200D02*
X140604762Y-92654819D01*
X140604762Y-92654819D02*
X140842857Y-92654819D01*
X140842857Y-92654819D02*
X140938095Y-92607200D01*
X140938095Y-92607200D02*
X140985714Y-92559580D01*
X140985714Y-92559580D02*
X141033333Y-92464342D01*
X141033333Y-92464342D02*
X141033333Y-92369104D01*
X141033333Y-92369104D02*
X140985714Y-92273866D01*
X140985714Y-92273866D02*
X140938095Y-92226247D01*
X140938095Y-92226247D02*
X140842857Y-92178628D01*
X140842857Y-92178628D02*
X140652381Y-92131009D01*
X140652381Y-92131009D02*
X140557143Y-92083390D01*
X140557143Y-92083390D02*
X140509524Y-92035771D01*
X140509524Y-92035771D02*
X140461905Y-91940533D01*
X140461905Y-91940533D02*
X140461905Y-91845295D01*
X140461905Y-91845295D02*
X140509524Y-91750057D01*
X140509524Y-91750057D02*
X140557143Y-91702438D01*
X140557143Y-91702438D02*
X140652381Y-91654819D01*
X140652381Y-91654819D02*
X140890476Y-91654819D01*
X140890476Y-91654819D02*
X141033333Y-91702438D01*
X141414286Y-91750057D02*
X141461905Y-91702438D01*
X141461905Y-91702438D02*
X141557143Y-91654819D01*
X141557143Y-91654819D02*
X141795238Y-91654819D01*
X141795238Y-91654819D02*
X141890476Y-91702438D01*
X141890476Y-91702438D02*
X141938095Y-91750057D01*
X141938095Y-91750057D02*
X141985714Y-91845295D01*
X141985714Y-91845295D02*
X141985714Y-91940533D01*
X141985714Y-91940533D02*
X141938095Y-92083390D01*
X141938095Y-92083390D02*
X141366667Y-92654819D01*
X141366667Y-92654819D02*
X141985714Y-92654819D01*
X142842857Y-91988152D02*
X142842857Y-92654819D01*
X142604762Y-91607200D02*
X142366667Y-92321485D01*
X142366667Y-92321485D02*
X142985714Y-92321485D01*
X140461905Y-75407200D02*
X140604762Y-75454819D01*
X140604762Y-75454819D02*
X140842857Y-75454819D01*
X140842857Y-75454819D02*
X140938095Y-75407200D01*
X140938095Y-75407200D02*
X140985714Y-75359580D01*
X140985714Y-75359580D02*
X141033333Y-75264342D01*
X141033333Y-75264342D02*
X141033333Y-75169104D01*
X141033333Y-75169104D02*
X140985714Y-75073866D01*
X140985714Y-75073866D02*
X140938095Y-75026247D01*
X140938095Y-75026247D02*
X140842857Y-74978628D01*
X140842857Y-74978628D02*
X140652381Y-74931009D01*
X140652381Y-74931009D02*
X140557143Y-74883390D01*
X140557143Y-74883390D02*
X140509524Y-74835771D01*
X140509524Y-74835771D02*
X140461905Y-74740533D01*
X140461905Y-74740533D02*
X140461905Y-74645295D01*
X140461905Y-74645295D02*
X140509524Y-74550057D01*
X140509524Y-74550057D02*
X140557143Y-74502438D01*
X140557143Y-74502438D02*
X140652381Y-74454819D01*
X140652381Y-74454819D02*
X140890476Y-74454819D01*
X140890476Y-74454819D02*
X141033333Y-74502438D01*
X141985714Y-75454819D02*
X141414286Y-75454819D01*
X141700000Y-75454819D02*
X141700000Y-74454819D01*
X141700000Y-74454819D02*
X141604762Y-74597676D01*
X141604762Y-74597676D02*
X141509524Y-74692914D01*
X141509524Y-74692914D02*
X141414286Y-74740533D01*
X142842857Y-74788152D02*
X142842857Y-75454819D01*
X142604762Y-74407200D02*
X142366667Y-75121485D01*
X142366667Y-75121485D02*
X142985714Y-75121485D01*
X104011905Y-92607200D02*
X104154762Y-92654819D01*
X104154762Y-92654819D02*
X104392857Y-92654819D01*
X104392857Y-92654819D02*
X104488095Y-92607200D01*
X104488095Y-92607200D02*
X104535714Y-92559580D01*
X104535714Y-92559580D02*
X104583333Y-92464342D01*
X104583333Y-92464342D02*
X104583333Y-92369104D01*
X104583333Y-92369104D02*
X104535714Y-92273866D01*
X104535714Y-92273866D02*
X104488095Y-92226247D01*
X104488095Y-92226247D02*
X104392857Y-92178628D01*
X104392857Y-92178628D02*
X104202381Y-92131009D01*
X104202381Y-92131009D02*
X104107143Y-92083390D01*
X104107143Y-92083390D02*
X104059524Y-92035771D01*
X104059524Y-92035771D02*
X104011905Y-91940533D01*
X104011905Y-91940533D02*
X104011905Y-91845295D01*
X104011905Y-91845295D02*
X104059524Y-91750057D01*
X104059524Y-91750057D02*
X104107143Y-91702438D01*
X104107143Y-91702438D02*
X104202381Y-91654819D01*
X104202381Y-91654819D02*
X104440476Y-91654819D01*
X104440476Y-91654819D02*
X104583333Y-91702438D01*
X104964286Y-91750057D02*
X105011905Y-91702438D01*
X105011905Y-91702438D02*
X105107143Y-91654819D01*
X105107143Y-91654819D02*
X105345238Y-91654819D01*
X105345238Y-91654819D02*
X105440476Y-91702438D01*
X105440476Y-91702438D02*
X105488095Y-91750057D01*
X105488095Y-91750057D02*
X105535714Y-91845295D01*
X105535714Y-91845295D02*
X105535714Y-91940533D01*
X105535714Y-91940533D02*
X105488095Y-92083390D01*
X105488095Y-92083390D02*
X104916667Y-92654819D01*
X104916667Y-92654819D02*
X105535714Y-92654819D01*
X105916667Y-91750057D02*
X105964286Y-91702438D01*
X105964286Y-91702438D02*
X106059524Y-91654819D01*
X106059524Y-91654819D02*
X106297619Y-91654819D01*
X106297619Y-91654819D02*
X106392857Y-91702438D01*
X106392857Y-91702438D02*
X106440476Y-91750057D01*
X106440476Y-91750057D02*
X106488095Y-91845295D01*
X106488095Y-91845295D02*
X106488095Y-91940533D01*
X106488095Y-91940533D02*
X106440476Y-92083390D01*
X106440476Y-92083390D02*
X105869048Y-92654819D01*
X105869048Y-92654819D02*
X106488095Y-92654819D01*
X122261905Y-75407200D02*
X122404762Y-75454819D01*
X122404762Y-75454819D02*
X122642857Y-75454819D01*
X122642857Y-75454819D02*
X122738095Y-75407200D01*
X122738095Y-75407200D02*
X122785714Y-75359580D01*
X122785714Y-75359580D02*
X122833333Y-75264342D01*
X122833333Y-75264342D02*
X122833333Y-75169104D01*
X122833333Y-75169104D02*
X122785714Y-75073866D01*
X122785714Y-75073866D02*
X122738095Y-75026247D01*
X122738095Y-75026247D02*
X122642857Y-74978628D01*
X122642857Y-74978628D02*
X122452381Y-74931009D01*
X122452381Y-74931009D02*
X122357143Y-74883390D01*
X122357143Y-74883390D02*
X122309524Y-74835771D01*
X122309524Y-74835771D02*
X122261905Y-74740533D01*
X122261905Y-74740533D02*
X122261905Y-74645295D01*
X122261905Y-74645295D02*
X122309524Y-74550057D01*
X122309524Y-74550057D02*
X122357143Y-74502438D01*
X122357143Y-74502438D02*
X122452381Y-74454819D01*
X122452381Y-74454819D02*
X122690476Y-74454819D01*
X122690476Y-74454819D02*
X122833333Y-74502438D01*
X123785714Y-75454819D02*
X123214286Y-75454819D01*
X123500000Y-75454819D02*
X123500000Y-74454819D01*
X123500000Y-74454819D02*
X123404762Y-74597676D01*
X123404762Y-74597676D02*
X123309524Y-74692914D01*
X123309524Y-74692914D02*
X123214286Y-74740533D01*
X124119048Y-74454819D02*
X124738095Y-74454819D01*
X124738095Y-74454819D02*
X124404762Y-74835771D01*
X124404762Y-74835771D02*
X124547619Y-74835771D01*
X124547619Y-74835771D02*
X124642857Y-74883390D01*
X124642857Y-74883390D02*
X124690476Y-74931009D01*
X124690476Y-74931009D02*
X124738095Y-75026247D01*
X124738095Y-75026247D02*
X124738095Y-75264342D01*
X124738095Y-75264342D02*
X124690476Y-75359580D01*
X124690476Y-75359580D02*
X124642857Y-75407200D01*
X124642857Y-75407200D02*
X124547619Y-75454819D01*
X124547619Y-75454819D02*
X124261905Y-75454819D01*
X124261905Y-75454819D02*
X124166667Y-75407200D01*
X124166667Y-75407200D02*
X124119048Y-75359580D01*
X140938095Y-58207200D02*
X141080952Y-58254819D01*
X141080952Y-58254819D02*
X141319047Y-58254819D01*
X141319047Y-58254819D02*
X141414285Y-58207200D01*
X141414285Y-58207200D02*
X141461904Y-58159580D01*
X141461904Y-58159580D02*
X141509523Y-58064342D01*
X141509523Y-58064342D02*
X141509523Y-57969104D01*
X141509523Y-57969104D02*
X141461904Y-57873866D01*
X141461904Y-57873866D02*
X141414285Y-57826247D01*
X141414285Y-57826247D02*
X141319047Y-57778628D01*
X141319047Y-57778628D02*
X141128571Y-57731009D01*
X141128571Y-57731009D02*
X141033333Y-57683390D01*
X141033333Y-57683390D02*
X140985714Y-57635771D01*
X140985714Y-57635771D02*
X140938095Y-57540533D01*
X140938095Y-57540533D02*
X140938095Y-57445295D01*
X140938095Y-57445295D02*
X140985714Y-57350057D01*
X140985714Y-57350057D02*
X141033333Y-57302438D01*
X141033333Y-57302438D02*
X141128571Y-57254819D01*
X141128571Y-57254819D02*
X141366666Y-57254819D01*
X141366666Y-57254819D02*
X141509523Y-57302438D01*
X142366666Y-57588152D02*
X142366666Y-58254819D01*
X142128571Y-57207200D02*
X141890476Y-57921485D01*
X141890476Y-57921485D02*
X142509523Y-57921485D01*
X104488095Y-58157200D02*
X104630952Y-58204819D01*
X104630952Y-58204819D02*
X104869047Y-58204819D01*
X104869047Y-58204819D02*
X104964285Y-58157200D01*
X104964285Y-58157200D02*
X105011904Y-58109580D01*
X105011904Y-58109580D02*
X105059523Y-58014342D01*
X105059523Y-58014342D02*
X105059523Y-57919104D01*
X105059523Y-57919104D02*
X105011904Y-57823866D01*
X105011904Y-57823866D02*
X104964285Y-57776247D01*
X104964285Y-57776247D02*
X104869047Y-57728628D01*
X104869047Y-57728628D02*
X104678571Y-57681009D01*
X104678571Y-57681009D02*
X104583333Y-57633390D01*
X104583333Y-57633390D02*
X104535714Y-57585771D01*
X104535714Y-57585771D02*
X104488095Y-57490533D01*
X104488095Y-57490533D02*
X104488095Y-57395295D01*
X104488095Y-57395295D02*
X104535714Y-57300057D01*
X104535714Y-57300057D02*
X104583333Y-57252438D01*
X104583333Y-57252438D02*
X104678571Y-57204819D01*
X104678571Y-57204819D02*
X104916666Y-57204819D01*
X104916666Y-57204819D02*
X105059523Y-57252438D01*
X105440476Y-57300057D02*
X105488095Y-57252438D01*
X105488095Y-57252438D02*
X105583333Y-57204819D01*
X105583333Y-57204819D02*
X105821428Y-57204819D01*
X105821428Y-57204819D02*
X105916666Y-57252438D01*
X105916666Y-57252438D02*
X105964285Y-57300057D01*
X105964285Y-57300057D02*
X106011904Y-57395295D01*
X106011904Y-57395295D02*
X106011904Y-57490533D01*
X106011904Y-57490533D02*
X105964285Y-57633390D01*
X105964285Y-57633390D02*
X105392857Y-58204819D01*
X105392857Y-58204819D02*
X106011904Y-58204819D01*
X122261905Y-92607200D02*
X122404762Y-92654819D01*
X122404762Y-92654819D02*
X122642857Y-92654819D01*
X122642857Y-92654819D02*
X122738095Y-92607200D01*
X122738095Y-92607200D02*
X122785714Y-92559580D01*
X122785714Y-92559580D02*
X122833333Y-92464342D01*
X122833333Y-92464342D02*
X122833333Y-92369104D01*
X122833333Y-92369104D02*
X122785714Y-92273866D01*
X122785714Y-92273866D02*
X122738095Y-92226247D01*
X122738095Y-92226247D02*
X122642857Y-92178628D01*
X122642857Y-92178628D02*
X122452381Y-92131009D01*
X122452381Y-92131009D02*
X122357143Y-92083390D01*
X122357143Y-92083390D02*
X122309524Y-92035771D01*
X122309524Y-92035771D02*
X122261905Y-91940533D01*
X122261905Y-91940533D02*
X122261905Y-91845295D01*
X122261905Y-91845295D02*
X122309524Y-91750057D01*
X122309524Y-91750057D02*
X122357143Y-91702438D01*
X122357143Y-91702438D02*
X122452381Y-91654819D01*
X122452381Y-91654819D02*
X122690476Y-91654819D01*
X122690476Y-91654819D02*
X122833333Y-91702438D01*
X123214286Y-91750057D02*
X123261905Y-91702438D01*
X123261905Y-91702438D02*
X123357143Y-91654819D01*
X123357143Y-91654819D02*
X123595238Y-91654819D01*
X123595238Y-91654819D02*
X123690476Y-91702438D01*
X123690476Y-91702438D02*
X123738095Y-91750057D01*
X123738095Y-91750057D02*
X123785714Y-91845295D01*
X123785714Y-91845295D02*
X123785714Y-91940533D01*
X123785714Y-91940533D02*
X123738095Y-92083390D01*
X123738095Y-92083390D02*
X123166667Y-92654819D01*
X123166667Y-92654819D02*
X123785714Y-92654819D01*
X124119048Y-91654819D02*
X124738095Y-91654819D01*
X124738095Y-91654819D02*
X124404762Y-92035771D01*
X124404762Y-92035771D02*
X124547619Y-92035771D01*
X124547619Y-92035771D02*
X124642857Y-92083390D01*
X124642857Y-92083390D02*
X124690476Y-92131009D01*
X124690476Y-92131009D02*
X124738095Y-92226247D01*
X124738095Y-92226247D02*
X124738095Y-92464342D01*
X124738095Y-92464342D02*
X124690476Y-92559580D01*
X124690476Y-92559580D02*
X124642857Y-92607200D01*
X124642857Y-92607200D02*
X124547619Y-92654819D01*
X124547619Y-92654819D02*
X124261905Y-92654819D01*
X124261905Y-92654819D02*
X124166667Y-92607200D01*
X124166667Y-92607200D02*
X124119048Y-92559580D01*
X249661905Y-92607200D02*
X249804762Y-92654819D01*
X249804762Y-92654819D02*
X250042857Y-92654819D01*
X250042857Y-92654819D02*
X250138095Y-92607200D01*
X250138095Y-92607200D02*
X250185714Y-92559580D01*
X250185714Y-92559580D02*
X250233333Y-92464342D01*
X250233333Y-92464342D02*
X250233333Y-92369104D01*
X250233333Y-92369104D02*
X250185714Y-92273866D01*
X250185714Y-92273866D02*
X250138095Y-92226247D01*
X250138095Y-92226247D02*
X250042857Y-92178628D01*
X250042857Y-92178628D02*
X249852381Y-92131009D01*
X249852381Y-92131009D02*
X249757143Y-92083390D01*
X249757143Y-92083390D02*
X249709524Y-92035771D01*
X249709524Y-92035771D02*
X249661905Y-91940533D01*
X249661905Y-91940533D02*
X249661905Y-91845295D01*
X249661905Y-91845295D02*
X249709524Y-91750057D01*
X249709524Y-91750057D02*
X249757143Y-91702438D01*
X249757143Y-91702438D02*
X249852381Y-91654819D01*
X249852381Y-91654819D02*
X250090476Y-91654819D01*
X250090476Y-91654819D02*
X250233333Y-91702438D01*
X250566667Y-91654819D02*
X251185714Y-91654819D01*
X251185714Y-91654819D02*
X250852381Y-92035771D01*
X250852381Y-92035771D02*
X250995238Y-92035771D01*
X250995238Y-92035771D02*
X251090476Y-92083390D01*
X251090476Y-92083390D02*
X251138095Y-92131009D01*
X251138095Y-92131009D02*
X251185714Y-92226247D01*
X251185714Y-92226247D02*
X251185714Y-92464342D01*
X251185714Y-92464342D02*
X251138095Y-92559580D01*
X251138095Y-92559580D02*
X251090476Y-92607200D01*
X251090476Y-92607200D02*
X250995238Y-92654819D01*
X250995238Y-92654819D02*
X250709524Y-92654819D01*
X250709524Y-92654819D02*
X250614286Y-92607200D01*
X250614286Y-92607200D02*
X250566667Y-92559580D01*
X251804762Y-91654819D02*
X251900000Y-91654819D01*
X251900000Y-91654819D02*
X251995238Y-91702438D01*
X251995238Y-91702438D02*
X252042857Y-91750057D01*
X252042857Y-91750057D02*
X252090476Y-91845295D01*
X252090476Y-91845295D02*
X252138095Y-92035771D01*
X252138095Y-92035771D02*
X252138095Y-92273866D01*
X252138095Y-92273866D02*
X252090476Y-92464342D01*
X252090476Y-92464342D02*
X252042857Y-92559580D01*
X252042857Y-92559580D02*
X251995238Y-92607200D01*
X251995238Y-92607200D02*
X251900000Y-92654819D01*
X251900000Y-92654819D02*
X251804762Y-92654819D01*
X251804762Y-92654819D02*
X251709524Y-92607200D01*
X251709524Y-92607200D02*
X251661905Y-92559580D01*
X251661905Y-92559580D02*
X251614286Y-92464342D01*
X251614286Y-92464342D02*
X251566667Y-92273866D01*
X251566667Y-92273866D02*
X251566667Y-92035771D01*
X251566667Y-92035771D02*
X251614286Y-91845295D01*
X251614286Y-91845295D02*
X251661905Y-91750057D01*
X251661905Y-91750057D02*
X251709524Y-91702438D01*
X251709524Y-91702438D02*
X251804762Y-91654819D01*
X181361905Y-109807200D02*
X181504762Y-109854819D01*
X181504762Y-109854819D02*
X181742857Y-109854819D01*
X181742857Y-109854819D02*
X181838095Y-109807200D01*
X181838095Y-109807200D02*
X181885714Y-109759580D01*
X181885714Y-109759580D02*
X181933333Y-109664342D01*
X181933333Y-109664342D02*
X181933333Y-109569104D01*
X181933333Y-109569104D02*
X181885714Y-109473866D01*
X181885714Y-109473866D02*
X181838095Y-109426247D01*
X181838095Y-109426247D02*
X181742857Y-109378628D01*
X181742857Y-109378628D02*
X181552381Y-109331009D01*
X181552381Y-109331009D02*
X181457143Y-109283390D01*
X181457143Y-109283390D02*
X181409524Y-109235771D01*
X181409524Y-109235771D02*
X181361905Y-109140533D01*
X181361905Y-109140533D02*
X181361905Y-109045295D01*
X181361905Y-109045295D02*
X181409524Y-108950057D01*
X181409524Y-108950057D02*
X181457143Y-108902438D01*
X181457143Y-108902438D02*
X181552381Y-108854819D01*
X181552381Y-108854819D02*
X181790476Y-108854819D01*
X181790476Y-108854819D02*
X181933333Y-108902438D01*
X182266667Y-108854819D02*
X182885714Y-108854819D01*
X182885714Y-108854819D02*
X182552381Y-109235771D01*
X182552381Y-109235771D02*
X182695238Y-109235771D01*
X182695238Y-109235771D02*
X182790476Y-109283390D01*
X182790476Y-109283390D02*
X182838095Y-109331009D01*
X182838095Y-109331009D02*
X182885714Y-109426247D01*
X182885714Y-109426247D02*
X182885714Y-109664342D01*
X182885714Y-109664342D02*
X182838095Y-109759580D01*
X182838095Y-109759580D02*
X182790476Y-109807200D01*
X182790476Y-109807200D02*
X182695238Y-109854819D01*
X182695238Y-109854819D02*
X182409524Y-109854819D01*
X182409524Y-109854819D02*
X182314286Y-109807200D01*
X182314286Y-109807200D02*
X182266667Y-109759580D01*
X183266667Y-108950057D02*
X183314286Y-108902438D01*
X183314286Y-108902438D02*
X183409524Y-108854819D01*
X183409524Y-108854819D02*
X183647619Y-108854819D01*
X183647619Y-108854819D02*
X183742857Y-108902438D01*
X183742857Y-108902438D02*
X183790476Y-108950057D01*
X183790476Y-108950057D02*
X183838095Y-109045295D01*
X183838095Y-109045295D02*
X183838095Y-109140533D01*
X183838095Y-109140533D02*
X183790476Y-109283390D01*
X183790476Y-109283390D02*
X183219048Y-109854819D01*
X183219048Y-109854819D02*
X183838095Y-109854819D01*
X213261905Y-75407200D02*
X213404762Y-75454819D01*
X213404762Y-75454819D02*
X213642857Y-75454819D01*
X213642857Y-75454819D02*
X213738095Y-75407200D01*
X213738095Y-75407200D02*
X213785714Y-75359580D01*
X213785714Y-75359580D02*
X213833333Y-75264342D01*
X213833333Y-75264342D02*
X213833333Y-75169104D01*
X213833333Y-75169104D02*
X213785714Y-75073866D01*
X213785714Y-75073866D02*
X213738095Y-75026247D01*
X213738095Y-75026247D02*
X213642857Y-74978628D01*
X213642857Y-74978628D02*
X213452381Y-74931009D01*
X213452381Y-74931009D02*
X213357143Y-74883390D01*
X213357143Y-74883390D02*
X213309524Y-74835771D01*
X213309524Y-74835771D02*
X213261905Y-74740533D01*
X213261905Y-74740533D02*
X213261905Y-74645295D01*
X213261905Y-74645295D02*
X213309524Y-74550057D01*
X213309524Y-74550057D02*
X213357143Y-74502438D01*
X213357143Y-74502438D02*
X213452381Y-74454819D01*
X213452381Y-74454819D02*
X213690476Y-74454819D01*
X213690476Y-74454819D02*
X213833333Y-74502438D01*
X214785714Y-75454819D02*
X214214286Y-75454819D01*
X214500000Y-75454819D02*
X214500000Y-74454819D01*
X214500000Y-74454819D02*
X214404762Y-74597676D01*
X214404762Y-74597676D02*
X214309524Y-74692914D01*
X214309524Y-74692914D02*
X214214286Y-74740533D01*
X215357143Y-74883390D02*
X215261905Y-74835771D01*
X215261905Y-74835771D02*
X215214286Y-74788152D01*
X215214286Y-74788152D02*
X215166667Y-74692914D01*
X215166667Y-74692914D02*
X215166667Y-74645295D01*
X215166667Y-74645295D02*
X215214286Y-74550057D01*
X215214286Y-74550057D02*
X215261905Y-74502438D01*
X215261905Y-74502438D02*
X215357143Y-74454819D01*
X215357143Y-74454819D02*
X215547619Y-74454819D01*
X215547619Y-74454819D02*
X215642857Y-74502438D01*
X215642857Y-74502438D02*
X215690476Y-74550057D01*
X215690476Y-74550057D02*
X215738095Y-74645295D01*
X215738095Y-74645295D02*
X215738095Y-74692914D01*
X215738095Y-74692914D02*
X215690476Y-74788152D01*
X215690476Y-74788152D02*
X215642857Y-74835771D01*
X215642857Y-74835771D02*
X215547619Y-74883390D01*
X215547619Y-74883390D02*
X215357143Y-74883390D01*
X215357143Y-74883390D02*
X215261905Y-74931009D01*
X215261905Y-74931009D02*
X215214286Y-74978628D01*
X215214286Y-74978628D02*
X215166667Y-75073866D01*
X215166667Y-75073866D02*
X215166667Y-75264342D01*
X215166667Y-75264342D02*
X215214286Y-75359580D01*
X215214286Y-75359580D02*
X215261905Y-75407200D01*
X215261905Y-75407200D02*
X215357143Y-75454819D01*
X215357143Y-75454819D02*
X215547619Y-75454819D01*
X215547619Y-75454819D02*
X215642857Y-75407200D01*
X215642857Y-75407200D02*
X215690476Y-75359580D01*
X215690476Y-75359580D02*
X215738095Y-75264342D01*
X215738095Y-75264342D02*
X215738095Y-75073866D01*
X215738095Y-75073866D02*
X215690476Y-74978628D01*
X215690476Y-74978628D02*
X215642857Y-74931009D01*
X215642857Y-74931009D02*
X215547619Y-74883390D01*
X176861905Y-92607200D02*
X177004762Y-92654819D01*
X177004762Y-92654819D02*
X177242857Y-92654819D01*
X177242857Y-92654819D02*
X177338095Y-92607200D01*
X177338095Y-92607200D02*
X177385714Y-92559580D01*
X177385714Y-92559580D02*
X177433333Y-92464342D01*
X177433333Y-92464342D02*
X177433333Y-92369104D01*
X177433333Y-92369104D02*
X177385714Y-92273866D01*
X177385714Y-92273866D02*
X177338095Y-92226247D01*
X177338095Y-92226247D02*
X177242857Y-92178628D01*
X177242857Y-92178628D02*
X177052381Y-92131009D01*
X177052381Y-92131009D02*
X176957143Y-92083390D01*
X176957143Y-92083390D02*
X176909524Y-92035771D01*
X176909524Y-92035771D02*
X176861905Y-91940533D01*
X176861905Y-91940533D02*
X176861905Y-91845295D01*
X176861905Y-91845295D02*
X176909524Y-91750057D01*
X176909524Y-91750057D02*
X176957143Y-91702438D01*
X176957143Y-91702438D02*
X177052381Y-91654819D01*
X177052381Y-91654819D02*
X177290476Y-91654819D01*
X177290476Y-91654819D02*
X177433333Y-91702438D01*
X177814286Y-91750057D02*
X177861905Y-91702438D01*
X177861905Y-91702438D02*
X177957143Y-91654819D01*
X177957143Y-91654819D02*
X178195238Y-91654819D01*
X178195238Y-91654819D02*
X178290476Y-91702438D01*
X178290476Y-91702438D02*
X178338095Y-91750057D01*
X178338095Y-91750057D02*
X178385714Y-91845295D01*
X178385714Y-91845295D02*
X178385714Y-91940533D01*
X178385714Y-91940533D02*
X178338095Y-92083390D01*
X178338095Y-92083390D02*
X177766667Y-92654819D01*
X177766667Y-92654819D02*
X178385714Y-92654819D01*
X179242857Y-91654819D02*
X179052381Y-91654819D01*
X179052381Y-91654819D02*
X178957143Y-91702438D01*
X178957143Y-91702438D02*
X178909524Y-91750057D01*
X178909524Y-91750057D02*
X178814286Y-91892914D01*
X178814286Y-91892914D02*
X178766667Y-92083390D01*
X178766667Y-92083390D02*
X178766667Y-92464342D01*
X178766667Y-92464342D02*
X178814286Y-92559580D01*
X178814286Y-92559580D02*
X178861905Y-92607200D01*
X178861905Y-92607200D02*
X178957143Y-92654819D01*
X178957143Y-92654819D02*
X179147619Y-92654819D01*
X179147619Y-92654819D02*
X179242857Y-92607200D01*
X179242857Y-92607200D02*
X179290476Y-92559580D01*
X179290476Y-92559580D02*
X179338095Y-92464342D01*
X179338095Y-92464342D02*
X179338095Y-92226247D01*
X179338095Y-92226247D02*
X179290476Y-92131009D01*
X179290476Y-92131009D02*
X179242857Y-92083390D01*
X179242857Y-92083390D02*
X179147619Y-92035771D01*
X179147619Y-92035771D02*
X178957143Y-92035771D01*
X178957143Y-92035771D02*
X178861905Y-92083390D01*
X178861905Y-92083390D02*
X178814286Y-92131009D01*
X178814286Y-92131009D02*
X178766667Y-92226247D01*
X85761905Y-75457200D02*
X85904762Y-75504819D01*
X85904762Y-75504819D02*
X86142857Y-75504819D01*
X86142857Y-75504819D02*
X86238095Y-75457200D01*
X86238095Y-75457200D02*
X86285714Y-75409580D01*
X86285714Y-75409580D02*
X86333333Y-75314342D01*
X86333333Y-75314342D02*
X86333333Y-75219104D01*
X86333333Y-75219104D02*
X86285714Y-75123866D01*
X86285714Y-75123866D02*
X86238095Y-75076247D01*
X86238095Y-75076247D02*
X86142857Y-75028628D01*
X86142857Y-75028628D02*
X85952381Y-74981009D01*
X85952381Y-74981009D02*
X85857143Y-74933390D01*
X85857143Y-74933390D02*
X85809524Y-74885771D01*
X85809524Y-74885771D02*
X85761905Y-74790533D01*
X85761905Y-74790533D02*
X85761905Y-74695295D01*
X85761905Y-74695295D02*
X85809524Y-74600057D01*
X85809524Y-74600057D02*
X85857143Y-74552438D01*
X85857143Y-74552438D02*
X85952381Y-74504819D01*
X85952381Y-74504819D02*
X86190476Y-74504819D01*
X86190476Y-74504819D02*
X86333333Y-74552438D01*
X87285714Y-75504819D02*
X86714286Y-75504819D01*
X87000000Y-75504819D02*
X87000000Y-74504819D01*
X87000000Y-74504819D02*
X86904762Y-74647676D01*
X86904762Y-74647676D02*
X86809524Y-74742914D01*
X86809524Y-74742914D02*
X86714286Y-74790533D01*
X88238095Y-75504819D02*
X87666667Y-75504819D01*
X87952381Y-75504819D02*
X87952381Y-74504819D01*
X87952381Y-74504819D02*
X87857143Y-74647676D01*
X87857143Y-74647676D02*
X87761905Y-74742914D01*
X87761905Y-74742914D02*
X87666667Y-74790533D01*
X85761905Y-92607200D02*
X85904762Y-92654819D01*
X85904762Y-92654819D02*
X86142857Y-92654819D01*
X86142857Y-92654819D02*
X86238095Y-92607200D01*
X86238095Y-92607200D02*
X86285714Y-92559580D01*
X86285714Y-92559580D02*
X86333333Y-92464342D01*
X86333333Y-92464342D02*
X86333333Y-92369104D01*
X86333333Y-92369104D02*
X86285714Y-92273866D01*
X86285714Y-92273866D02*
X86238095Y-92226247D01*
X86238095Y-92226247D02*
X86142857Y-92178628D01*
X86142857Y-92178628D02*
X85952381Y-92131009D01*
X85952381Y-92131009D02*
X85857143Y-92083390D01*
X85857143Y-92083390D02*
X85809524Y-92035771D01*
X85809524Y-92035771D02*
X85761905Y-91940533D01*
X85761905Y-91940533D02*
X85761905Y-91845295D01*
X85761905Y-91845295D02*
X85809524Y-91750057D01*
X85809524Y-91750057D02*
X85857143Y-91702438D01*
X85857143Y-91702438D02*
X85952381Y-91654819D01*
X85952381Y-91654819D02*
X86190476Y-91654819D01*
X86190476Y-91654819D02*
X86333333Y-91702438D01*
X86714286Y-91750057D02*
X86761905Y-91702438D01*
X86761905Y-91702438D02*
X86857143Y-91654819D01*
X86857143Y-91654819D02*
X87095238Y-91654819D01*
X87095238Y-91654819D02*
X87190476Y-91702438D01*
X87190476Y-91702438D02*
X87238095Y-91750057D01*
X87238095Y-91750057D02*
X87285714Y-91845295D01*
X87285714Y-91845295D02*
X87285714Y-91940533D01*
X87285714Y-91940533D02*
X87238095Y-92083390D01*
X87238095Y-92083390D02*
X86666667Y-92654819D01*
X86666667Y-92654819D02*
X87285714Y-92654819D01*
X88238095Y-92654819D02*
X87666667Y-92654819D01*
X87952381Y-92654819D02*
X87952381Y-91654819D01*
X87952381Y-91654819D02*
X87857143Y-91797676D01*
X87857143Y-91797676D02*
X87761905Y-91892914D01*
X87761905Y-91892914D02*
X87666667Y-91940533D01*
X249661905Y-58207200D02*
X249804762Y-58254819D01*
X249804762Y-58254819D02*
X250042857Y-58254819D01*
X250042857Y-58254819D02*
X250138095Y-58207200D01*
X250138095Y-58207200D02*
X250185714Y-58159580D01*
X250185714Y-58159580D02*
X250233333Y-58064342D01*
X250233333Y-58064342D02*
X250233333Y-57969104D01*
X250233333Y-57969104D02*
X250185714Y-57873866D01*
X250185714Y-57873866D02*
X250138095Y-57826247D01*
X250138095Y-57826247D02*
X250042857Y-57778628D01*
X250042857Y-57778628D02*
X249852381Y-57731009D01*
X249852381Y-57731009D02*
X249757143Y-57683390D01*
X249757143Y-57683390D02*
X249709524Y-57635771D01*
X249709524Y-57635771D02*
X249661905Y-57540533D01*
X249661905Y-57540533D02*
X249661905Y-57445295D01*
X249661905Y-57445295D02*
X249709524Y-57350057D01*
X249709524Y-57350057D02*
X249757143Y-57302438D01*
X249757143Y-57302438D02*
X249852381Y-57254819D01*
X249852381Y-57254819D02*
X250090476Y-57254819D01*
X250090476Y-57254819D02*
X250233333Y-57302438D01*
X251185714Y-58254819D02*
X250614286Y-58254819D01*
X250900000Y-58254819D02*
X250900000Y-57254819D01*
X250900000Y-57254819D02*
X250804762Y-57397676D01*
X250804762Y-57397676D02*
X250709524Y-57492914D01*
X250709524Y-57492914D02*
X250614286Y-57540533D01*
X251804762Y-57254819D02*
X251900000Y-57254819D01*
X251900000Y-57254819D02*
X251995238Y-57302438D01*
X251995238Y-57302438D02*
X252042857Y-57350057D01*
X252042857Y-57350057D02*
X252090476Y-57445295D01*
X252090476Y-57445295D02*
X252138095Y-57635771D01*
X252138095Y-57635771D02*
X252138095Y-57873866D01*
X252138095Y-57873866D02*
X252090476Y-58064342D01*
X252090476Y-58064342D02*
X252042857Y-58159580D01*
X252042857Y-58159580D02*
X251995238Y-58207200D01*
X251995238Y-58207200D02*
X251900000Y-58254819D01*
X251900000Y-58254819D02*
X251804762Y-58254819D01*
X251804762Y-58254819D02*
X251709524Y-58207200D01*
X251709524Y-58207200D02*
X251661905Y-58159580D01*
X251661905Y-58159580D02*
X251614286Y-58064342D01*
X251614286Y-58064342D02*
X251566667Y-57873866D01*
X251566667Y-57873866D02*
X251566667Y-57635771D01*
X251566667Y-57635771D02*
X251614286Y-57445295D01*
X251614286Y-57445295D02*
X251661905Y-57350057D01*
X251661905Y-57350057D02*
X251709524Y-57302438D01*
X251709524Y-57302438D02*
X251804762Y-57254819D01*
X158661905Y-92607200D02*
X158804762Y-92654819D01*
X158804762Y-92654819D02*
X159042857Y-92654819D01*
X159042857Y-92654819D02*
X159138095Y-92607200D01*
X159138095Y-92607200D02*
X159185714Y-92559580D01*
X159185714Y-92559580D02*
X159233333Y-92464342D01*
X159233333Y-92464342D02*
X159233333Y-92369104D01*
X159233333Y-92369104D02*
X159185714Y-92273866D01*
X159185714Y-92273866D02*
X159138095Y-92226247D01*
X159138095Y-92226247D02*
X159042857Y-92178628D01*
X159042857Y-92178628D02*
X158852381Y-92131009D01*
X158852381Y-92131009D02*
X158757143Y-92083390D01*
X158757143Y-92083390D02*
X158709524Y-92035771D01*
X158709524Y-92035771D02*
X158661905Y-91940533D01*
X158661905Y-91940533D02*
X158661905Y-91845295D01*
X158661905Y-91845295D02*
X158709524Y-91750057D01*
X158709524Y-91750057D02*
X158757143Y-91702438D01*
X158757143Y-91702438D02*
X158852381Y-91654819D01*
X158852381Y-91654819D02*
X159090476Y-91654819D01*
X159090476Y-91654819D02*
X159233333Y-91702438D01*
X159614286Y-91750057D02*
X159661905Y-91702438D01*
X159661905Y-91702438D02*
X159757143Y-91654819D01*
X159757143Y-91654819D02*
X159995238Y-91654819D01*
X159995238Y-91654819D02*
X160090476Y-91702438D01*
X160090476Y-91702438D02*
X160138095Y-91750057D01*
X160138095Y-91750057D02*
X160185714Y-91845295D01*
X160185714Y-91845295D02*
X160185714Y-91940533D01*
X160185714Y-91940533D02*
X160138095Y-92083390D01*
X160138095Y-92083390D02*
X159566667Y-92654819D01*
X159566667Y-92654819D02*
X160185714Y-92654819D01*
X161090476Y-91654819D02*
X160614286Y-91654819D01*
X160614286Y-91654819D02*
X160566667Y-92131009D01*
X160566667Y-92131009D02*
X160614286Y-92083390D01*
X160614286Y-92083390D02*
X160709524Y-92035771D01*
X160709524Y-92035771D02*
X160947619Y-92035771D01*
X160947619Y-92035771D02*
X161042857Y-92083390D01*
X161042857Y-92083390D02*
X161090476Y-92131009D01*
X161090476Y-92131009D02*
X161138095Y-92226247D01*
X161138095Y-92226247D02*
X161138095Y-92464342D01*
X161138095Y-92464342D02*
X161090476Y-92559580D01*
X161090476Y-92559580D02*
X161042857Y-92607200D01*
X161042857Y-92607200D02*
X160947619Y-92654819D01*
X160947619Y-92654819D02*
X160709524Y-92654819D01*
X160709524Y-92654819D02*
X160614286Y-92607200D01*
X160614286Y-92607200D02*
X160566667Y-92559580D01*
X195061905Y-75407200D02*
X195204762Y-75454819D01*
X195204762Y-75454819D02*
X195442857Y-75454819D01*
X195442857Y-75454819D02*
X195538095Y-75407200D01*
X195538095Y-75407200D02*
X195585714Y-75359580D01*
X195585714Y-75359580D02*
X195633333Y-75264342D01*
X195633333Y-75264342D02*
X195633333Y-75169104D01*
X195633333Y-75169104D02*
X195585714Y-75073866D01*
X195585714Y-75073866D02*
X195538095Y-75026247D01*
X195538095Y-75026247D02*
X195442857Y-74978628D01*
X195442857Y-74978628D02*
X195252381Y-74931009D01*
X195252381Y-74931009D02*
X195157143Y-74883390D01*
X195157143Y-74883390D02*
X195109524Y-74835771D01*
X195109524Y-74835771D02*
X195061905Y-74740533D01*
X195061905Y-74740533D02*
X195061905Y-74645295D01*
X195061905Y-74645295D02*
X195109524Y-74550057D01*
X195109524Y-74550057D02*
X195157143Y-74502438D01*
X195157143Y-74502438D02*
X195252381Y-74454819D01*
X195252381Y-74454819D02*
X195490476Y-74454819D01*
X195490476Y-74454819D02*
X195633333Y-74502438D01*
X196585714Y-75454819D02*
X196014286Y-75454819D01*
X196300000Y-75454819D02*
X196300000Y-74454819D01*
X196300000Y-74454819D02*
X196204762Y-74597676D01*
X196204762Y-74597676D02*
X196109524Y-74692914D01*
X196109524Y-74692914D02*
X196014286Y-74740533D01*
X196919048Y-74454819D02*
X197585714Y-74454819D01*
X197585714Y-74454819D02*
X197157143Y-75454819D01*
X231938095Y-58207200D02*
X232080952Y-58254819D01*
X232080952Y-58254819D02*
X232319047Y-58254819D01*
X232319047Y-58254819D02*
X232414285Y-58207200D01*
X232414285Y-58207200D02*
X232461904Y-58159580D01*
X232461904Y-58159580D02*
X232509523Y-58064342D01*
X232509523Y-58064342D02*
X232509523Y-57969104D01*
X232509523Y-57969104D02*
X232461904Y-57873866D01*
X232461904Y-57873866D02*
X232414285Y-57826247D01*
X232414285Y-57826247D02*
X232319047Y-57778628D01*
X232319047Y-57778628D02*
X232128571Y-57731009D01*
X232128571Y-57731009D02*
X232033333Y-57683390D01*
X232033333Y-57683390D02*
X231985714Y-57635771D01*
X231985714Y-57635771D02*
X231938095Y-57540533D01*
X231938095Y-57540533D02*
X231938095Y-57445295D01*
X231938095Y-57445295D02*
X231985714Y-57350057D01*
X231985714Y-57350057D02*
X232033333Y-57302438D01*
X232033333Y-57302438D02*
X232128571Y-57254819D01*
X232128571Y-57254819D02*
X232366666Y-57254819D01*
X232366666Y-57254819D02*
X232509523Y-57302438D01*
X232985714Y-58254819D02*
X233176190Y-58254819D01*
X233176190Y-58254819D02*
X233271428Y-58207200D01*
X233271428Y-58207200D02*
X233319047Y-58159580D01*
X233319047Y-58159580D02*
X233414285Y-58016723D01*
X233414285Y-58016723D02*
X233461904Y-57826247D01*
X233461904Y-57826247D02*
X233461904Y-57445295D01*
X233461904Y-57445295D02*
X233414285Y-57350057D01*
X233414285Y-57350057D02*
X233366666Y-57302438D01*
X233366666Y-57302438D02*
X233271428Y-57254819D01*
X233271428Y-57254819D02*
X233080952Y-57254819D01*
X233080952Y-57254819D02*
X232985714Y-57302438D01*
X232985714Y-57302438D02*
X232938095Y-57350057D01*
X232938095Y-57350057D02*
X232890476Y-57445295D01*
X232890476Y-57445295D02*
X232890476Y-57683390D01*
X232890476Y-57683390D02*
X232938095Y-57778628D01*
X232938095Y-57778628D02*
X232985714Y-57826247D01*
X232985714Y-57826247D02*
X233080952Y-57873866D01*
X233080952Y-57873866D02*
X233271428Y-57873866D01*
X233271428Y-57873866D02*
X233366666Y-57826247D01*
X233366666Y-57826247D02*
X233414285Y-57778628D01*
X233414285Y-57778628D02*
X233461904Y-57683390D01*
X195538095Y-58207200D02*
X195680952Y-58254819D01*
X195680952Y-58254819D02*
X195919047Y-58254819D01*
X195919047Y-58254819D02*
X196014285Y-58207200D01*
X196014285Y-58207200D02*
X196061904Y-58159580D01*
X196061904Y-58159580D02*
X196109523Y-58064342D01*
X196109523Y-58064342D02*
X196109523Y-57969104D01*
X196109523Y-57969104D02*
X196061904Y-57873866D01*
X196061904Y-57873866D02*
X196014285Y-57826247D01*
X196014285Y-57826247D02*
X195919047Y-57778628D01*
X195919047Y-57778628D02*
X195728571Y-57731009D01*
X195728571Y-57731009D02*
X195633333Y-57683390D01*
X195633333Y-57683390D02*
X195585714Y-57635771D01*
X195585714Y-57635771D02*
X195538095Y-57540533D01*
X195538095Y-57540533D02*
X195538095Y-57445295D01*
X195538095Y-57445295D02*
X195585714Y-57350057D01*
X195585714Y-57350057D02*
X195633333Y-57302438D01*
X195633333Y-57302438D02*
X195728571Y-57254819D01*
X195728571Y-57254819D02*
X195966666Y-57254819D01*
X195966666Y-57254819D02*
X196109523Y-57302438D01*
X196442857Y-57254819D02*
X197109523Y-57254819D01*
X197109523Y-57254819D02*
X196680952Y-58254819D01*
X231461905Y-92607200D02*
X231604762Y-92654819D01*
X231604762Y-92654819D02*
X231842857Y-92654819D01*
X231842857Y-92654819D02*
X231938095Y-92607200D01*
X231938095Y-92607200D02*
X231985714Y-92559580D01*
X231985714Y-92559580D02*
X232033333Y-92464342D01*
X232033333Y-92464342D02*
X232033333Y-92369104D01*
X232033333Y-92369104D02*
X231985714Y-92273866D01*
X231985714Y-92273866D02*
X231938095Y-92226247D01*
X231938095Y-92226247D02*
X231842857Y-92178628D01*
X231842857Y-92178628D02*
X231652381Y-92131009D01*
X231652381Y-92131009D02*
X231557143Y-92083390D01*
X231557143Y-92083390D02*
X231509524Y-92035771D01*
X231509524Y-92035771D02*
X231461905Y-91940533D01*
X231461905Y-91940533D02*
X231461905Y-91845295D01*
X231461905Y-91845295D02*
X231509524Y-91750057D01*
X231509524Y-91750057D02*
X231557143Y-91702438D01*
X231557143Y-91702438D02*
X231652381Y-91654819D01*
X231652381Y-91654819D02*
X231890476Y-91654819D01*
X231890476Y-91654819D02*
X232033333Y-91702438D01*
X232414286Y-91750057D02*
X232461905Y-91702438D01*
X232461905Y-91702438D02*
X232557143Y-91654819D01*
X232557143Y-91654819D02*
X232795238Y-91654819D01*
X232795238Y-91654819D02*
X232890476Y-91702438D01*
X232890476Y-91702438D02*
X232938095Y-91750057D01*
X232938095Y-91750057D02*
X232985714Y-91845295D01*
X232985714Y-91845295D02*
X232985714Y-91940533D01*
X232985714Y-91940533D02*
X232938095Y-92083390D01*
X232938095Y-92083390D02*
X232366667Y-92654819D01*
X232366667Y-92654819D02*
X232985714Y-92654819D01*
X233461905Y-92654819D02*
X233652381Y-92654819D01*
X233652381Y-92654819D02*
X233747619Y-92607200D01*
X233747619Y-92607200D02*
X233795238Y-92559580D01*
X233795238Y-92559580D02*
X233890476Y-92416723D01*
X233890476Y-92416723D02*
X233938095Y-92226247D01*
X233938095Y-92226247D02*
X233938095Y-91845295D01*
X233938095Y-91845295D02*
X233890476Y-91750057D01*
X233890476Y-91750057D02*
X233842857Y-91702438D01*
X233842857Y-91702438D02*
X233747619Y-91654819D01*
X233747619Y-91654819D02*
X233557143Y-91654819D01*
X233557143Y-91654819D02*
X233461905Y-91702438D01*
X233461905Y-91702438D02*
X233414286Y-91750057D01*
X233414286Y-91750057D02*
X233366667Y-91845295D01*
X233366667Y-91845295D02*
X233366667Y-92083390D01*
X233366667Y-92083390D02*
X233414286Y-92178628D01*
X233414286Y-92178628D02*
X233461905Y-92226247D01*
X233461905Y-92226247D02*
X233557143Y-92273866D01*
X233557143Y-92273866D02*
X233747619Y-92273866D01*
X233747619Y-92273866D02*
X233842857Y-92226247D01*
X233842857Y-92226247D02*
X233890476Y-92178628D01*
X233890476Y-92178628D02*
X233938095Y-92083390D01*
X154161905Y-109807200D02*
X154304762Y-109854819D01*
X154304762Y-109854819D02*
X154542857Y-109854819D01*
X154542857Y-109854819D02*
X154638095Y-109807200D01*
X154638095Y-109807200D02*
X154685714Y-109759580D01*
X154685714Y-109759580D02*
X154733333Y-109664342D01*
X154733333Y-109664342D02*
X154733333Y-109569104D01*
X154733333Y-109569104D02*
X154685714Y-109473866D01*
X154685714Y-109473866D02*
X154638095Y-109426247D01*
X154638095Y-109426247D02*
X154542857Y-109378628D01*
X154542857Y-109378628D02*
X154352381Y-109331009D01*
X154352381Y-109331009D02*
X154257143Y-109283390D01*
X154257143Y-109283390D02*
X154209524Y-109235771D01*
X154209524Y-109235771D02*
X154161905Y-109140533D01*
X154161905Y-109140533D02*
X154161905Y-109045295D01*
X154161905Y-109045295D02*
X154209524Y-108950057D01*
X154209524Y-108950057D02*
X154257143Y-108902438D01*
X154257143Y-108902438D02*
X154352381Y-108854819D01*
X154352381Y-108854819D02*
X154590476Y-108854819D01*
X154590476Y-108854819D02*
X154733333Y-108902438D01*
X155066667Y-108854819D02*
X155685714Y-108854819D01*
X155685714Y-108854819D02*
X155352381Y-109235771D01*
X155352381Y-109235771D02*
X155495238Y-109235771D01*
X155495238Y-109235771D02*
X155590476Y-109283390D01*
X155590476Y-109283390D02*
X155638095Y-109331009D01*
X155638095Y-109331009D02*
X155685714Y-109426247D01*
X155685714Y-109426247D02*
X155685714Y-109664342D01*
X155685714Y-109664342D02*
X155638095Y-109759580D01*
X155638095Y-109759580D02*
X155590476Y-109807200D01*
X155590476Y-109807200D02*
X155495238Y-109854819D01*
X155495238Y-109854819D02*
X155209524Y-109854819D01*
X155209524Y-109854819D02*
X155114286Y-109807200D01*
X155114286Y-109807200D02*
X155066667Y-109759580D01*
X156638095Y-109854819D02*
X156066667Y-109854819D01*
X156352381Y-109854819D02*
X156352381Y-108854819D01*
X156352381Y-108854819D02*
X156257143Y-108997676D01*
X156257143Y-108997676D02*
X156161905Y-109092914D01*
X156161905Y-109092914D02*
X156066667Y-109140533D01*
X158661905Y-75407200D02*
X158804762Y-75454819D01*
X158804762Y-75454819D02*
X159042857Y-75454819D01*
X159042857Y-75454819D02*
X159138095Y-75407200D01*
X159138095Y-75407200D02*
X159185714Y-75359580D01*
X159185714Y-75359580D02*
X159233333Y-75264342D01*
X159233333Y-75264342D02*
X159233333Y-75169104D01*
X159233333Y-75169104D02*
X159185714Y-75073866D01*
X159185714Y-75073866D02*
X159138095Y-75026247D01*
X159138095Y-75026247D02*
X159042857Y-74978628D01*
X159042857Y-74978628D02*
X158852381Y-74931009D01*
X158852381Y-74931009D02*
X158757143Y-74883390D01*
X158757143Y-74883390D02*
X158709524Y-74835771D01*
X158709524Y-74835771D02*
X158661905Y-74740533D01*
X158661905Y-74740533D02*
X158661905Y-74645295D01*
X158661905Y-74645295D02*
X158709524Y-74550057D01*
X158709524Y-74550057D02*
X158757143Y-74502438D01*
X158757143Y-74502438D02*
X158852381Y-74454819D01*
X158852381Y-74454819D02*
X159090476Y-74454819D01*
X159090476Y-74454819D02*
X159233333Y-74502438D01*
X160185714Y-75454819D02*
X159614286Y-75454819D01*
X159900000Y-75454819D02*
X159900000Y-74454819D01*
X159900000Y-74454819D02*
X159804762Y-74597676D01*
X159804762Y-74597676D02*
X159709524Y-74692914D01*
X159709524Y-74692914D02*
X159614286Y-74740533D01*
X161090476Y-74454819D02*
X160614286Y-74454819D01*
X160614286Y-74454819D02*
X160566667Y-74931009D01*
X160566667Y-74931009D02*
X160614286Y-74883390D01*
X160614286Y-74883390D02*
X160709524Y-74835771D01*
X160709524Y-74835771D02*
X160947619Y-74835771D01*
X160947619Y-74835771D02*
X161042857Y-74883390D01*
X161042857Y-74883390D02*
X161090476Y-74931009D01*
X161090476Y-74931009D02*
X161138095Y-75026247D01*
X161138095Y-75026247D02*
X161138095Y-75264342D01*
X161138095Y-75264342D02*
X161090476Y-75359580D01*
X161090476Y-75359580D02*
X161042857Y-75407200D01*
X161042857Y-75407200D02*
X160947619Y-75454819D01*
X160947619Y-75454819D02*
X160709524Y-75454819D01*
X160709524Y-75454819D02*
X160614286Y-75407200D01*
X160614286Y-75407200D02*
X160566667Y-75359580D01*
X213738095Y-58207200D02*
X213880952Y-58254819D01*
X213880952Y-58254819D02*
X214119047Y-58254819D01*
X214119047Y-58254819D02*
X214214285Y-58207200D01*
X214214285Y-58207200D02*
X214261904Y-58159580D01*
X214261904Y-58159580D02*
X214309523Y-58064342D01*
X214309523Y-58064342D02*
X214309523Y-57969104D01*
X214309523Y-57969104D02*
X214261904Y-57873866D01*
X214261904Y-57873866D02*
X214214285Y-57826247D01*
X214214285Y-57826247D02*
X214119047Y-57778628D01*
X214119047Y-57778628D02*
X213928571Y-57731009D01*
X213928571Y-57731009D02*
X213833333Y-57683390D01*
X213833333Y-57683390D02*
X213785714Y-57635771D01*
X213785714Y-57635771D02*
X213738095Y-57540533D01*
X213738095Y-57540533D02*
X213738095Y-57445295D01*
X213738095Y-57445295D02*
X213785714Y-57350057D01*
X213785714Y-57350057D02*
X213833333Y-57302438D01*
X213833333Y-57302438D02*
X213928571Y-57254819D01*
X213928571Y-57254819D02*
X214166666Y-57254819D01*
X214166666Y-57254819D02*
X214309523Y-57302438D01*
X214880952Y-57683390D02*
X214785714Y-57635771D01*
X214785714Y-57635771D02*
X214738095Y-57588152D01*
X214738095Y-57588152D02*
X214690476Y-57492914D01*
X214690476Y-57492914D02*
X214690476Y-57445295D01*
X214690476Y-57445295D02*
X214738095Y-57350057D01*
X214738095Y-57350057D02*
X214785714Y-57302438D01*
X214785714Y-57302438D02*
X214880952Y-57254819D01*
X214880952Y-57254819D02*
X215071428Y-57254819D01*
X215071428Y-57254819D02*
X215166666Y-57302438D01*
X215166666Y-57302438D02*
X215214285Y-57350057D01*
X215214285Y-57350057D02*
X215261904Y-57445295D01*
X215261904Y-57445295D02*
X215261904Y-57492914D01*
X215261904Y-57492914D02*
X215214285Y-57588152D01*
X215214285Y-57588152D02*
X215166666Y-57635771D01*
X215166666Y-57635771D02*
X215071428Y-57683390D01*
X215071428Y-57683390D02*
X214880952Y-57683390D01*
X214880952Y-57683390D02*
X214785714Y-57731009D01*
X214785714Y-57731009D02*
X214738095Y-57778628D01*
X214738095Y-57778628D02*
X214690476Y-57873866D01*
X214690476Y-57873866D02*
X214690476Y-58064342D01*
X214690476Y-58064342D02*
X214738095Y-58159580D01*
X214738095Y-58159580D02*
X214785714Y-58207200D01*
X214785714Y-58207200D02*
X214880952Y-58254819D01*
X214880952Y-58254819D02*
X215071428Y-58254819D01*
X215071428Y-58254819D02*
X215166666Y-58207200D01*
X215166666Y-58207200D02*
X215214285Y-58159580D01*
X215214285Y-58159580D02*
X215261904Y-58064342D01*
X215261904Y-58064342D02*
X215261904Y-57873866D01*
X215261904Y-57873866D02*
X215214285Y-57778628D01*
X215214285Y-57778628D02*
X215166666Y-57731009D01*
X215166666Y-57731009D02*
X215071428Y-57683390D01*
X159138095Y-58207200D02*
X159280952Y-58254819D01*
X159280952Y-58254819D02*
X159519047Y-58254819D01*
X159519047Y-58254819D02*
X159614285Y-58207200D01*
X159614285Y-58207200D02*
X159661904Y-58159580D01*
X159661904Y-58159580D02*
X159709523Y-58064342D01*
X159709523Y-58064342D02*
X159709523Y-57969104D01*
X159709523Y-57969104D02*
X159661904Y-57873866D01*
X159661904Y-57873866D02*
X159614285Y-57826247D01*
X159614285Y-57826247D02*
X159519047Y-57778628D01*
X159519047Y-57778628D02*
X159328571Y-57731009D01*
X159328571Y-57731009D02*
X159233333Y-57683390D01*
X159233333Y-57683390D02*
X159185714Y-57635771D01*
X159185714Y-57635771D02*
X159138095Y-57540533D01*
X159138095Y-57540533D02*
X159138095Y-57445295D01*
X159138095Y-57445295D02*
X159185714Y-57350057D01*
X159185714Y-57350057D02*
X159233333Y-57302438D01*
X159233333Y-57302438D02*
X159328571Y-57254819D01*
X159328571Y-57254819D02*
X159566666Y-57254819D01*
X159566666Y-57254819D02*
X159709523Y-57302438D01*
X160614285Y-57254819D02*
X160138095Y-57254819D01*
X160138095Y-57254819D02*
X160090476Y-57731009D01*
X160090476Y-57731009D02*
X160138095Y-57683390D01*
X160138095Y-57683390D02*
X160233333Y-57635771D01*
X160233333Y-57635771D02*
X160471428Y-57635771D01*
X160471428Y-57635771D02*
X160566666Y-57683390D01*
X160566666Y-57683390D02*
X160614285Y-57731009D01*
X160614285Y-57731009D02*
X160661904Y-57826247D01*
X160661904Y-57826247D02*
X160661904Y-58064342D01*
X160661904Y-58064342D02*
X160614285Y-58159580D01*
X160614285Y-58159580D02*
X160566666Y-58207200D01*
X160566666Y-58207200D02*
X160471428Y-58254819D01*
X160471428Y-58254819D02*
X160233333Y-58254819D01*
X160233333Y-58254819D02*
X160138095Y-58207200D01*
X160138095Y-58207200D02*
X160090476Y-58159580D01*
X231461905Y-75407200D02*
X231604762Y-75454819D01*
X231604762Y-75454819D02*
X231842857Y-75454819D01*
X231842857Y-75454819D02*
X231938095Y-75407200D01*
X231938095Y-75407200D02*
X231985714Y-75359580D01*
X231985714Y-75359580D02*
X232033333Y-75264342D01*
X232033333Y-75264342D02*
X232033333Y-75169104D01*
X232033333Y-75169104D02*
X231985714Y-75073866D01*
X231985714Y-75073866D02*
X231938095Y-75026247D01*
X231938095Y-75026247D02*
X231842857Y-74978628D01*
X231842857Y-74978628D02*
X231652381Y-74931009D01*
X231652381Y-74931009D02*
X231557143Y-74883390D01*
X231557143Y-74883390D02*
X231509524Y-74835771D01*
X231509524Y-74835771D02*
X231461905Y-74740533D01*
X231461905Y-74740533D02*
X231461905Y-74645295D01*
X231461905Y-74645295D02*
X231509524Y-74550057D01*
X231509524Y-74550057D02*
X231557143Y-74502438D01*
X231557143Y-74502438D02*
X231652381Y-74454819D01*
X231652381Y-74454819D02*
X231890476Y-74454819D01*
X231890476Y-74454819D02*
X232033333Y-74502438D01*
X232985714Y-75454819D02*
X232414286Y-75454819D01*
X232700000Y-75454819D02*
X232700000Y-74454819D01*
X232700000Y-74454819D02*
X232604762Y-74597676D01*
X232604762Y-74597676D02*
X232509524Y-74692914D01*
X232509524Y-74692914D02*
X232414286Y-74740533D01*
X233461905Y-75454819D02*
X233652381Y-75454819D01*
X233652381Y-75454819D02*
X233747619Y-75407200D01*
X233747619Y-75407200D02*
X233795238Y-75359580D01*
X233795238Y-75359580D02*
X233890476Y-75216723D01*
X233890476Y-75216723D02*
X233938095Y-75026247D01*
X233938095Y-75026247D02*
X233938095Y-74645295D01*
X233938095Y-74645295D02*
X233890476Y-74550057D01*
X233890476Y-74550057D02*
X233842857Y-74502438D01*
X233842857Y-74502438D02*
X233747619Y-74454819D01*
X233747619Y-74454819D02*
X233557143Y-74454819D01*
X233557143Y-74454819D02*
X233461905Y-74502438D01*
X233461905Y-74502438D02*
X233414286Y-74550057D01*
X233414286Y-74550057D02*
X233366667Y-74645295D01*
X233366667Y-74645295D02*
X233366667Y-74883390D01*
X233366667Y-74883390D02*
X233414286Y-74978628D01*
X233414286Y-74978628D02*
X233461905Y-75026247D01*
X233461905Y-75026247D02*
X233557143Y-75073866D01*
X233557143Y-75073866D02*
X233747619Y-75073866D01*
X233747619Y-75073866D02*
X233842857Y-75026247D01*
X233842857Y-75026247D02*
X233890476Y-74978628D01*
X233890476Y-74978628D02*
X233938095Y-74883390D01*
X195061905Y-92607200D02*
X195204762Y-92654819D01*
X195204762Y-92654819D02*
X195442857Y-92654819D01*
X195442857Y-92654819D02*
X195538095Y-92607200D01*
X195538095Y-92607200D02*
X195585714Y-92559580D01*
X195585714Y-92559580D02*
X195633333Y-92464342D01*
X195633333Y-92464342D02*
X195633333Y-92369104D01*
X195633333Y-92369104D02*
X195585714Y-92273866D01*
X195585714Y-92273866D02*
X195538095Y-92226247D01*
X195538095Y-92226247D02*
X195442857Y-92178628D01*
X195442857Y-92178628D02*
X195252381Y-92131009D01*
X195252381Y-92131009D02*
X195157143Y-92083390D01*
X195157143Y-92083390D02*
X195109524Y-92035771D01*
X195109524Y-92035771D02*
X195061905Y-91940533D01*
X195061905Y-91940533D02*
X195061905Y-91845295D01*
X195061905Y-91845295D02*
X195109524Y-91750057D01*
X195109524Y-91750057D02*
X195157143Y-91702438D01*
X195157143Y-91702438D02*
X195252381Y-91654819D01*
X195252381Y-91654819D02*
X195490476Y-91654819D01*
X195490476Y-91654819D02*
X195633333Y-91702438D01*
X196014286Y-91750057D02*
X196061905Y-91702438D01*
X196061905Y-91702438D02*
X196157143Y-91654819D01*
X196157143Y-91654819D02*
X196395238Y-91654819D01*
X196395238Y-91654819D02*
X196490476Y-91702438D01*
X196490476Y-91702438D02*
X196538095Y-91750057D01*
X196538095Y-91750057D02*
X196585714Y-91845295D01*
X196585714Y-91845295D02*
X196585714Y-91940533D01*
X196585714Y-91940533D02*
X196538095Y-92083390D01*
X196538095Y-92083390D02*
X195966667Y-92654819D01*
X195966667Y-92654819D02*
X196585714Y-92654819D01*
X196919048Y-91654819D02*
X197585714Y-91654819D01*
X197585714Y-91654819D02*
X197157143Y-92654819D01*
X122738095Y-58207200D02*
X122880952Y-58254819D01*
X122880952Y-58254819D02*
X123119047Y-58254819D01*
X123119047Y-58254819D02*
X123214285Y-58207200D01*
X123214285Y-58207200D02*
X123261904Y-58159580D01*
X123261904Y-58159580D02*
X123309523Y-58064342D01*
X123309523Y-58064342D02*
X123309523Y-57969104D01*
X123309523Y-57969104D02*
X123261904Y-57873866D01*
X123261904Y-57873866D02*
X123214285Y-57826247D01*
X123214285Y-57826247D02*
X123119047Y-57778628D01*
X123119047Y-57778628D02*
X122928571Y-57731009D01*
X122928571Y-57731009D02*
X122833333Y-57683390D01*
X122833333Y-57683390D02*
X122785714Y-57635771D01*
X122785714Y-57635771D02*
X122738095Y-57540533D01*
X122738095Y-57540533D02*
X122738095Y-57445295D01*
X122738095Y-57445295D02*
X122785714Y-57350057D01*
X122785714Y-57350057D02*
X122833333Y-57302438D01*
X122833333Y-57302438D02*
X122928571Y-57254819D01*
X122928571Y-57254819D02*
X123166666Y-57254819D01*
X123166666Y-57254819D02*
X123309523Y-57302438D01*
X123642857Y-57254819D02*
X124261904Y-57254819D01*
X124261904Y-57254819D02*
X123928571Y-57635771D01*
X123928571Y-57635771D02*
X124071428Y-57635771D01*
X124071428Y-57635771D02*
X124166666Y-57683390D01*
X124166666Y-57683390D02*
X124214285Y-57731009D01*
X124214285Y-57731009D02*
X124261904Y-57826247D01*
X124261904Y-57826247D02*
X124261904Y-58064342D01*
X124261904Y-58064342D02*
X124214285Y-58159580D01*
X124214285Y-58159580D02*
X124166666Y-58207200D01*
X124166666Y-58207200D02*
X124071428Y-58254819D01*
X124071428Y-58254819D02*
X123785714Y-58254819D01*
X123785714Y-58254819D02*
X123690476Y-58207200D01*
X123690476Y-58207200D02*
X123642857Y-58159580D01*
X104011905Y-75407200D02*
X104154762Y-75454819D01*
X104154762Y-75454819D02*
X104392857Y-75454819D01*
X104392857Y-75454819D02*
X104488095Y-75407200D01*
X104488095Y-75407200D02*
X104535714Y-75359580D01*
X104535714Y-75359580D02*
X104583333Y-75264342D01*
X104583333Y-75264342D02*
X104583333Y-75169104D01*
X104583333Y-75169104D02*
X104535714Y-75073866D01*
X104535714Y-75073866D02*
X104488095Y-75026247D01*
X104488095Y-75026247D02*
X104392857Y-74978628D01*
X104392857Y-74978628D02*
X104202381Y-74931009D01*
X104202381Y-74931009D02*
X104107143Y-74883390D01*
X104107143Y-74883390D02*
X104059524Y-74835771D01*
X104059524Y-74835771D02*
X104011905Y-74740533D01*
X104011905Y-74740533D02*
X104011905Y-74645295D01*
X104011905Y-74645295D02*
X104059524Y-74550057D01*
X104059524Y-74550057D02*
X104107143Y-74502438D01*
X104107143Y-74502438D02*
X104202381Y-74454819D01*
X104202381Y-74454819D02*
X104440476Y-74454819D01*
X104440476Y-74454819D02*
X104583333Y-74502438D01*
X105535714Y-75454819D02*
X104964286Y-75454819D01*
X105250000Y-75454819D02*
X105250000Y-74454819D01*
X105250000Y-74454819D02*
X105154762Y-74597676D01*
X105154762Y-74597676D02*
X105059524Y-74692914D01*
X105059524Y-74692914D02*
X104964286Y-74740533D01*
X105916667Y-74550057D02*
X105964286Y-74502438D01*
X105964286Y-74502438D02*
X106059524Y-74454819D01*
X106059524Y-74454819D02*
X106297619Y-74454819D01*
X106297619Y-74454819D02*
X106392857Y-74502438D01*
X106392857Y-74502438D02*
X106440476Y-74550057D01*
X106440476Y-74550057D02*
X106488095Y-74645295D01*
X106488095Y-74645295D02*
X106488095Y-74740533D01*
X106488095Y-74740533D02*
X106440476Y-74883390D01*
X106440476Y-74883390D02*
X105869048Y-75454819D01*
X105869048Y-75454819D02*
X106488095Y-75454819D01*
X176861905Y-75407200D02*
X177004762Y-75454819D01*
X177004762Y-75454819D02*
X177242857Y-75454819D01*
X177242857Y-75454819D02*
X177338095Y-75407200D01*
X177338095Y-75407200D02*
X177385714Y-75359580D01*
X177385714Y-75359580D02*
X177433333Y-75264342D01*
X177433333Y-75264342D02*
X177433333Y-75169104D01*
X177433333Y-75169104D02*
X177385714Y-75073866D01*
X177385714Y-75073866D02*
X177338095Y-75026247D01*
X177338095Y-75026247D02*
X177242857Y-74978628D01*
X177242857Y-74978628D02*
X177052381Y-74931009D01*
X177052381Y-74931009D02*
X176957143Y-74883390D01*
X176957143Y-74883390D02*
X176909524Y-74835771D01*
X176909524Y-74835771D02*
X176861905Y-74740533D01*
X176861905Y-74740533D02*
X176861905Y-74645295D01*
X176861905Y-74645295D02*
X176909524Y-74550057D01*
X176909524Y-74550057D02*
X176957143Y-74502438D01*
X176957143Y-74502438D02*
X177052381Y-74454819D01*
X177052381Y-74454819D02*
X177290476Y-74454819D01*
X177290476Y-74454819D02*
X177433333Y-74502438D01*
X178385714Y-75454819D02*
X177814286Y-75454819D01*
X178100000Y-75454819D02*
X178100000Y-74454819D01*
X178100000Y-74454819D02*
X178004762Y-74597676D01*
X178004762Y-74597676D02*
X177909524Y-74692914D01*
X177909524Y-74692914D02*
X177814286Y-74740533D01*
X179242857Y-74454819D02*
X179052381Y-74454819D01*
X179052381Y-74454819D02*
X178957143Y-74502438D01*
X178957143Y-74502438D02*
X178909524Y-74550057D01*
X178909524Y-74550057D02*
X178814286Y-74692914D01*
X178814286Y-74692914D02*
X178766667Y-74883390D01*
X178766667Y-74883390D02*
X178766667Y-75264342D01*
X178766667Y-75264342D02*
X178814286Y-75359580D01*
X178814286Y-75359580D02*
X178861905Y-75407200D01*
X178861905Y-75407200D02*
X178957143Y-75454819D01*
X178957143Y-75454819D02*
X179147619Y-75454819D01*
X179147619Y-75454819D02*
X179242857Y-75407200D01*
X179242857Y-75407200D02*
X179290476Y-75359580D01*
X179290476Y-75359580D02*
X179338095Y-75264342D01*
X179338095Y-75264342D02*
X179338095Y-75026247D01*
X179338095Y-75026247D02*
X179290476Y-74931009D01*
X179290476Y-74931009D02*
X179242857Y-74883390D01*
X179242857Y-74883390D02*
X179147619Y-74835771D01*
X179147619Y-74835771D02*
X178957143Y-74835771D01*
X178957143Y-74835771D02*
X178861905Y-74883390D01*
X178861905Y-74883390D02*
X178814286Y-74931009D01*
X178814286Y-74931009D02*
X178766667Y-75026247D01*
X86238095Y-58157200D02*
X86380952Y-58204819D01*
X86380952Y-58204819D02*
X86619047Y-58204819D01*
X86619047Y-58204819D02*
X86714285Y-58157200D01*
X86714285Y-58157200D02*
X86761904Y-58109580D01*
X86761904Y-58109580D02*
X86809523Y-58014342D01*
X86809523Y-58014342D02*
X86809523Y-57919104D01*
X86809523Y-57919104D02*
X86761904Y-57823866D01*
X86761904Y-57823866D02*
X86714285Y-57776247D01*
X86714285Y-57776247D02*
X86619047Y-57728628D01*
X86619047Y-57728628D02*
X86428571Y-57681009D01*
X86428571Y-57681009D02*
X86333333Y-57633390D01*
X86333333Y-57633390D02*
X86285714Y-57585771D01*
X86285714Y-57585771D02*
X86238095Y-57490533D01*
X86238095Y-57490533D02*
X86238095Y-57395295D01*
X86238095Y-57395295D02*
X86285714Y-57300057D01*
X86285714Y-57300057D02*
X86333333Y-57252438D01*
X86333333Y-57252438D02*
X86428571Y-57204819D01*
X86428571Y-57204819D02*
X86666666Y-57204819D01*
X86666666Y-57204819D02*
X86809523Y-57252438D01*
X87761904Y-58204819D02*
X87190476Y-58204819D01*
X87476190Y-58204819D02*
X87476190Y-57204819D01*
X87476190Y-57204819D02*
X87380952Y-57347676D01*
X87380952Y-57347676D02*
X87285714Y-57442914D01*
X87285714Y-57442914D02*
X87190476Y-57490533D01*
X177338095Y-58207200D02*
X177480952Y-58254819D01*
X177480952Y-58254819D02*
X177719047Y-58254819D01*
X177719047Y-58254819D02*
X177814285Y-58207200D01*
X177814285Y-58207200D02*
X177861904Y-58159580D01*
X177861904Y-58159580D02*
X177909523Y-58064342D01*
X177909523Y-58064342D02*
X177909523Y-57969104D01*
X177909523Y-57969104D02*
X177861904Y-57873866D01*
X177861904Y-57873866D02*
X177814285Y-57826247D01*
X177814285Y-57826247D02*
X177719047Y-57778628D01*
X177719047Y-57778628D02*
X177528571Y-57731009D01*
X177528571Y-57731009D02*
X177433333Y-57683390D01*
X177433333Y-57683390D02*
X177385714Y-57635771D01*
X177385714Y-57635771D02*
X177338095Y-57540533D01*
X177338095Y-57540533D02*
X177338095Y-57445295D01*
X177338095Y-57445295D02*
X177385714Y-57350057D01*
X177385714Y-57350057D02*
X177433333Y-57302438D01*
X177433333Y-57302438D02*
X177528571Y-57254819D01*
X177528571Y-57254819D02*
X177766666Y-57254819D01*
X177766666Y-57254819D02*
X177909523Y-57302438D01*
X178766666Y-57254819D02*
X178576190Y-57254819D01*
X178576190Y-57254819D02*
X178480952Y-57302438D01*
X178480952Y-57302438D02*
X178433333Y-57350057D01*
X178433333Y-57350057D02*
X178338095Y-57492914D01*
X178338095Y-57492914D02*
X178290476Y-57683390D01*
X178290476Y-57683390D02*
X178290476Y-58064342D01*
X178290476Y-58064342D02*
X178338095Y-58159580D01*
X178338095Y-58159580D02*
X178385714Y-58207200D01*
X178385714Y-58207200D02*
X178480952Y-58254819D01*
X178480952Y-58254819D02*
X178671428Y-58254819D01*
X178671428Y-58254819D02*
X178766666Y-58207200D01*
X178766666Y-58207200D02*
X178814285Y-58159580D01*
X178814285Y-58159580D02*
X178861904Y-58064342D01*
X178861904Y-58064342D02*
X178861904Y-57826247D01*
X178861904Y-57826247D02*
X178814285Y-57731009D01*
X178814285Y-57731009D02*
X178766666Y-57683390D01*
X178766666Y-57683390D02*
X178671428Y-57635771D01*
X178671428Y-57635771D02*
X178480952Y-57635771D01*
X178480952Y-57635771D02*
X178385714Y-57683390D01*
X178385714Y-57683390D02*
X178338095Y-57731009D01*
X178338095Y-57731009D02*
X178290476Y-57826247D01*
X213261905Y-92607200D02*
X213404762Y-92654819D01*
X213404762Y-92654819D02*
X213642857Y-92654819D01*
X213642857Y-92654819D02*
X213738095Y-92607200D01*
X213738095Y-92607200D02*
X213785714Y-92559580D01*
X213785714Y-92559580D02*
X213833333Y-92464342D01*
X213833333Y-92464342D02*
X213833333Y-92369104D01*
X213833333Y-92369104D02*
X213785714Y-92273866D01*
X213785714Y-92273866D02*
X213738095Y-92226247D01*
X213738095Y-92226247D02*
X213642857Y-92178628D01*
X213642857Y-92178628D02*
X213452381Y-92131009D01*
X213452381Y-92131009D02*
X213357143Y-92083390D01*
X213357143Y-92083390D02*
X213309524Y-92035771D01*
X213309524Y-92035771D02*
X213261905Y-91940533D01*
X213261905Y-91940533D02*
X213261905Y-91845295D01*
X213261905Y-91845295D02*
X213309524Y-91750057D01*
X213309524Y-91750057D02*
X213357143Y-91702438D01*
X213357143Y-91702438D02*
X213452381Y-91654819D01*
X213452381Y-91654819D02*
X213690476Y-91654819D01*
X213690476Y-91654819D02*
X213833333Y-91702438D01*
X214214286Y-91750057D02*
X214261905Y-91702438D01*
X214261905Y-91702438D02*
X214357143Y-91654819D01*
X214357143Y-91654819D02*
X214595238Y-91654819D01*
X214595238Y-91654819D02*
X214690476Y-91702438D01*
X214690476Y-91702438D02*
X214738095Y-91750057D01*
X214738095Y-91750057D02*
X214785714Y-91845295D01*
X214785714Y-91845295D02*
X214785714Y-91940533D01*
X214785714Y-91940533D02*
X214738095Y-92083390D01*
X214738095Y-92083390D02*
X214166667Y-92654819D01*
X214166667Y-92654819D02*
X214785714Y-92654819D01*
X215357143Y-92083390D02*
X215261905Y-92035771D01*
X215261905Y-92035771D02*
X215214286Y-91988152D01*
X215214286Y-91988152D02*
X215166667Y-91892914D01*
X215166667Y-91892914D02*
X215166667Y-91845295D01*
X215166667Y-91845295D02*
X215214286Y-91750057D01*
X215214286Y-91750057D02*
X215261905Y-91702438D01*
X215261905Y-91702438D02*
X215357143Y-91654819D01*
X215357143Y-91654819D02*
X215547619Y-91654819D01*
X215547619Y-91654819D02*
X215642857Y-91702438D01*
X215642857Y-91702438D02*
X215690476Y-91750057D01*
X215690476Y-91750057D02*
X215738095Y-91845295D01*
X215738095Y-91845295D02*
X215738095Y-91892914D01*
X215738095Y-91892914D02*
X215690476Y-91988152D01*
X215690476Y-91988152D02*
X215642857Y-92035771D01*
X215642857Y-92035771D02*
X215547619Y-92083390D01*
X215547619Y-92083390D02*
X215357143Y-92083390D01*
X215357143Y-92083390D02*
X215261905Y-92131009D01*
X215261905Y-92131009D02*
X215214286Y-92178628D01*
X215214286Y-92178628D02*
X215166667Y-92273866D01*
X215166667Y-92273866D02*
X215166667Y-92464342D01*
X215166667Y-92464342D02*
X215214286Y-92559580D01*
X215214286Y-92559580D02*
X215261905Y-92607200D01*
X215261905Y-92607200D02*
X215357143Y-92654819D01*
X215357143Y-92654819D02*
X215547619Y-92654819D01*
X215547619Y-92654819D02*
X215642857Y-92607200D01*
X215642857Y-92607200D02*
X215690476Y-92559580D01*
X215690476Y-92559580D02*
X215738095Y-92464342D01*
X215738095Y-92464342D02*
X215738095Y-92273866D01*
X215738095Y-92273866D02*
X215690476Y-92178628D01*
X215690476Y-92178628D02*
X215642857Y-92131009D01*
X215642857Y-92131009D02*
X215547619Y-92083390D01*
X60372333Y-64473247D02*
X60105667Y-64473247D01*
X60105667Y-64892295D02*
X60105667Y-64092295D01*
X60105667Y-64092295D02*
X60486619Y-64092295D01*
X61172333Y-64092295D02*
X60791381Y-64092295D01*
X60791381Y-64092295D02*
X60753285Y-64473247D01*
X60753285Y-64473247D02*
X60791381Y-64435152D01*
X60791381Y-64435152D02*
X60867571Y-64397057D01*
X60867571Y-64397057D02*
X61058047Y-64397057D01*
X61058047Y-64397057D02*
X61134238Y-64435152D01*
X61134238Y-64435152D02*
X61172333Y-64473247D01*
X61172333Y-64473247D02*
X61210428Y-64549438D01*
X61210428Y-64549438D02*
X61210428Y-64739914D01*
X61210428Y-64739914D02*
X61172333Y-64816104D01*
X61172333Y-64816104D02*
X61134238Y-64854200D01*
X61134238Y-64854200D02*
X61058047Y-64892295D01*
X61058047Y-64892295D02*
X60867571Y-64892295D01*
X60867571Y-64892295D02*
X60791381Y-64854200D01*
X60791381Y-64854200D02*
X60753285Y-64816104D01*
X60315190Y-79713247D02*
X60429476Y-79751342D01*
X60429476Y-79751342D02*
X60467571Y-79789438D01*
X60467571Y-79789438D02*
X60505667Y-79865628D01*
X60505667Y-79865628D02*
X60505667Y-79979914D01*
X60505667Y-79979914D02*
X60467571Y-80056104D01*
X60467571Y-80056104D02*
X60429476Y-80094200D01*
X60429476Y-80094200D02*
X60353286Y-80132295D01*
X60353286Y-80132295D02*
X60048524Y-80132295D01*
X60048524Y-80132295D02*
X60048524Y-79332295D01*
X60048524Y-79332295D02*
X60315190Y-79332295D01*
X60315190Y-79332295D02*
X60391381Y-79370390D01*
X60391381Y-79370390D02*
X60429476Y-79408485D01*
X60429476Y-79408485D02*
X60467571Y-79484676D01*
X60467571Y-79484676D02*
X60467571Y-79560866D01*
X60467571Y-79560866D02*
X60429476Y-79637057D01*
X60429476Y-79637057D02*
X60391381Y-79675152D01*
X60391381Y-79675152D02*
X60315190Y-79713247D01*
X60315190Y-79713247D02*
X60048524Y-79713247D01*
X61191381Y-79332295D02*
X61039000Y-79332295D01*
X61039000Y-79332295D02*
X60962809Y-79370390D01*
X60962809Y-79370390D02*
X60924714Y-79408485D01*
X60924714Y-79408485D02*
X60848524Y-79522771D01*
X60848524Y-79522771D02*
X60810428Y-79675152D01*
X60810428Y-79675152D02*
X60810428Y-79979914D01*
X60810428Y-79979914D02*
X60848524Y-80056104D01*
X60848524Y-80056104D02*
X60886619Y-80094200D01*
X60886619Y-80094200D02*
X60962809Y-80132295D01*
X60962809Y-80132295D02*
X61115190Y-80132295D01*
X61115190Y-80132295D02*
X61191381Y-80094200D01*
X61191381Y-80094200D02*
X61229476Y-80056104D01*
X61229476Y-80056104D02*
X61267571Y-79979914D01*
X61267571Y-79979914D02*
X61267571Y-79789438D01*
X61267571Y-79789438D02*
X61229476Y-79713247D01*
X61229476Y-79713247D02*
X61191381Y-79675152D01*
X61191381Y-79675152D02*
X61115190Y-79637057D01*
X61115190Y-79637057D02*
X60962809Y-79637057D01*
X60962809Y-79637057D02*
X60886619Y-79675152D01*
X60886619Y-79675152D02*
X60848524Y-79713247D01*
X60848524Y-79713247D02*
X60810428Y-79789438D01*
X60372333Y-61933247D02*
X60105667Y-61933247D01*
X60105667Y-62352295D02*
X60105667Y-61552295D01*
X60105667Y-61552295D02*
X60486619Y-61552295D01*
X61134238Y-61818961D02*
X61134238Y-62352295D01*
X60943762Y-61514200D02*
X60753285Y-62085628D01*
X60753285Y-62085628D02*
X61248524Y-62085628D01*
X60315190Y-72093247D02*
X60429476Y-72131342D01*
X60429476Y-72131342D02*
X60467571Y-72169438D01*
X60467571Y-72169438D02*
X60505667Y-72245628D01*
X60505667Y-72245628D02*
X60505667Y-72359914D01*
X60505667Y-72359914D02*
X60467571Y-72436104D01*
X60467571Y-72436104D02*
X60429476Y-72474200D01*
X60429476Y-72474200D02*
X60353286Y-72512295D01*
X60353286Y-72512295D02*
X60048524Y-72512295D01*
X60048524Y-72512295D02*
X60048524Y-71712295D01*
X60048524Y-71712295D02*
X60315190Y-71712295D01*
X60315190Y-71712295D02*
X60391381Y-71750390D01*
X60391381Y-71750390D02*
X60429476Y-71788485D01*
X60429476Y-71788485D02*
X60467571Y-71864676D01*
X60467571Y-71864676D02*
X60467571Y-71940866D01*
X60467571Y-71940866D02*
X60429476Y-72017057D01*
X60429476Y-72017057D02*
X60391381Y-72055152D01*
X60391381Y-72055152D02*
X60315190Y-72093247D01*
X60315190Y-72093247D02*
X60048524Y-72093247D01*
X61267571Y-72512295D02*
X60810428Y-72512295D01*
X61039000Y-72512295D02*
X61039000Y-71712295D01*
X61039000Y-71712295D02*
X60962809Y-71826580D01*
X60962809Y-71826580D02*
X60886619Y-71902771D01*
X60886619Y-71902771D02*
X60810428Y-71940866D01*
X60526666Y-57214200D02*
X60640952Y-57252295D01*
X60640952Y-57252295D02*
X60831428Y-57252295D01*
X60831428Y-57252295D02*
X60907619Y-57214200D01*
X60907619Y-57214200D02*
X60945714Y-57176104D01*
X60945714Y-57176104D02*
X60983809Y-57099914D01*
X60983809Y-57099914D02*
X60983809Y-57023723D01*
X60983809Y-57023723D02*
X60945714Y-56947533D01*
X60945714Y-56947533D02*
X60907619Y-56909438D01*
X60907619Y-56909438D02*
X60831428Y-56871342D01*
X60831428Y-56871342D02*
X60679047Y-56833247D01*
X60679047Y-56833247D02*
X60602857Y-56795152D01*
X60602857Y-56795152D02*
X60564762Y-56757057D01*
X60564762Y-56757057D02*
X60526666Y-56680866D01*
X60526666Y-56680866D02*
X60526666Y-56604676D01*
X60526666Y-56604676D02*
X60564762Y-56528485D01*
X60564762Y-56528485D02*
X60602857Y-56490390D01*
X60602857Y-56490390D02*
X60679047Y-56452295D01*
X60679047Y-56452295D02*
X60869524Y-56452295D01*
X60869524Y-56452295D02*
X60983809Y-56490390D01*
X61212381Y-56452295D02*
X61669524Y-56452295D01*
X61440952Y-57252295D02*
X61440952Y-56452295D01*
X60315190Y-77173247D02*
X60429476Y-77211342D01*
X60429476Y-77211342D02*
X60467571Y-77249438D01*
X60467571Y-77249438D02*
X60505667Y-77325628D01*
X60505667Y-77325628D02*
X60505667Y-77439914D01*
X60505667Y-77439914D02*
X60467571Y-77516104D01*
X60467571Y-77516104D02*
X60429476Y-77554200D01*
X60429476Y-77554200D02*
X60353286Y-77592295D01*
X60353286Y-77592295D02*
X60048524Y-77592295D01*
X60048524Y-77592295D02*
X60048524Y-76792295D01*
X60048524Y-76792295D02*
X60315190Y-76792295D01*
X60315190Y-76792295D02*
X60391381Y-76830390D01*
X60391381Y-76830390D02*
X60429476Y-76868485D01*
X60429476Y-76868485D02*
X60467571Y-76944676D01*
X60467571Y-76944676D02*
X60467571Y-77020866D01*
X60467571Y-77020866D02*
X60429476Y-77097057D01*
X60429476Y-77097057D02*
X60391381Y-77135152D01*
X60391381Y-77135152D02*
X60315190Y-77173247D01*
X60315190Y-77173247D02*
X60048524Y-77173247D01*
X60810428Y-76868485D02*
X60848524Y-76830390D01*
X60848524Y-76830390D02*
X60924714Y-76792295D01*
X60924714Y-76792295D02*
X61115190Y-76792295D01*
X61115190Y-76792295D02*
X61191381Y-76830390D01*
X61191381Y-76830390D02*
X61229476Y-76868485D01*
X61229476Y-76868485D02*
X61267571Y-76944676D01*
X61267571Y-76944676D02*
X61267571Y-77020866D01*
X61267571Y-77020866D02*
X61229476Y-77135152D01*
X61229476Y-77135152D02*
X60772333Y-77592295D01*
X60772333Y-77592295D02*
X61267571Y-77592295D01*
X70951476Y-56510390D02*
X70875286Y-56472295D01*
X70875286Y-56472295D02*
X70761000Y-56472295D01*
X70761000Y-56472295D02*
X70646714Y-56510390D01*
X70646714Y-56510390D02*
X70570524Y-56586580D01*
X70570524Y-56586580D02*
X70532429Y-56662771D01*
X70532429Y-56662771D02*
X70494333Y-56815152D01*
X70494333Y-56815152D02*
X70494333Y-56929438D01*
X70494333Y-56929438D02*
X70532429Y-57081819D01*
X70532429Y-57081819D02*
X70570524Y-57158009D01*
X70570524Y-57158009D02*
X70646714Y-57234200D01*
X70646714Y-57234200D02*
X70761000Y-57272295D01*
X70761000Y-57272295D02*
X70837191Y-57272295D01*
X70837191Y-57272295D02*
X70951476Y-57234200D01*
X70951476Y-57234200D02*
X70989572Y-57196104D01*
X70989572Y-57196104D02*
X70989572Y-56929438D01*
X70989572Y-56929438D02*
X70837191Y-56929438D01*
X71332429Y-57272295D02*
X71332429Y-56472295D01*
X71332429Y-56472295D02*
X71789572Y-57272295D01*
X71789572Y-57272295D02*
X71789572Y-56472295D01*
X72170524Y-57272295D02*
X72170524Y-56472295D01*
X72170524Y-56472295D02*
X72361000Y-56472295D01*
X72361000Y-56472295D02*
X72475286Y-56510390D01*
X72475286Y-56510390D02*
X72551476Y-56586580D01*
X72551476Y-56586580D02*
X72589571Y-56662771D01*
X72589571Y-56662771D02*
X72627667Y-56815152D01*
X72627667Y-56815152D02*
X72627667Y-56929438D01*
X72627667Y-56929438D02*
X72589571Y-57081819D01*
X72589571Y-57081819D02*
X72551476Y-57158009D01*
X72551476Y-57158009D02*
X72475286Y-57234200D01*
X72475286Y-57234200D02*
X72361000Y-57272295D01*
X72361000Y-57272295D02*
X72170524Y-57272295D01*
X70970524Y-64892295D02*
X70970524Y-64092295D01*
X70970524Y-64092295D02*
X71161000Y-64092295D01*
X71161000Y-64092295D02*
X71275286Y-64130390D01*
X71275286Y-64130390D02*
X71351476Y-64206580D01*
X71351476Y-64206580D02*
X71389571Y-64282771D01*
X71389571Y-64282771D02*
X71427667Y-64435152D01*
X71427667Y-64435152D02*
X71427667Y-64549438D01*
X71427667Y-64549438D02*
X71389571Y-64701819D01*
X71389571Y-64701819D02*
X71351476Y-64778009D01*
X71351476Y-64778009D02*
X71275286Y-64854200D01*
X71275286Y-64854200D02*
X71161000Y-64892295D01*
X71161000Y-64892295D02*
X70970524Y-64892295D01*
X71922905Y-64092295D02*
X71999095Y-64092295D01*
X71999095Y-64092295D02*
X72075286Y-64130390D01*
X72075286Y-64130390D02*
X72113381Y-64168485D01*
X72113381Y-64168485D02*
X72151476Y-64244676D01*
X72151476Y-64244676D02*
X72189571Y-64397057D01*
X72189571Y-64397057D02*
X72189571Y-64587533D01*
X72189571Y-64587533D02*
X72151476Y-64739914D01*
X72151476Y-64739914D02*
X72113381Y-64816104D01*
X72113381Y-64816104D02*
X72075286Y-64854200D01*
X72075286Y-64854200D02*
X71999095Y-64892295D01*
X71999095Y-64892295D02*
X71922905Y-64892295D01*
X71922905Y-64892295D02*
X71846714Y-64854200D01*
X71846714Y-64854200D02*
X71808619Y-64816104D01*
X71808619Y-64816104D02*
X71770524Y-64739914D01*
X71770524Y-64739914D02*
X71732428Y-64587533D01*
X71732428Y-64587533D02*
X71732428Y-64397057D01*
X71732428Y-64397057D02*
X71770524Y-64244676D01*
X71770524Y-64244676D02*
X71808619Y-64168485D01*
X71808619Y-64168485D02*
X71846714Y-64130390D01*
X71846714Y-64130390D02*
X71922905Y-64092295D01*
X71427667Y-69896104D02*
X71389571Y-69934200D01*
X71389571Y-69934200D02*
X71275286Y-69972295D01*
X71275286Y-69972295D02*
X71199095Y-69972295D01*
X71199095Y-69972295D02*
X71084809Y-69934200D01*
X71084809Y-69934200D02*
X71008619Y-69858009D01*
X71008619Y-69858009D02*
X70970524Y-69781819D01*
X70970524Y-69781819D02*
X70932428Y-69629438D01*
X70932428Y-69629438D02*
X70932428Y-69515152D01*
X70932428Y-69515152D02*
X70970524Y-69362771D01*
X70970524Y-69362771D02*
X71008619Y-69286580D01*
X71008619Y-69286580D02*
X71084809Y-69210390D01*
X71084809Y-69210390D02*
X71199095Y-69172295D01*
X71199095Y-69172295D02*
X71275286Y-69172295D01*
X71275286Y-69172295D02*
X71389571Y-69210390D01*
X71389571Y-69210390D02*
X71427667Y-69248485D01*
X72113381Y-69172295D02*
X71961000Y-69172295D01*
X71961000Y-69172295D02*
X71884809Y-69210390D01*
X71884809Y-69210390D02*
X71846714Y-69248485D01*
X71846714Y-69248485D02*
X71770524Y-69362771D01*
X71770524Y-69362771D02*
X71732428Y-69515152D01*
X71732428Y-69515152D02*
X71732428Y-69819914D01*
X71732428Y-69819914D02*
X71770524Y-69896104D01*
X71770524Y-69896104D02*
X71808619Y-69934200D01*
X71808619Y-69934200D02*
X71884809Y-69972295D01*
X71884809Y-69972295D02*
X72037190Y-69972295D01*
X72037190Y-69972295D02*
X72113381Y-69934200D01*
X72113381Y-69934200D02*
X72151476Y-69896104D01*
X72151476Y-69896104D02*
X72189571Y-69819914D01*
X72189571Y-69819914D02*
X72189571Y-69629438D01*
X72189571Y-69629438D02*
X72151476Y-69553247D01*
X72151476Y-69553247D02*
X72113381Y-69515152D01*
X72113381Y-69515152D02*
X72037190Y-69477057D01*
X72037190Y-69477057D02*
X71884809Y-69477057D01*
X71884809Y-69477057D02*
X71808619Y-69515152D01*
X71808619Y-69515152D02*
X71770524Y-69553247D01*
X71770524Y-69553247D02*
X71732428Y-69629438D01*
X71237190Y-79713247D02*
X71351476Y-79751342D01*
X71351476Y-79751342D02*
X71389571Y-79789438D01*
X71389571Y-79789438D02*
X71427667Y-79865628D01*
X71427667Y-79865628D02*
X71427667Y-79979914D01*
X71427667Y-79979914D02*
X71389571Y-80056104D01*
X71389571Y-80056104D02*
X71351476Y-80094200D01*
X71351476Y-80094200D02*
X71275286Y-80132295D01*
X71275286Y-80132295D02*
X70970524Y-80132295D01*
X70970524Y-80132295D02*
X70970524Y-79332295D01*
X70970524Y-79332295D02*
X71237190Y-79332295D01*
X71237190Y-79332295D02*
X71313381Y-79370390D01*
X71313381Y-79370390D02*
X71351476Y-79408485D01*
X71351476Y-79408485D02*
X71389571Y-79484676D01*
X71389571Y-79484676D02*
X71389571Y-79560866D01*
X71389571Y-79560866D02*
X71351476Y-79637057D01*
X71351476Y-79637057D02*
X71313381Y-79675152D01*
X71313381Y-79675152D02*
X71237190Y-79713247D01*
X71237190Y-79713247D02*
X70970524Y-79713247D01*
X72151476Y-79332295D02*
X71770524Y-79332295D01*
X71770524Y-79332295D02*
X71732428Y-79713247D01*
X71732428Y-79713247D02*
X71770524Y-79675152D01*
X71770524Y-79675152D02*
X71846714Y-79637057D01*
X71846714Y-79637057D02*
X72037190Y-79637057D01*
X72037190Y-79637057D02*
X72113381Y-79675152D01*
X72113381Y-79675152D02*
X72151476Y-79713247D01*
X72151476Y-79713247D02*
X72189571Y-79789438D01*
X72189571Y-79789438D02*
X72189571Y-79979914D01*
X72189571Y-79979914D02*
X72151476Y-80056104D01*
X72151476Y-80056104D02*
X72113381Y-80094200D01*
X72113381Y-80094200D02*
X72037190Y-80132295D01*
X72037190Y-80132295D02*
X71846714Y-80132295D01*
X71846714Y-80132295D02*
X71770524Y-80094200D01*
X71770524Y-80094200D02*
X71732428Y-80056104D01*
X67481395Y-51392295D02*
X67938538Y-51392295D01*
X67709966Y-52192295D02*
X67709966Y-51392295D01*
X68129014Y-51392295D02*
X68662348Y-52192295D01*
X68662348Y-51392295D02*
X68129014Y-52192295D01*
X69119491Y-51392295D02*
X69195681Y-51392295D01*
X69195681Y-51392295D02*
X69271872Y-51430390D01*
X69271872Y-51430390D02*
X69309967Y-51468485D01*
X69309967Y-51468485D02*
X69348062Y-51544676D01*
X69348062Y-51544676D02*
X69386157Y-51697057D01*
X69386157Y-51697057D02*
X69386157Y-51887533D01*
X69386157Y-51887533D02*
X69348062Y-52039914D01*
X69348062Y-52039914D02*
X69309967Y-52116104D01*
X69309967Y-52116104D02*
X69271872Y-52154200D01*
X69271872Y-52154200D02*
X69195681Y-52192295D01*
X69195681Y-52192295D02*
X69119491Y-52192295D01*
X69119491Y-52192295D02*
X69043300Y-52154200D01*
X69043300Y-52154200D02*
X69005205Y-52116104D01*
X69005205Y-52116104D02*
X68967110Y-52039914D01*
X68967110Y-52039914D02*
X68929014Y-51887533D01*
X68929014Y-51887533D02*
X68929014Y-51697057D01*
X68929014Y-51697057D02*
X68967110Y-51544676D01*
X68967110Y-51544676D02*
X69005205Y-51468485D01*
X69005205Y-51468485D02*
X69043300Y-51430390D01*
X69043300Y-51430390D02*
X69119491Y-51392295D01*
X70300443Y-51354200D02*
X69614729Y-52382771D01*
X70567110Y-52192295D02*
X70567110Y-51392295D01*
X70567110Y-51392295D02*
X70757586Y-51392295D01*
X70757586Y-51392295D02*
X70871872Y-51430390D01*
X70871872Y-51430390D02*
X70948062Y-51506580D01*
X70948062Y-51506580D02*
X70986157Y-51582771D01*
X70986157Y-51582771D02*
X71024253Y-51735152D01*
X71024253Y-51735152D02*
X71024253Y-51849438D01*
X71024253Y-51849438D02*
X70986157Y-52001819D01*
X70986157Y-52001819D02*
X70948062Y-52078009D01*
X70948062Y-52078009D02*
X70871872Y-52154200D01*
X70871872Y-52154200D02*
X70757586Y-52192295D01*
X70757586Y-52192295D02*
X70567110Y-52192295D01*
X71290919Y-51392295D02*
X71786157Y-51392295D01*
X71786157Y-51392295D02*
X71519491Y-51697057D01*
X71519491Y-51697057D02*
X71633776Y-51697057D01*
X71633776Y-51697057D02*
X71709967Y-51735152D01*
X71709967Y-51735152D02*
X71748062Y-51773247D01*
X71748062Y-51773247D02*
X71786157Y-51849438D01*
X71786157Y-51849438D02*
X71786157Y-52039914D01*
X71786157Y-52039914D02*
X71748062Y-52116104D01*
X71748062Y-52116104D02*
X71709967Y-52154200D01*
X71709967Y-52154200D02*
X71633776Y-52192295D01*
X71633776Y-52192295D02*
X71405205Y-52192295D01*
X71405205Y-52192295D02*
X71329014Y-52154200D01*
X71329014Y-52154200D02*
X71290919Y-52116104D01*
X60372333Y-69553247D02*
X60105667Y-69553247D01*
X60105667Y-69972295D02*
X60105667Y-69172295D01*
X60105667Y-69172295D02*
X60486619Y-69172295D01*
X60715190Y-69172295D02*
X61248524Y-69172295D01*
X61248524Y-69172295D02*
X60905666Y-69972295D01*
X59572333Y-59012295D02*
X59839000Y-59812295D01*
X59839000Y-59812295D02*
X60105666Y-59012295D01*
X60829476Y-59736104D02*
X60791380Y-59774200D01*
X60791380Y-59774200D02*
X60677095Y-59812295D01*
X60677095Y-59812295D02*
X60600904Y-59812295D01*
X60600904Y-59812295D02*
X60486618Y-59774200D01*
X60486618Y-59774200D02*
X60410428Y-59698009D01*
X60410428Y-59698009D02*
X60372333Y-59621819D01*
X60372333Y-59621819D02*
X60334237Y-59469438D01*
X60334237Y-59469438D02*
X60334237Y-59355152D01*
X60334237Y-59355152D02*
X60372333Y-59202771D01*
X60372333Y-59202771D02*
X60410428Y-59126580D01*
X60410428Y-59126580D02*
X60486618Y-59050390D01*
X60486618Y-59050390D02*
X60600904Y-59012295D01*
X60600904Y-59012295D02*
X60677095Y-59012295D01*
X60677095Y-59012295D02*
X60791380Y-59050390D01*
X60791380Y-59050390D02*
X60829476Y-59088485D01*
X61629476Y-59736104D02*
X61591380Y-59774200D01*
X61591380Y-59774200D02*
X61477095Y-59812295D01*
X61477095Y-59812295D02*
X61400904Y-59812295D01*
X61400904Y-59812295D02*
X61286618Y-59774200D01*
X61286618Y-59774200D02*
X61210428Y-59698009D01*
X61210428Y-59698009D02*
X61172333Y-59621819D01*
X61172333Y-59621819D02*
X61134237Y-59469438D01*
X61134237Y-59469438D02*
X61134237Y-59355152D01*
X61134237Y-59355152D02*
X61172333Y-59202771D01*
X61172333Y-59202771D02*
X61210428Y-59126580D01*
X61210428Y-59126580D02*
X61286618Y-59050390D01*
X61286618Y-59050390D02*
X61400904Y-59012295D01*
X61400904Y-59012295D02*
X61477095Y-59012295D01*
X61477095Y-59012295D02*
X61591380Y-59050390D01*
X61591380Y-59050390D02*
X61629476Y-59088485D01*
X60086619Y-52192295D02*
X59819952Y-51811342D01*
X59629476Y-52192295D02*
X59629476Y-51392295D01*
X59629476Y-51392295D02*
X59934238Y-51392295D01*
X59934238Y-51392295D02*
X60010428Y-51430390D01*
X60010428Y-51430390D02*
X60048523Y-51468485D01*
X60048523Y-51468485D02*
X60086619Y-51544676D01*
X60086619Y-51544676D02*
X60086619Y-51658961D01*
X60086619Y-51658961D02*
X60048523Y-51735152D01*
X60048523Y-51735152D02*
X60010428Y-51773247D01*
X60010428Y-51773247D02*
X59934238Y-51811342D01*
X59934238Y-51811342D02*
X59629476Y-51811342D01*
X60391380Y-51963723D02*
X60772333Y-51963723D01*
X60315190Y-52192295D02*
X60581857Y-51392295D01*
X60581857Y-51392295D02*
X60848523Y-52192295D01*
X61038999Y-51392295D02*
X61229475Y-52192295D01*
X61229475Y-52192295D02*
X61381856Y-51620866D01*
X61381856Y-51620866D02*
X61534237Y-52192295D01*
X61534237Y-52192295D02*
X61724714Y-51392295D01*
X60315190Y-74633247D02*
X60429476Y-74671342D01*
X60429476Y-74671342D02*
X60467571Y-74709438D01*
X60467571Y-74709438D02*
X60505667Y-74785628D01*
X60505667Y-74785628D02*
X60505667Y-74899914D01*
X60505667Y-74899914D02*
X60467571Y-74976104D01*
X60467571Y-74976104D02*
X60429476Y-75014200D01*
X60429476Y-75014200D02*
X60353286Y-75052295D01*
X60353286Y-75052295D02*
X60048524Y-75052295D01*
X60048524Y-75052295D02*
X60048524Y-74252295D01*
X60048524Y-74252295D02*
X60315190Y-74252295D01*
X60315190Y-74252295D02*
X60391381Y-74290390D01*
X60391381Y-74290390D02*
X60429476Y-74328485D01*
X60429476Y-74328485D02*
X60467571Y-74404676D01*
X60467571Y-74404676D02*
X60467571Y-74480866D01*
X60467571Y-74480866D02*
X60429476Y-74557057D01*
X60429476Y-74557057D02*
X60391381Y-74595152D01*
X60391381Y-74595152D02*
X60315190Y-74633247D01*
X60315190Y-74633247D02*
X60048524Y-74633247D01*
X60772333Y-74252295D02*
X61267571Y-74252295D01*
X61267571Y-74252295D02*
X61000905Y-74557057D01*
X61000905Y-74557057D02*
X61115190Y-74557057D01*
X61115190Y-74557057D02*
X61191381Y-74595152D01*
X61191381Y-74595152D02*
X61229476Y-74633247D01*
X61229476Y-74633247D02*
X61267571Y-74709438D01*
X61267571Y-74709438D02*
X61267571Y-74899914D01*
X61267571Y-74899914D02*
X61229476Y-74976104D01*
X61229476Y-74976104D02*
X61191381Y-75014200D01*
X61191381Y-75014200D02*
X61115190Y-75052295D01*
X61115190Y-75052295D02*
X60886619Y-75052295D01*
X60886619Y-75052295D02*
X60810428Y-75014200D01*
X60810428Y-75014200D02*
X60772333Y-74976104D01*
X60029476Y-53970390D02*
X59953286Y-53932295D01*
X59953286Y-53932295D02*
X59839000Y-53932295D01*
X59839000Y-53932295D02*
X59724714Y-53970390D01*
X59724714Y-53970390D02*
X59648524Y-54046580D01*
X59648524Y-54046580D02*
X59610429Y-54122771D01*
X59610429Y-54122771D02*
X59572333Y-54275152D01*
X59572333Y-54275152D02*
X59572333Y-54389438D01*
X59572333Y-54389438D02*
X59610429Y-54541819D01*
X59610429Y-54541819D02*
X59648524Y-54618009D01*
X59648524Y-54618009D02*
X59724714Y-54694200D01*
X59724714Y-54694200D02*
X59839000Y-54732295D01*
X59839000Y-54732295D02*
X59915191Y-54732295D01*
X59915191Y-54732295D02*
X60029476Y-54694200D01*
X60029476Y-54694200D02*
X60067572Y-54656104D01*
X60067572Y-54656104D02*
X60067572Y-54389438D01*
X60067572Y-54389438D02*
X59915191Y-54389438D01*
X60410429Y-54732295D02*
X60410429Y-53932295D01*
X60410429Y-53932295D02*
X60867572Y-54732295D01*
X60867572Y-54732295D02*
X60867572Y-53932295D01*
X61248524Y-54732295D02*
X61248524Y-53932295D01*
X61248524Y-53932295D02*
X61439000Y-53932295D01*
X61439000Y-53932295D02*
X61553286Y-53970390D01*
X61553286Y-53970390D02*
X61629476Y-54046580D01*
X61629476Y-54046580D02*
X61667571Y-54122771D01*
X61667571Y-54122771D02*
X61705667Y-54275152D01*
X61705667Y-54275152D02*
X61705667Y-54389438D01*
X61705667Y-54389438D02*
X61667571Y-54541819D01*
X61667571Y-54541819D02*
X61629476Y-54618009D01*
X61629476Y-54618009D02*
X61553286Y-54694200D01*
X61553286Y-54694200D02*
X61439000Y-54732295D01*
X61439000Y-54732295D02*
X61248524Y-54732295D01*
X71008619Y-74633247D02*
X71275285Y-74633247D01*
X71389571Y-75052295D02*
X71008619Y-75052295D01*
X71008619Y-75052295D02*
X71008619Y-74252295D01*
X71008619Y-74252295D02*
X71389571Y-74252295D01*
X72075286Y-74252295D02*
X71922905Y-74252295D01*
X71922905Y-74252295D02*
X71846714Y-74290390D01*
X71846714Y-74290390D02*
X71808619Y-74328485D01*
X71808619Y-74328485D02*
X71732429Y-74442771D01*
X71732429Y-74442771D02*
X71694333Y-74595152D01*
X71694333Y-74595152D02*
X71694333Y-74899914D01*
X71694333Y-74899914D02*
X71732429Y-74976104D01*
X71732429Y-74976104D02*
X71770524Y-75014200D01*
X71770524Y-75014200D02*
X71846714Y-75052295D01*
X71846714Y-75052295D02*
X71999095Y-75052295D01*
X71999095Y-75052295D02*
X72075286Y-75014200D01*
X72075286Y-75014200D02*
X72113381Y-74976104D01*
X72113381Y-74976104D02*
X72151476Y-74899914D01*
X72151476Y-74899914D02*
X72151476Y-74709438D01*
X72151476Y-74709438D02*
X72113381Y-74633247D01*
X72113381Y-74633247D02*
X72075286Y-74595152D01*
X72075286Y-74595152D02*
X71999095Y-74557057D01*
X71999095Y-74557057D02*
X71846714Y-74557057D01*
X71846714Y-74557057D02*
X71770524Y-74595152D01*
X71770524Y-74595152D02*
X71732429Y-74633247D01*
X71732429Y-74633247D02*
X71694333Y-74709438D01*
X71237190Y-77173247D02*
X71351476Y-77211342D01*
X71351476Y-77211342D02*
X71389571Y-77249438D01*
X71389571Y-77249438D02*
X71427667Y-77325628D01*
X71427667Y-77325628D02*
X71427667Y-77439914D01*
X71427667Y-77439914D02*
X71389571Y-77516104D01*
X71389571Y-77516104D02*
X71351476Y-77554200D01*
X71351476Y-77554200D02*
X71275286Y-77592295D01*
X71275286Y-77592295D02*
X70970524Y-77592295D01*
X70970524Y-77592295D02*
X70970524Y-76792295D01*
X70970524Y-76792295D02*
X71237190Y-76792295D01*
X71237190Y-76792295D02*
X71313381Y-76830390D01*
X71313381Y-76830390D02*
X71351476Y-76868485D01*
X71351476Y-76868485D02*
X71389571Y-76944676D01*
X71389571Y-76944676D02*
X71389571Y-77020866D01*
X71389571Y-77020866D02*
X71351476Y-77097057D01*
X71351476Y-77097057D02*
X71313381Y-77135152D01*
X71313381Y-77135152D02*
X71237190Y-77173247D01*
X71237190Y-77173247D02*
X70970524Y-77173247D01*
X72113381Y-77058961D02*
X72113381Y-77592295D01*
X71922905Y-76754200D02*
X71732428Y-77325628D01*
X71732428Y-77325628D02*
X72227667Y-77325628D01*
X70970524Y-67432295D02*
X70970524Y-66632295D01*
X70970524Y-66632295D02*
X71161000Y-66632295D01*
X71161000Y-66632295D02*
X71275286Y-66670390D01*
X71275286Y-66670390D02*
X71351476Y-66746580D01*
X71351476Y-66746580D02*
X71389571Y-66822771D01*
X71389571Y-66822771D02*
X71427667Y-66975152D01*
X71427667Y-66975152D02*
X71427667Y-67089438D01*
X71427667Y-67089438D02*
X71389571Y-67241819D01*
X71389571Y-67241819D02*
X71351476Y-67318009D01*
X71351476Y-67318009D02*
X71275286Y-67394200D01*
X71275286Y-67394200D02*
X71161000Y-67432295D01*
X71161000Y-67432295D02*
X70970524Y-67432295D01*
X72113381Y-66898961D02*
X72113381Y-67432295D01*
X71922905Y-66594200D02*
X71732428Y-67165628D01*
X71732428Y-67165628D02*
X72227667Y-67165628D01*
X70970524Y-54732295D02*
X70970524Y-53932295D01*
X70970524Y-53932295D02*
X71161000Y-53932295D01*
X71161000Y-53932295D02*
X71275286Y-53970390D01*
X71275286Y-53970390D02*
X71351476Y-54046580D01*
X71351476Y-54046580D02*
X71389571Y-54122771D01*
X71389571Y-54122771D02*
X71427667Y-54275152D01*
X71427667Y-54275152D02*
X71427667Y-54389438D01*
X71427667Y-54389438D02*
X71389571Y-54541819D01*
X71389571Y-54541819D02*
X71351476Y-54618009D01*
X71351476Y-54618009D02*
X71275286Y-54694200D01*
X71275286Y-54694200D02*
X71161000Y-54732295D01*
X71161000Y-54732295D02*
X70970524Y-54732295D01*
X71732428Y-54008485D02*
X71770524Y-53970390D01*
X71770524Y-53970390D02*
X71846714Y-53932295D01*
X71846714Y-53932295D02*
X72037190Y-53932295D01*
X72037190Y-53932295D02*
X72113381Y-53970390D01*
X72113381Y-53970390D02*
X72151476Y-54008485D01*
X72151476Y-54008485D02*
X72189571Y-54084676D01*
X72189571Y-54084676D02*
X72189571Y-54160866D01*
X72189571Y-54160866D02*
X72151476Y-54275152D01*
X72151476Y-54275152D02*
X71694333Y-54732295D01*
X71694333Y-54732295D02*
X72189571Y-54732295D01*
X70970524Y-62352295D02*
X70970524Y-61552295D01*
X70970524Y-61552295D02*
X71161000Y-61552295D01*
X71161000Y-61552295D02*
X71275286Y-61590390D01*
X71275286Y-61590390D02*
X71351476Y-61666580D01*
X71351476Y-61666580D02*
X71389571Y-61742771D01*
X71389571Y-61742771D02*
X71427667Y-61895152D01*
X71427667Y-61895152D02*
X71427667Y-62009438D01*
X71427667Y-62009438D02*
X71389571Y-62161819D01*
X71389571Y-62161819D02*
X71351476Y-62238009D01*
X71351476Y-62238009D02*
X71275286Y-62314200D01*
X71275286Y-62314200D02*
X71161000Y-62352295D01*
X71161000Y-62352295D02*
X70970524Y-62352295D01*
X72189571Y-62352295D02*
X71732428Y-62352295D01*
X71961000Y-62352295D02*
X71961000Y-61552295D01*
X71961000Y-61552295D02*
X71884809Y-61666580D01*
X71884809Y-61666580D02*
X71808619Y-61742771D01*
X71808619Y-61742771D02*
X71732428Y-61780866D01*
X60372333Y-67013247D02*
X60105667Y-67013247D01*
X60105667Y-67432295D02*
X60105667Y-66632295D01*
X60105667Y-66632295D02*
X60486619Y-66632295D01*
X61134238Y-66632295D02*
X60981857Y-66632295D01*
X60981857Y-66632295D02*
X60905666Y-66670390D01*
X60905666Y-66670390D02*
X60867571Y-66708485D01*
X60867571Y-66708485D02*
X60791381Y-66822771D01*
X60791381Y-66822771D02*
X60753285Y-66975152D01*
X60753285Y-66975152D02*
X60753285Y-67279914D01*
X60753285Y-67279914D02*
X60791381Y-67356104D01*
X60791381Y-67356104D02*
X60829476Y-67394200D01*
X60829476Y-67394200D02*
X60905666Y-67432295D01*
X60905666Y-67432295D02*
X61058047Y-67432295D01*
X61058047Y-67432295D02*
X61134238Y-67394200D01*
X61134238Y-67394200D02*
X61172333Y-67356104D01*
X61172333Y-67356104D02*
X61210428Y-67279914D01*
X61210428Y-67279914D02*
X61210428Y-67089438D01*
X61210428Y-67089438D02*
X61172333Y-67013247D01*
X61172333Y-67013247D02*
X61134238Y-66975152D01*
X61134238Y-66975152D02*
X61058047Y-66937057D01*
X61058047Y-66937057D02*
X60905666Y-66937057D01*
X60905666Y-66937057D02*
X60829476Y-66975152D01*
X60829476Y-66975152D02*
X60791381Y-67013247D01*
X60791381Y-67013247D02*
X60753285Y-67089438D01*
D13*
%TO.C,S20*%
X243300000Y-76400000D02*
X243300000Y-91600000D01*
X243300000Y-91600000D02*
X258500000Y-91600000D01*
X258500000Y-76400000D02*
X243300000Y-76400000D01*
X258500000Y-91600000D02*
X258500000Y-76400000D01*
%TO.C,SW1*%
X62900000Y-83050000D02*
X62900000Y-83510000D01*
X62900000Y-83510000D02*
X61900000Y-83510000D01*
X62900000Y-86290000D02*
X62900000Y-86750000D01*
X62900000Y-86750000D02*
X69100000Y-86750000D01*
X69100000Y-83050000D02*
X62900000Y-83050000D01*
X69100000Y-83050000D02*
X69100000Y-83510000D01*
X69100000Y-86290000D02*
X69100000Y-86750000D01*
X64500000Y-84350000D02*
X67350000Y-84350000D01*
X67350000Y-85400000D01*
X64500000Y-85400000D01*
X64500000Y-84350000D01*
D12*
%TO.C,D14*%
X150350000Y-83750000D02*
X151150000Y-83750000D01*
X150750000Y-83750000D02*
X150750000Y-83250000D01*
X150750000Y-84350000D02*
X150200000Y-84350000D01*
X150750000Y-84350000D02*
X150350000Y-83750000D01*
X150750000Y-84350000D02*
X151300000Y-84350000D01*
X150750000Y-84750000D02*
X150750000Y-84350000D01*
X151150000Y-83750000D02*
X150750000Y-84350000D01*
D13*
%TO.C,S24*%
X134100000Y-93600000D02*
X134100000Y-108800000D01*
X134100000Y-108800000D02*
X149300000Y-108800000D01*
X149300000Y-93600000D02*
X134100000Y-93600000D01*
X149300000Y-108800000D02*
X149300000Y-93600000D01*
D12*
%TO.C,D4*%
X95850000Y-83750000D02*
X96650000Y-83750000D01*
X96250000Y-83750000D02*
X96250000Y-83250000D01*
X96250000Y-84350000D02*
X95700000Y-84350000D01*
X96250000Y-84350000D02*
X95850000Y-83750000D01*
X96250000Y-84350000D02*
X96800000Y-84350000D01*
X96250000Y-84750000D02*
X96250000Y-84350000D01*
X96650000Y-83750000D02*
X96250000Y-84350000D01*
D13*
%TO.C,S14*%
X134100000Y-76400000D02*
X134100000Y-91600000D01*
X134100000Y-91600000D02*
X149300000Y-91600000D01*
X149300000Y-76400000D02*
X134100000Y-76400000D01*
X149300000Y-91600000D02*
X149300000Y-76400000D01*
D12*
%TO.C,D12*%
X132100000Y-101150000D02*
X132900000Y-101150000D01*
X132500000Y-101150000D02*
X132500000Y-100650000D01*
X132500000Y-101750000D02*
X131950000Y-101750000D01*
X132500000Y-101750000D02*
X132100000Y-101150000D01*
X132500000Y-101750000D02*
X133050000Y-101750000D01*
X132500000Y-102150000D02*
X132500000Y-101750000D01*
X132900000Y-101150000D02*
X132500000Y-101750000D01*
%TO.C,D21*%
X223600000Y-66750000D02*
X224400000Y-66750000D01*
X224000000Y-66750000D02*
X224000000Y-66250000D01*
X224000000Y-67350000D02*
X223450000Y-67350000D01*
X224000000Y-67350000D02*
X223600000Y-66750000D01*
X224000000Y-67350000D02*
X224550000Y-67350000D01*
X224000000Y-67750000D02*
X224000000Y-67350000D01*
X224400000Y-66750000D02*
X224000000Y-67350000D01*
%TO.C,D10*%
X132100000Y-66750000D02*
X132900000Y-66750000D01*
X132500000Y-66750000D02*
X132500000Y-66250000D01*
X132500000Y-67350000D02*
X131950000Y-67350000D01*
X132500000Y-67350000D02*
X132100000Y-66750000D01*
X132500000Y-67350000D02*
X133050000Y-67350000D01*
X132500000Y-67750000D02*
X132500000Y-67350000D01*
X132900000Y-66750000D02*
X132500000Y-67350000D01*
%TO.C,D11*%
X132100000Y-83750000D02*
X132900000Y-83750000D01*
X132500000Y-83750000D02*
X132500000Y-83250000D01*
X132500000Y-84350000D02*
X131950000Y-84350000D01*
X132500000Y-84350000D02*
X132100000Y-83750000D01*
X132500000Y-84350000D02*
X133050000Y-84350000D01*
X132500000Y-84750000D02*
X132500000Y-84350000D01*
X132900000Y-83750000D02*
X132500000Y-84350000D01*
D13*
%TO.C,S22*%
X97650000Y-93600000D02*
X97650000Y-108800000D01*
X97650000Y-108800000D02*
X112850000Y-108800000D01*
X112850000Y-93600000D02*
X97650000Y-93600000D01*
X112850000Y-108800000D02*
X112850000Y-93600000D01*
D12*
%TO.C,D24*%
X205200000Y-83750000D02*
X206000000Y-83750000D01*
X205600000Y-83750000D02*
X205600000Y-83250000D01*
X205600000Y-84350000D02*
X205050000Y-84350000D01*
X205600000Y-84350000D02*
X205200000Y-83750000D01*
X205600000Y-84350000D02*
X206150000Y-84350000D01*
X205600000Y-84750000D02*
X205600000Y-84350000D01*
X206000000Y-83750000D02*
X205600000Y-84350000D01*
D13*
%TO.C,S13*%
X115900000Y-76400000D02*
X115900000Y-91600000D01*
X115900000Y-91600000D02*
X131100000Y-91600000D01*
X131100000Y-76400000D02*
X115900000Y-76400000D01*
X131100000Y-91600000D02*
X131100000Y-76400000D01*
D12*
%TO.C,D22*%
X241400000Y-66650000D02*
X242200000Y-66650000D01*
X241800000Y-66650000D02*
X241800000Y-66150000D01*
X241800000Y-67250000D02*
X241250000Y-67250000D01*
X241800000Y-67250000D02*
X241400000Y-66650000D01*
X241800000Y-67250000D02*
X242350000Y-67250000D01*
X241800000Y-67650000D02*
X241800000Y-67250000D01*
X242200000Y-66650000D02*
X241800000Y-67250000D01*
%TO.C,D3*%
X77600000Y-83750000D02*
X78400000Y-83750000D01*
X78000000Y-83750000D02*
X78000000Y-83250000D01*
X78000000Y-84350000D02*
X77450000Y-84350000D01*
X78000000Y-84350000D02*
X77600000Y-83750000D01*
X78000000Y-84350000D02*
X78550000Y-84350000D01*
X78000000Y-84750000D02*
X78000000Y-84350000D01*
X78400000Y-83750000D02*
X78000000Y-84350000D01*
D13*
%TO.C,S4*%
X134100000Y-59200000D02*
X134100000Y-74400000D01*
X134100000Y-74400000D02*
X149300000Y-74400000D01*
X149300000Y-59200000D02*
X134100000Y-59200000D01*
X149300000Y-74400000D02*
X149300000Y-59200000D01*
%TO.C,S2*%
X97650000Y-59150000D02*
X97650000Y-74350000D01*
X97650000Y-74350000D02*
X112850000Y-74350000D01*
X112850000Y-59150000D02*
X97650000Y-59150000D01*
X112850000Y-74350000D02*
X112850000Y-59150000D01*
%TO.C,S23*%
X115900000Y-93600000D02*
X115900000Y-108800000D01*
X115900000Y-108800000D02*
X131100000Y-108800000D01*
X131100000Y-93600000D02*
X115900000Y-93600000D01*
X131100000Y-108800000D02*
X131100000Y-93600000D01*
%TO.C,S30*%
X243300000Y-93600000D02*
X243300000Y-108800000D01*
X243300000Y-108800000D02*
X258500000Y-108800000D01*
X258500000Y-93600000D02*
X243300000Y-93600000D01*
X258500000Y-108800000D02*
X258500000Y-93600000D01*
%TO.C,S32*%
X175000000Y-110800000D02*
X175000000Y-126000000D01*
X175000000Y-126000000D02*
X190200000Y-126000000D01*
X190200000Y-110800000D02*
X175000000Y-110800000D01*
X190200000Y-126000000D02*
X190200000Y-110800000D01*
%TO.C,S18*%
X206900000Y-76400000D02*
X206900000Y-91600000D01*
X206900000Y-91600000D02*
X222100000Y-91600000D01*
X222100000Y-76400000D02*
X206900000Y-76400000D01*
X222100000Y-91600000D02*
X222100000Y-76400000D01*
D12*
%TO.C,D20*%
X205000000Y-66750000D02*
X205800000Y-66750000D01*
X205400000Y-66750000D02*
X205400000Y-66250000D01*
X205400000Y-67350000D02*
X204850000Y-67350000D01*
X205400000Y-67350000D02*
X205000000Y-66750000D01*
X205400000Y-67350000D02*
X205950000Y-67350000D01*
X205400000Y-67750000D02*
X205400000Y-67350000D01*
X205800000Y-66750000D02*
X205400000Y-67350000D01*
%TO.C,D25*%
X223600000Y-83750000D02*
X224400000Y-83750000D01*
X224000000Y-83750000D02*
X224000000Y-83250000D01*
X224000000Y-84350000D02*
X223450000Y-84350000D01*
X224000000Y-84350000D02*
X223600000Y-83750000D01*
X224000000Y-84350000D02*
X224550000Y-84350000D01*
X224000000Y-84750000D02*
X224000000Y-84350000D01*
X224400000Y-83750000D02*
X224000000Y-84350000D01*
D13*
%TO.C,S26*%
X170500000Y-93600000D02*
X170500000Y-108800000D01*
X170500000Y-108800000D02*
X185700000Y-108800000D01*
X185700000Y-93600000D02*
X170500000Y-93600000D01*
X185700000Y-108800000D02*
X185700000Y-93600000D01*
%TO.C,S11*%
X79400000Y-76450000D02*
X79400000Y-91650000D01*
X79400000Y-91650000D02*
X94600000Y-91650000D01*
X94600000Y-76450000D02*
X79400000Y-76450000D01*
X94600000Y-91650000D02*
X94600000Y-76450000D01*
%TO.C,S21*%
X79400000Y-93600000D02*
X79400000Y-108800000D01*
X79400000Y-108800000D02*
X94600000Y-108800000D01*
X94600000Y-93600000D02*
X79400000Y-93600000D01*
X94600000Y-108800000D02*
X94600000Y-93600000D01*
%TO.C,S10*%
X243300000Y-59200000D02*
X243300000Y-74400000D01*
X243300000Y-74400000D02*
X258500000Y-74400000D01*
X258500000Y-59200000D02*
X243300000Y-59200000D01*
X258500000Y-74400000D02*
X258500000Y-59200000D01*
D12*
%TO.C,D31*%
X167100000Y-113900000D02*
X167500000Y-113300000D01*
X167500000Y-112900000D02*
X167500000Y-113300000D01*
X167500000Y-113300000D02*
X166950000Y-113300000D01*
X167500000Y-113300000D02*
X167900000Y-113900000D01*
X167500000Y-113300000D02*
X168050000Y-113300000D01*
X167500000Y-113900000D02*
X167500000Y-114400000D01*
X167900000Y-113900000D02*
X167100000Y-113900000D01*
D13*
%TO.C,S25*%
X152300000Y-93600000D02*
X152300000Y-108800000D01*
X152300000Y-108800000D02*
X167500000Y-108800000D01*
X167500000Y-93600000D02*
X152300000Y-93600000D01*
X167500000Y-108800000D02*
X167500000Y-93600000D01*
%TO.C,S17*%
X188700000Y-76400000D02*
X188700000Y-91600000D01*
X188700000Y-91600000D02*
X203900000Y-91600000D01*
X203900000Y-76400000D02*
X188700000Y-76400000D01*
X203900000Y-91600000D02*
X203900000Y-76400000D01*
%TO.C,S9*%
X225100000Y-59200000D02*
X225100000Y-74400000D01*
X225100000Y-74400000D02*
X240300000Y-74400000D01*
X240300000Y-59200000D02*
X225100000Y-59200000D01*
X240300000Y-74400000D02*
X240300000Y-59200000D01*
D12*
%TO.C,D28*%
X223600000Y-101150000D02*
X224400000Y-101150000D01*
X224000000Y-101150000D02*
X224000000Y-100650000D01*
X224000000Y-101750000D02*
X223450000Y-101750000D01*
X224000000Y-101750000D02*
X223600000Y-101150000D01*
X224000000Y-101750000D02*
X224550000Y-101750000D01*
X224000000Y-102150000D02*
X224000000Y-101750000D01*
X224400000Y-101150000D02*
X224000000Y-101750000D01*
D13*
%TO.C,S7*%
X188700000Y-59200000D02*
X188700000Y-74400000D01*
X188700000Y-74400000D02*
X203900000Y-74400000D01*
X203900000Y-59200000D02*
X188700000Y-59200000D01*
X203900000Y-74400000D02*
X203900000Y-59200000D01*
D12*
%TO.C,D9*%
X113850000Y-101150000D02*
X114650000Y-101150000D01*
X114250000Y-101150000D02*
X114250000Y-100650000D01*
X114250000Y-101750000D02*
X113700000Y-101750000D01*
X114250000Y-101750000D02*
X113850000Y-101150000D01*
X114250000Y-101750000D02*
X114800000Y-101750000D01*
X114250000Y-102150000D02*
X114250000Y-101750000D01*
X114650000Y-101150000D02*
X114250000Y-101750000D01*
%TO.C,D18*%
X168850000Y-101150000D02*
X169650000Y-101150000D01*
X169250000Y-101150000D02*
X169250000Y-100650000D01*
X169250000Y-101750000D02*
X168700000Y-101750000D01*
X169250000Y-101750000D02*
X168850000Y-101150000D01*
X169250000Y-101750000D02*
X169800000Y-101750000D01*
X169250000Y-102150000D02*
X169250000Y-101750000D01*
X169650000Y-101150000D02*
X169250000Y-101750000D01*
%TO.C,D7*%
X114100000Y-66750000D02*
X114900000Y-66750000D01*
X114500000Y-66750000D02*
X114500000Y-66250000D01*
X114500000Y-67350000D02*
X113950000Y-67350000D01*
X114500000Y-67350000D02*
X114100000Y-66750000D01*
X114500000Y-67350000D02*
X115050000Y-67350000D01*
X114500000Y-67750000D02*
X114500000Y-67350000D01*
X114900000Y-66750000D02*
X114500000Y-67350000D01*
D13*
%TO.C,S29*%
X225100000Y-93600000D02*
X225100000Y-108800000D01*
X225100000Y-108800000D02*
X240300000Y-108800000D01*
X240300000Y-93600000D02*
X225100000Y-93600000D01*
X240300000Y-108800000D02*
X240300000Y-93600000D01*
%TO.C,S31*%
X147800000Y-110800000D02*
X147800000Y-126000000D01*
X147800000Y-126000000D02*
X163000000Y-126000000D01*
X163000000Y-110800000D02*
X147800000Y-110800000D01*
X163000000Y-126000000D02*
X163000000Y-110800000D01*
%TO.C,S15*%
X152300000Y-76400000D02*
X152300000Y-91600000D01*
X152300000Y-91600000D02*
X167500000Y-91600000D01*
X167500000Y-76400000D02*
X152300000Y-76400000D01*
X167500000Y-91600000D02*
X167500000Y-76400000D01*
D12*
%TO.C,D8*%
X114100000Y-83750000D02*
X114900000Y-83750000D01*
X114500000Y-83750000D02*
X114500000Y-83250000D01*
X114500000Y-84350000D02*
X113950000Y-84350000D01*
X114500000Y-84350000D02*
X114100000Y-83750000D01*
X114500000Y-84350000D02*
X115050000Y-84350000D01*
X114500000Y-84750000D02*
X114500000Y-84350000D01*
X114900000Y-83750000D02*
X114500000Y-84350000D01*
%TO.C,D16*%
X168600000Y-66750000D02*
X169400000Y-66750000D01*
X169000000Y-66750000D02*
X169000000Y-66250000D01*
X169000000Y-67350000D02*
X168450000Y-67350000D01*
X169000000Y-67350000D02*
X168600000Y-66750000D01*
X169000000Y-67350000D02*
X169550000Y-67350000D01*
X169000000Y-67750000D02*
X169000000Y-67350000D01*
X169400000Y-66750000D02*
X169000000Y-67350000D01*
D13*
%TO.C,S8*%
X206900000Y-59200000D02*
X206900000Y-74400000D01*
X206900000Y-74400000D02*
X222100000Y-74400000D01*
X222100000Y-59200000D02*
X206900000Y-59200000D01*
X222100000Y-74400000D02*
X222100000Y-59200000D01*
D12*
%TO.C,D30*%
X187100000Y-101150000D02*
X187900000Y-101150000D01*
X187500000Y-101150000D02*
X187500000Y-100650000D01*
X187500000Y-101750000D02*
X186950000Y-101750000D01*
X187500000Y-101750000D02*
X187100000Y-101150000D01*
X187500000Y-101750000D02*
X188050000Y-101750000D01*
X187500000Y-102150000D02*
X187500000Y-101750000D01*
X187900000Y-101150000D02*
X187500000Y-101750000D01*
%TO.C,D19*%
X186850000Y-66750000D02*
X187650000Y-66750000D01*
X187250000Y-66750000D02*
X187250000Y-66250000D01*
X187250000Y-67350000D02*
X186700000Y-67350000D01*
X187250000Y-67350000D02*
X186850000Y-66750000D01*
X187250000Y-67350000D02*
X187800000Y-67350000D01*
X187250000Y-67750000D02*
X187250000Y-67350000D01*
X187650000Y-66750000D02*
X187250000Y-67350000D01*
D13*
%TO.C,S5*%
X152300000Y-59200000D02*
X152300000Y-74400000D01*
X152300000Y-74400000D02*
X167500000Y-74400000D01*
X167500000Y-59200000D02*
X152300000Y-59200000D01*
X167500000Y-74400000D02*
X167500000Y-59200000D01*
%TO.C,S19*%
X225100000Y-76400000D02*
X225100000Y-91600000D01*
X225100000Y-91600000D02*
X240300000Y-91600000D01*
X240300000Y-76400000D02*
X225100000Y-76400000D01*
X240300000Y-91600000D02*
X240300000Y-76400000D01*
D12*
%TO.C,D26*%
X241850000Y-83750000D02*
X242650000Y-83750000D01*
X242250000Y-83750000D02*
X242250000Y-83250000D01*
X242250000Y-84350000D02*
X241700000Y-84350000D01*
X242250000Y-84350000D02*
X241850000Y-83750000D01*
X242250000Y-84350000D02*
X242800000Y-84350000D01*
X242250000Y-84750000D02*
X242250000Y-84350000D01*
X242650000Y-83750000D02*
X242250000Y-84350000D01*
D13*
%TO.C,S27*%
X188700000Y-93600000D02*
X188700000Y-108800000D01*
X188700000Y-108800000D02*
X203900000Y-108800000D01*
X203900000Y-93600000D02*
X188700000Y-93600000D01*
X203900000Y-108800000D02*
X203900000Y-93600000D01*
%TO.C,S3*%
X115900000Y-59200000D02*
X115900000Y-74400000D01*
X115900000Y-74400000D02*
X131100000Y-74400000D01*
X131100000Y-59200000D02*
X115900000Y-59200000D01*
X131100000Y-74400000D02*
X131100000Y-59200000D01*
%TO.C,S12*%
X97650000Y-76400000D02*
X97650000Y-91600000D01*
X97650000Y-91600000D02*
X112850000Y-91600000D01*
X112850000Y-76400000D02*
X97650000Y-76400000D01*
X112850000Y-91600000D02*
X112850000Y-76400000D01*
%TO.C,S16*%
X170500000Y-76400000D02*
X170500000Y-91600000D01*
X170500000Y-91600000D02*
X185700000Y-91600000D01*
X185700000Y-76400000D02*
X170500000Y-76400000D01*
X185700000Y-91600000D02*
X185700000Y-76400000D01*
D12*
%TO.C,D23*%
X186850000Y-83750000D02*
X187650000Y-83750000D01*
X187250000Y-83750000D02*
X187250000Y-83250000D01*
X187250000Y-84350000D02*
X186700000Y-84350000D01*
X187250000Y-84350000D02*
X186850000Y-83750000D01*
X187250000Y-84350000D02*
X187800000Y-84350000D01*
X187250000Y-84750000D02*
X187250000Y-84350000D01*
X187650000Y-83750000D02*
X187250000Y-84350000D01*
%TO.C,D17*%
X168850000Y-83750000D02*
X169650000Y-83750000D01*
X169250000Y-83750000D02*
X169250000Y-83250000D01*
X169250000Y-84350000D02*
X168700000Y-84350000D01*
X169250000Y-84350000D02*
X168850000Y-83750000D01*
X169250000Y-84350000D02*
X169800000Y-84350000D01*
X169250000Y-84750000D02*
X169250000Y-84350000D01*
X169650000Y-83750000D02*
X169250000Y-84350000D01*
%TO.C,D15*%
X150600000Y-101150000D02*
X151400000Y-101150000D01*
X151000000Y-101150000D02*
X151000000Y-100650000D01*
X151000000Y-101750000D02*
X150450000Y-101750000D01*
X151000000Y-101750000D02*
X150600000Y-101150000D01*
X151000000Y-101750000D02*
X151550000Y-101750000D01*
X151000000Y-102150000D02*
X151000000Y-101750000D01*
X151400000Y-101150000D02*
X151000000Y-101750000D01*
%TO.C,D13*%
X150350000Y-66750000D02*
X151150000Y-66750000D01*
X150750000Y-66750000D02*
X150750000Y-66250000D01*
X150750000Y-67350000D02*
X150200000Y-67350000D01*
X150750000Y-67350000D02*
X150350000Y-66750000D01*
X150750000Y-67350000D02*
X151300000Y-67350000D01*
X150750000Y-67750000D02*
X150750000Y-67350000D01*
X151150000Y-66750000D02*
X150750000Y-67350000D01*
%TO.C,D1*%
X77350000Y-66750000D02*
X78150000Y-66750000D01*
X77750000Y-66750000D02*
X77750000Y-66250000D01*
X77750000Y-67350000D02*
X77200000Y-67350000D01*
X77750000Y-67350000D02*
X77350000Y-66750000D01*
X77750000Y-67350000D02*
X78300000Y-67350000D01*
X77750000Y-67750000D02*
X77750000Y-67350000D01*
X78150000Y-66750000D02*
X77750000Y-67350000D01*
%TO.C,D29*%
X205350000Y-101150000D02*
X206150000Y-101150000D01*
X205750000Y-101150000D02*
X205750000Y-100650000D01*
X205750000Y-101750000D02*
X205200000Y-101750000D01*
X205750000Y-101750000D02*
X205350000Y-101150000D01*
X205750000Y-101750000D02*
X206300000Y-101750000D01*
X205750000Y-102150000D02*
X205750000Y-101750000D01*
X206150000Y-101150000D02*
X205750000Y-101750000D01*
D13*
%TO.C,S1*%
X79400000Y-59150000D02*
X79400000Y-74350000D01*
X79400000Y-74350000D02*
X94600000Y-74350000D01*
X94600000Y-59150000D02*
X79400000Y-59150000D01*
X94600000Y-74350000D02*
X94600000Y-59150000D01*
%TO.C,S6*%
X170500000Y-59200000D02*
X170500000Y-74400000D01*
X170500000Y-74400000D02*
X185700000Y-74400000D01*
X185700000Y-59200000D02*
X170500000Y-59200000D01*
X185700000Y-74400000D02*
X185700000Y-59200000D01*
D12*
%TO.C,D5*%
X77600000Y-101250000D02*
X78400000Y-101250000D01*
X78000000Y-101250000D02*
X78000000Y-100750000D01*
X78000000Y-101850000D02*
X77450000Y-101850000D01*
X78000000Y-101850000D02*
X77600000Y-101250000D01*
X78000000Y-101850000D02*
X78550000Y-101850000D01*
X78000000Y-102250000D02*
X78000000Y-101850000D01*
X78400000Y-101250000D02*
X78000000Y-101850000D01*
%TO.C,D27*%
X241850000Y-101150000D02*
X242650000Y-101150000D01*
X242250000Y-101150000D02*
X242250000Y-100650000D01*
X242250000Y-101750000D02*
X241700000Y-101750000D01*
X242250000Y-101750000D02*
X241850000Y-101150000D01*
X242250000Y-101750000D02*
X242800000Y-101750000D01*
X242250000Y-102150000D02*
X242250000Y-101750000D01*
X242650000Y-101150000D02*
X242250000Y-101750000D01*
D13*
%TO.C,S28*%
X206900000Y-93600000D02*
X206900000Y-108800000D01*
X206900000Y-108800000D02*
X222100000Y-108800000D01*
X222100000Y-93600000D02*
X206900000Y-93600000D01*
X222100000Y-108800000D02*
X222100000Y-93600000D01*
D12*
%TO.C,D2*%
X95850000Y-66750000D02*
X96650000Y-66750000D01*
X96250000Y-66750000D02*
X96250000Y-66250000D01*
X96250000Y-67350000D02*
X95700000Y-67350000D01*
X96250000Y-67350000D02*
X95850000Y-66750000D01*
X96250000Y-67350000D02*
X96800000Y-67350000D01*
X96250000Y-67750000D02*
X96250000Y-67350000D01*
X96650000Y-66750000D02*
X96250000Y-67350000D01*
%TO.C,D6*%
X95600000Y-101150000D02*
X96400000Y-101150000D01*
X96000000Y-101150000D02*
X96000000Y-100650000D01*
X96000000Y-101750000D02*
X95450000Y-101750000D01*
X96000000Y-101750000D02*
X95600000Y-101150000D01*
X96000000Y-101750000D02*
X96550000Y-101750000D01*
X96000000Y-102150000D02*
X96000000Y-101750000D01*
X96400000Y-101150000D02*
X96000000Y-101750000D01*
%TO.C,D32*%
X170350000Y-113900000D02*
X170750000Y-113300000D01*
X170750000Y-112900000D02*
X170750000Y-113300000D01*
X170750000Y-113300000D02*
X170200000Y-113300000D01*
X170750000Y-113300000D02*
X171150000Y-113900000D01*
X170750000Y-113300000D02*
X171300000Y-113300000D01*
X170750000Y-113900000D02*
X170750000Y-114400000D01*
X171150000Y-113900000D02*
X170350000Y-113900000D01*
D11*
%TO.C,U1*%
X57210000Y-48020000D02*
X57210000Y-81040000D01*
X57210000Y-81040000D02*
X74990000Y-81040000D01*
X72450000Y-53100000D02*
X72450000Y-50560000D01*
X74990000Y-48020000D02*
X57210000Y-48020000D01*
X74990000Y-50560000D02*
X72450000Y-50560000D01*
X74990000Y-53100000D02*
X72450000Y-53100000D01*
X74990000Y-81040000D02*
X74990000Y-48020000D01*
D12*
X59855365Y-57249030D02*
X59755365Y-57249030D01*
X59755365Y-56449030D01*
X59855365Y-56449030D01*
X59855365Y-57249030D01*
G36*
X59855365Y-57249030D02*
G01*
X59755365Y-57249030D01*
X59755365Y-56449030D01*
X59855365Y-56449030D01*
X59855365Y-57249030D01*
G37*
X60055365Y-56949030D02*
X59955365Y-56949030D01*
X59955365Y-56849030D01*
X60055365Y-56849030D01*
X60055365Y-56949030D01*
G36*
X60055365Y-56949030D02*
G01*
X59955365Y-56949030D01*
X59955365Y-56849030D01*
X60055365Y-56849030D01*
X60055365Y-56949030D01*
G37*
X60255365Y-56549030D02*
X59755365Y-56549030D01*
X59755365Y-56449030D01*
X60255365Y-56449030D01*
X60255365Y-56549030D01*
G36*
X60255365Y-56549030D02*
G01*
X59755365Y-56549030D01*
X59755365Y-56449030D01*
X60255365Y-56449030D01*
X60255365Y-56549030D01*
G37*
X60255365Y-56749030D02*
X60155365Y-56749030D01*
X60155365Y-56449030D01*
X60255365Y-56449030D01*
X60255365Y-56749030D01*
G36*
X60255365Y-56749030D02*
G01*
X60155365Y-56749030D01*
X60155365Y-56449030D01*
X60255365Y-56449030D01*
X60255365Y-56749030D01*
G37*
X60255365Y-57249030D02*
X60155365Y-57249030D01*
X60155365Y-57049030D01*
X60255365Y-57049030D01*
X60255365Y-57249030D01*
G36*
X60255365Y-57249030D02*
G01*
X60155365Y-57249030D01*
X60155365Y-57049030D01*
X60255365Y-57049030D01*
X60255365Y-57249030D01*
G37*
%TD*%
D14*
%TO.C,U1*%
X73720000Y-51830000D03*
D15*
X73720000Y-54370000D03*
X73720000Y-56910000D03*
X73720000Y-59450000D03*
X73720000Y-61990000D03*
X73720000Y-64530000D03*
X73720000Y-67070000D03*
X73720000Y-69610000D03*
X73720000Y-72150000D03*
X73720000Y-74690000D03*
X73720000Y-77230000D03*
X73720000Y-79770000D03*
X58480000Y-79770000D03*
X58480000Y-77230000D03*
X58480000Y-74690000D03*
X58480000Y-72150000D03*
X58480000Y-69610000D03*
X58480000Y-67070000D03*
X58480000Y-64530000D03*
X58480000Y-61990000D03*
X58480000Y-59450000D03*
X58480000Y-56910000D03*
X58480000Y-54370000D03*
X58480000Y-51830000D03*
%TD*%
M02*
