%TF.GenerationSoftware,KiCad,Pcbnew,8.0.6*%
%TF.CreationDate,2025-04-17T08:46:25+02:00*%
%TF.ProjectId,KYBR_ORTHO,4b594252-5f4f-4525-9448-4f2e6b696361,rev?*%
%TF.SameCoordinates,Original*%
%TF.FileFunction,Soldermask,Bot*%
%TF.FilePolarity,Negative*%
%FSLAX46Y46*%
G04 Gerber Fmt 4.6, Leading zero omitted, Abs format (unit mm)*
G04 Created by KiCad (PCBNEW 8.0.6) date 2025-04-17 08:46:25*
%MOMM*%
%LPD*%
G01*
G04 APERTURE LIST*
%ADD10C,1.900000*%
%ADD11C,3.450000*%
%ADD12C,2.200000*%
%ADD13R,2.250000X2.250000*%
%ADD14C,2.250000*%
%ADD15R,1.752600X1.752600*%
%ADD16C,1.752600*%
G04 APERTURE END LIST*
D10*
%TO.C,S20*%
X245400000Y-84000000D03*
D11*
X250900000Y-84000000D03*
D10*
X256400000Y-84000000D03*
D12*
X250900000Y-78100000D03*
X255900000Y-80200000D03*
%TD*%
D13*
%TO.C,SW1*%
X62750000Y-84900000D03*
D14*
X69250000Y-84900000D03*
%TD*%
D10*
%TO.C,S24*%
X136200000Y-101200000D03*
D11*
X141700000Y-101200000D03*
D10*
X147200000Y-101200000D03*
D12*
X141700000Y-95300000D03*
X146700000Y-97400000D03*
%TD*%
D10*
%TO.C,S14*%
X136200000Y-84000000D03*
D11*
X141700000Y-84000000D03*
D10*
X147200000Y-84000000D03*
D12*
X141700000Y-78100000D03*
X146700000Y-80200000D03*
%TD*%
%TO.C,REF\u002A\u002A*%
X169000000Y-123600000D03*
%TD*%
%TO.C,REF\u002A\u002A*%
X114300000Y-92600000D03*
%TD*%
D10*
%TO.C,S22*%
X99750000Y-101200000D03*
D11*
X105250000Y-101200000D03*
D10*
X110750000Y-101200000D03*
D12*
X105250000Y-95300000D03*
X110250000Y-97400000D03*
%TD*%
D10*
%TO.C,S13*%
X118000000Y-84000000D03*
D11*
X123500000Y-84000000D03*
D10*
X129000000Y-84000000D03*
D12*
X123500000Y-78100000D03*
X128500000Y-80200000D03*
%TD*%
D10*
%TO.C,S4*%
X136200000Y-66800000D03*
D11*
X141700000Y-66800000D03*
D10*
X147200000Y-66800000D03*
D12*
X141700000Y-60900000D03*
X146700000Y-63000000D03*
%TD*%
D10*
%TO.C,S2*%
X99750000Y-66750000D03*
D11*
X105250000Y-66750000D03*
D10*
X110750000Y-66750000D03*
D12*
X105250000Y-60850000D03*
X110250000Y-62950000D03*
%TD*%
D10*
%TO.C,S23*%
X118000000Y-101200000D03*
D11*
X123500000Y-101200000D03*
D10*
X129000000Y-101200000D03*
D12*
X123500000Y-95300000D03*
X128500000Y-97400000D03*
%TD*%
D10*
%TO.C,S30*%
X245400000Y-101200000D03*
D11*
X250900000Y-101200000D03*
D10*
X256400000Y-101200000D03*
D12*
X250900000Y-95300000D03*
X255900000Y-97400000D03*
%TD*%
D10*
%TO.C,S32*%
X177100000Y-118400000D03*
D11*
X182600000Y-118400000D03*
D10*
X188100000Y-118400000D03*
D12*
X182600000Y-112500000D03*
X187600000Y-114600000D03*
%TD*%
D10*
%TO.C,S18*%
X209000000Y-84000000D03*
D11*
X214500000Y-84000000D03*
D10*
X220000000Y-84000000D03*
D12*
X214500000Y-78100000D03*
X219500000Y-80200000D03*
%TD*%
%TO.C,REF\u002A\u002A*%
X223600000Y-75400000D03*
%TD*%
D10*
%TO.C,S26*%
X172600000Y-101200000D03*
D11*
X178100000Y-101200000D03*
D10*
X183600000Y-101200000D03*
D12*
X178100000Y-95300000D03*
X183100000Y-97400000D03*
%TD*%
D10*
%TO.C,S11*%
X81500000Y-84050000D03*
D11*
X87000000Y-84050000D03*
D10*
X92500000Y-84050000D03*
D12*
X87000000Y-78150000D03*
X92000000Y-80250000D03*
%TD*%
D10*
%TO.C,S21*%
X81500000Y-101200000D03*
D11*
X87000000Y-101200000D03*
D10*
X92500000Y-101200000D03*
D12*
X87000000Y-95300000D03*
X92000000Y-97400000D03*
%TD*%
D10*
%TO.C,S10*%
X245400000Y-66800000D03*
D11*
X250900000Y-66800000D03*
D10*
X256400000Y-66800000D03*
D12*
X250900000Y-60900000D03*
X255900000Y-63000000D03*
%TD*%
%TO.C,REF\u002A\u002A*%
X114400000Y-75400000D03*
%TD*%
%TO.C,REF\u002A\u002A*%
X57500000Y-92100000D03*
%TD*%
%TO.C,REF\u002A\u002A*%
X83500000Y-121800000D03*
%TD*%
%TO.C,REF\u002A\u002A*%
X169100000Y-75400000D03*
%TD*%
D10*
%TO.C,S25*%
X154400000Y-101200000D03*
D11*
X159900000Y-101200000D03*
D10*
X165400000Y-101200000D03*
D12*
X159900000Y-95300000D03*
X164900000Y-97400000D03*
%TD*%
D10*
%TO.C,S17*%
X190800000Y-84000000D03*
D11*
X196300000Y-84000000D03*
D10*
X201800000Y-84000000D03*
D12*
X196300000Y-78100000D03*
X201300000Y-80200000D03*
%TD*%
D10*
%TO.C,S9*%
X227200000Y-66800000D03*
D11*
X232700000Y-66800000D03*
D10*
X238200000Y-66800000D03*
D12*
X232700000Y-60900000D03*
X237700000Y-63000000D03*
%TD*%
D10*
%TO.C,S7*%
X190800000Y-66800000D03*
D11*
X196300000Y-66800000D03*
D10*
X201800000Y-66800000D03*
D12*
X196300000Y-60900000D03*
X201300000Y-63000000D03*
%TD*%
D10*
%TO.C,S29*%
X227200000Y-101200000D03*
D11*
X232700000Y-101200000D03*
D10*
X238200000Y-101200000D03*
D12*
X232700000Y-95300000D03*
X237700000Y-97400000D03*
%TD*%
%TO.C,REF\u002A\u002A*%
X259500000Y-57900000D03*
%TD*%
D10*
%TO.C,S31*%
X149900000Y-118400000D03*
D11*
X155400000Y-118400000D03*
D10*
X160900000Y-118400000D03*
D12*
X155400000Y-112500000D03*
X160400000Y-114600000D03*
%TD*%
D10*
%TO.C,S15*%
X154400000Y-84000000D03*
D11*
X159900000Y-84000000D03*
D10*
X165400000Y-84000000D03*
D12*
X159900000Y-78100000D03*
X164900000Y-80200000D03*
%TD*%
D10*
%TO.C,S8*%
X209000000Y-66800000D03*
D11*
X214500000Y-66800000D03*
D10*
X220000000Y-66800000D03*
D12*
X214500000Y-60900000D03*
X219500000Y-63000000D03*
%TD*%
%TO.C,REF\u002A\u002A*%
X223800000Y-92800000D03*
%TD*%
D10*
%TO.C,S5*%
X154400000Y-66800000D03*
D11*
X159900000Y-66800000D03*
D10*
X165400000Y-66800000D03*
D12*
X159900000Y-60900000D03*
X164900000Y-63000000D03*
%TD*%
D10*
%TO.C,S19*%
X227200000Y-84000000D03*
D11*
X232700000Y-84000000D03*
D10*
X238200000Y-84000000D03*
D12*
X232700000Y-78100000D03*
X237700000Y-80200000D03*
%TD*%
D10*
%TO.C,S27*%
X190800000Y-101200000D03*
D11*
X196300000Y-101200000D03*
D10*
X201800000Y-101200000D03*
D12*
X196300000Y-95300000D03*
X201300000Y-97400000D03*
%TD*%
D10*
%TO.C,S3*%
X118000000Y-66800000D03*
D11*
X123500000Y-66800000D03*
D10*
X129000000Y-66800000D03*
D12*
X123500000Y-60900000D03*
X128500000Y-63000000D03*
%TD*%
D10*
%TO.C,S12*%
X99750000Y-84000000D03*
D11*
X105250000Y-84000000D03*
D10*
X110750000Y-84000000D03*
D12*
X105250000Y-78100000D03*
X110250000Y-80200000D03*
%TD*%
D10*
%TO.C,S16*%
X172600000Y-84000000D03*
D11*
X178100000Y-84000000D03*
D10*
X183600000Y-84000000D03*
D12*
X178100000Y-78100000D03*
X183100000Y-80200000D03*
%TD*%
%TO.C,REF\u002A\u002A*%
X71800000Y-99200000D03*
%TD*%
%TO.C,REF\u002A\u002A*%
X104400000Y-52700000D03*
%TD*%
D10*
%TO.C,S1*%
X81500000Y-66750000D03*
D11*
X87000000Y-66750000D03*
D10*
X92500000Y-66750000D03*
D12*
X87000000Y-60850000D03*
X92000000Y-62950000D03*
%TD*%
D10*
%TO.C,S6*%
X172600000Y-66800000D03*
D11*
X178100000Y-66800000D03*
D10*
X183600000Y-66800000D03*
D12*
X178100000Y-60900000D03*
X183100000Y-63000000D03*
%TD*%
D10*
%TO.C,S28*%
X209000000Y-101200000D03*
D11*
X214500000Y-101200000D03*
D10*
X220000000Y-101200000D03*
D12*
X214500000Y-95300000D03*
X219500000Y-97400000D03*
%TD*%
%TO.C,REF\u002A\u002A*%
X55800000Y-50300000D03*
%TD*%
D15*
%TO.C,U1*%
X73720000Y-51830000D03*
D16*
X73720000Y-54370000D03*
X73720000Y-56910000D03*
X73720000Y-59450000D03*
X73720000Y-61990000D03*
X73720000Y-64530000D03*
X73720000Y-67070000D03*
X73720000Y-69610000D03*
X73720000Y-72150000D03*
X73720000Y-74690000D03*
X73720000Y-77230000D03*
X73720000Y-79770000D03*
X58480000Y-79770000D03*
X58480000Y-77230000D03*
X58480000Y-74690000D03*
X58480000Y-72150000D03*
X58480000Y-69610000D03*
X58480000Y-67070000D03*
X58480000Y-64530000D03*
X58480000Y-61990000D03*
X58480000Y-59450000D03*
X58480000Y-56910000D03*
X58480000Y-54370000D03*
X58480000Y-51830000D03*
%TD*%
M02*
