%TF.GenerationSoftware,KiCad,Pcbnew,8.0.6*%
%TF.CreationDate,2025-04-17T08:55:33+02:00*%
%TF.ProjectId,KYBR_ORTHO_BOTTOM,4b594252-5f4f-4525-9448-4f5f424f5454,rev?*%
%TF.SameCoordinates,Original*%
%TF.FileFunction,Legend,Bot*%
%TF.FilePolarity,Positive*%
%FSLAX46Y46*%
G04 Gerber Fmt 4.6, Leading zero omitted, Abs format (unit mm)*
G04 Created by KiCad (PCBNEW 8.0.6) date 2025-04-17 08:55:33*
%MOMM*%
%LPD*%
G01*
G04 APERTURE LIST*
%ADD10C,7.833315*%
%ADD11C,0.500000*%
%ADD12C,18.302671*%
G04 APERTURE END LIST*
D10*
X136916657Y-91200000D02*
G75*
G02*
X129083343Y-91200000I-3916657J0D01*
G01*
X129083343Y-91200000D02*
G75*
G02*
X136916657Y-91200000I3916657J0D01*
G01*
D11*
X143261579Y-91200000D02*
G75*
G02*
X122738421Y-91200000I-10261579J0D01*
G01*
X122738421Y-91200000D02*
G75*
G02*
X143261579Y-91200000I10261579J0D01*
G01*
X91278241Y-51881975D02*
G75*
G02*
X75700000Y-92899998I-11978241J-18918025D01*
G01*
D12*
X88451335Y-70800000D02*
G75*
G02*
X70148665Y-70800000I-9151335J0D01*
G01*
X70148665Y-70800000D02*
G75*
G02*
X88451335Y-70800000I9151335J0D01*
G01*
D11*
X133000000Y-91200000D02*
X79300000Y-70800000D01*
X211003587Y-91200000D02*
G75*
G02*
X179196413Y-91200000I-15903587J0D01*
G01*
X179196413Y-91200000D02*
G75*
G02*
X211003587Y-91200000I15903587J0D01*
G01*
X224587794Y-91200000D02*
X133000000Y-91200000D01*
X254075588Y-91200000D02*
G75*
G02*
X195100000Y-91200000I-29487794J0D01*
G01*
X195100000Y-91200000D02*
G75*
G02*
X254075588Y-91200000I29487794J0D01*
G01*
X202552005Y-126927809D02*
X202552005Y-115927809D01*
X196266291Y-126927809D02*
X200980576Y-120642095D01*
X196266291Y-115927809D02*
X202552005Y-122213523D01*
X189456767Y-121689714D02*
X189456767Y-126927809D01*
X193123433Y-115927809D02*
X189456767Y-121689714D01*
X189456767Y-121689714D02*
X185790100Y-115927809D01*
X178456767Y-121165904D02*
X176885339Y-121689714D01*
X176885339Y-121689714D02*
X176361529Y-122213523D01*
X176361529Y-122213523D02*
X175837720Y-123261142D01*
X175837720Y-123261142D02*
X175837720Y-124832571D01*
X175837720Y-124832571D02*
X176361529Y-125880190D01*
X176361529Y-125880190D02*
X176885339Y-126404000D01*
X176885339Y-126404000D02*
X177932958Y-126927809D01*
X177932958Y-126927809D02*
X182123434Y-126927809D01*
X182123434Y-126927809D02*
X182123434Y-115927809D01*
X182123434Y-115927809D02*
X178456767Y-115927809D01*
X178456767Y-115927809D02*
X177409148Y-116451619D01*
X177409148Y-116451619D02*
X176885339Y-116975428D01*
X176885339Y-116975428D02*
X176361529Y-118023047D01*
X176361529Y-118023047D02*
X176361529Y-119070666D01*
X176361529Y-119070666D02*
X176885339Y-120118285D01*
X176885339Y-120118285D02*
X177409148Y-120642095D01*
X177409148Y-120642095D02*
X178456767Y-121165904D01*
X178456767Y-121165904D02*
X182123434Y-121165904D01*
X172171053Y-115927809D02*
X165361529Y-115927809D01*
X165361529Y-115927809D02*
X169028196Y-120118285D01*
X169028196Y-120118285D02*
X167456767Y-120118285D01*
X167456767Y-120118285D02*
X166409148Y-120642095D01*
X166409148Y-120642095D02*
X165885339Y-121165904D01*
X165885339Y-121165904D02*
X165361529Y-122213523D01*
X165361529Y-122213523D02*
X165361529Y-124832571D01*
X165361529Y-124832571D02*
X165885339Y-125880190D01*
X165885339Y-125880190D02*
X166409148Y-126404000D01*
X166409148Y-126404000D02*
X167456767Y-126927809D01*
X167456767Y-126927809D02*
X170599624Y-126927809D01*
X170599624Y-126927809D02*
X171647243Y-126404000D01*
X171647243Y-126404000D02*
X172171053Y-125880190D01*
X154361530Y-126927809D02*
X158028196Y-121689714D01*
X160647244Y-126927809D02*
X160647244Y-115927809D01*
X160647244Y-115927809D02*
X156456768Y-115927809D01*
X156456768Y-115927809D02*
X155409149Y-116451619D01*
X155409149Y-116451619D02*
X154885339Y-116975428D01*
X154885339Y-116975428D02*
X154361530Y-118023047D01*
X154361530Y-118023047D02*
X154361530Y-119594476D01*
X154361530Y-119594476D02*
X154885339Y-120642095D01*
X154885339Y-120642095D02*
X155409149Y-121165904D01*
X155409149Y-121165904D02*
X156456768Y-121689714D01*
X156456768Y-121689714D02*
X160647244Y-121689714D01*
X149647244Y-125880190D02*
X149123434Y-126404000D01*
X149123434Y-126404000D02*
X149647244Y-126927809D01*
X149647244Y-126927809D02*
X150171053Y-126404000D01*
X150171053Y-126404000D02*
X149647244Y-125880190D01*
X149647244Y-125880190D02*
X149647244Y-126927809D01*
X142313911Y-115927809D02*
X140218673Y-115927809D01*
X140218673Y-115927809D02*
X139171054Y-116451619D01*
X139171054Y-116451619D02*
X138123435Y-117499238D01*
X138123435Y-117499238D02*
X137599625Y-119594476D01*
X137599625Y-119594476D02*
X137599625Y-123261142D01*
X137599625Y-123261142D02*
X138123435Y-125356380D01*
X138123435Y-125356380D02*
X139171054Y-126404000D01*
X139171054Y-126404000D02*
X140218673Y-126927809D01*
X140218673Y-126927809D02*
X142313911Y-126927809D01*
X142313911Y-126927809D02*
X143361530Y-126404000D01*
X143361530Y-126404000D02*
X144409149Y-125356380D01*
X144409149Y-125356380D02*
X144932958Y-123261142D01*
X144932958Y-123261142D02*
X144932958Y-119594476D01*
X144932958Y-119594476D02*
X144409149Y-117499238D01*
X144409149Y-117499238D02*
X143361530Y-116451619D01*
X143361530Y-116451619D02*
X142313911Y-115927809D01*
X126599625Y-126927809D02*
X130266291Y-121689714D01*
X132885339Y-126927809D02*
X132885339Y-115927809D01*
X132885339Y-115927809D02*
X128694863Y-115927809D01*
X128694863Y-115927809D02*
X127647244Y-116451619D01*
X127647244Y-116451619D02*
X127123434Y-116975428D01*
X127123434Y-116975428D02*
X126599625Y-118023047D01*
X126599625Y-118023047D02*
X126599625Y-119594476D01*
X126599625Y-119594476D02*
X127123434Y-120642095D01*
X127123434Y-120642095D02*
X127647244Y-121165904D01*
X127647244Y-121165904D02*
X128694863Y-121689714D01*
X128694863Y-121689714D02*
X132885339Y-121689714D01*
X123456767Y-115927809D02*
X117171053Y-115927809D01*
X120313910Y-126927809D02*
X120313910Y-115927809D01*
X113504387Y-126927809D02*
X113504387Y-115927809D01*
X113504387Y-121165904D02*
X107218673Y-121165904D01*
X107218673Y-126927809D02*
X107218673Y-115927809D01*
X99885339Y-115927809D02*
X97790101Y-115927809D01*
X97790101Y-115927809D02*
X96742482Y-116451619D01*
X96742482Y-116451619D02*
X95694863Y-117499238D01*
X95694863Y-117499238D02*
X95171053Y-119594476D01*
X95171053Y-119594476D02*
X95171053Y-123261142D01*
X95171053Y-123261142D02*
X95694863Y-125356380D01*
X95694863Y-125356380D02*
X96742482Y-126404000D01*
X96742482Y-126404000D02*
X97790101Y-126927809D01*
X97790101Y-126927809D02*
X99885339Y-126927809D01*
X99885339Y-126927809D02*
X100932958Y-126404000D01*
X100932958Y-126404000D02*
X101980577Y-125356380D01*
X101980577Y-125356380D02*
X102504386Y-123261142D01*
X102504386Y-123261142D02*
X102504386Y-119594476D01*
X102504386Y-119594476D02*
X101980577Y-117499238D01*
X101980577Y-117499238D02*
X100932958Y-116451619D01*
X100932958Y-116451619D02*
X99885339Y-115927809D01*
M02*
