%TF.GenerationSoftware,KiCad,Pcbnew,8.0.6*%
%TF.CreationDate,2025-04-17T08:46:25+02:00*%
%TF.ProjectId,KYBR_ORTHO,4b594252-5f4f-4525-9448-4f2e6b696361,rev?*%
%TF.SameCoordinates,Original*%
%TF.FileFunction,Legend,Bot*%
%TF.FilePolarity,Positive*%
%FSLAX46Y46*%
G04 Gerber Fmt 4.6, Leading zero omitted, Abs format (unit mm)*
G04 Created by KiCad (PCBNEW 8.0.6) date 2025-04-17 08:46:25*
%MOMM*%
%LPD*%
G01*
G04 APERTURE LIST*
%ADD10C,0.150000*%
%ADD11C,0.200000*%
%ADD12R,1.752600X1.752600*%
%ADD13C,1.752600*%
G04 APERTURE END LIST*
D10*
X60905666Y-67013247D02*
X61172332Y-67013247D01*
X61172332Y-67432295D02*
X61172332Y-66632295D01*
X61172332Y-66632295D02*
X60791380Y-66632295D01*
X60143761Y-66632295D02*
X60296142Y-66632295D01*
X60296142Y-66632295D02*
X60372333Y-66670390D01*
X60372333Y-66670390D02*
X60410428Y-66708485D01*
X60410428Y-66708485D02*
X60486618Y-66822771D01*
X60486618Y-66822771D02*
X60524714Y-66975152D01*
X60524714Y-66975152D02*
X60524714Y-67279914D01*
X60524714Y-67279914D02*
X60486618Y-67356104D01*
X60486618Y-67356104D02*
X60448523Y-67394200D01*
X60448523Y-67394200D02*
X60372333Y-67432295D01*
X60372333Y-67432295D02*
X60219952Y-67432295D01*
X60219952Y-67432295D02*
X60143761Y-67394200D01*
X60143761Y-67394200D02*
X60105666Y-67356104D01*
X60105666Y-67356104D02*
X60067571Y-67279914D01*
X60067571Y-67279914D02*
X60067571Y-67089438D01*
X60067571Y-67089438D02*
X60105666Y-67013247D01*
X60105666Y-67013247D02*
X60143761Y-66975152D01*
X60143761Y-66975152D02*
X60219952Y-66937057D01*
X60219952Y-66937057D02*
X60372333Y-66937057D01*
X60372333Y-66937057D02*
X60448523Y-66975152D01*
X60448523Y-66975152D02*
X60486618Y-67013247D01*
X60486618Y-67013247D02*
X60524714Y-67089438D01*
X60905666Y-64473247D02*
X61172332Y-64473247D01*
X61172332Y-64892295D02*
X61172332Y-64092295D01*
X61172332Y-64092295D02*
X60791380Y-64092295D01*
X60105666Y-64092295D02*
X60486618Y-64092295D01*
X60486618Y-64092295D02*
X60524714Y-64473247D01*
X60524714Y-64473247D02*
X60486618Y-64435152D01*
X60486618Y-64435152D02*
X60410428Y-64397057D01*
X60410428Y-64397057D02*
X60219952Y-64397057D01*
X60219952Y-64397057D02*
X60143761Y-64435152D01*
X60143761Y-64435152D02*
X60105666Y-64473247D01*
X60105666Y-64473247D02*
X60067571Y-64549438D01*
X60067571Y-64549438D02*
X60067571Y-64739914D01*
X60067571Y-64739914D02*
X60105666Y-64816104D01*
X60105666Y-64816104D02*
X60143761Y-64854200D01*
X60143761Y-64854200D02*
X60219952Y-64892295D01*
X60219952Y-64892295D02*
X60410428Y-64892295D01*
X60410428Y-64892295D02*
X60486618Y-64854200D01*
X60486618Y-64854200D02*
X60524714Y-64816104D01*
X60962809Y-72093247D02*
X60848523Y-72131342D01*
X60848523Y-72131342D02*
X60810428Y-72169438D01*
X60810428Y-72169438D02*
X60772332Y-72245628D01*
X60772332Y-72245628D02*
X60772332Y-72359914D01*
X60772332Y-72359914D02*
X60810428Y-72436104D01*
X60810428Y-72436104D02*
X60848523Y-72474200D01*
X60848523Y-72474200D02*
X60924713Y-72512295D01*
X60924713Y-72512295D02*
X61229475Y-72512295D01*
X61229475Y-72512295D02*
X61229475Y-71712295D01*
X61229475Y-71712295D02*
X60962809Y-71712295D01*
X60962809Y-71712295D02*
X60886618Y-71750390D01*
X60886618Y-71750390D02*
X60848523Y-71788485D01*
X60848523Y-71788485D02*
X60810428Y-71864676D01*
X60810428Y-71864676D02*
X60810428Y-71940866D01*
X60810428Y-71940866D02*
X60848523Y-72017057D01*
X60848523Y-72017057D02*
X60886618Y-72055152D01*
X60886618Y-72055152D02*
X60962809Y-72093247D01*
X60962809Y-72093247D02*
X61229475Y-72093247D01*
X60010428Y-72512295D02*
X60467571Y-72512295D01*
X60238999Y-72512295D02*
X60238999Y-71712295D01*
X60238999Y-71712295D02*
X60315190Y-71826580D01*
X60315190Y-71826580D02*
X60391380Y-71902771D01*
X60391380Y-71902771D02*
X60467571Y-71940866D01*
X71862348Y-51392295D02*
X71405205Y-51392295D01*
X71633777Y-52192295D02*
X71633777Y-51392295D01*
X71214729Y-51392295D02*
X70681395Y-52192295D01*
X70681395Y-51392295D02*
X71214729Y-52192295D01*
X70224252Y-51392295D02*
X70148062Y-51392295D01*
X70148062Y-51392295D02*
X70071871Y-51430390D01*
X70071871Y-51430390D02*
X70033776Y-51468485D01*
X70033776Y-51468485D02*
X69995681Y-51544676D01*
X69995681Y-51544676D02*
X69957586Y-51697057D01*
X69957586Y-51697057D02*
X69957586Y-51887533D01*
X69957586Y-51887533D02*
X69995681Y-52039914D01*
X69995681Y-52039914D02*
X70033776Y-52116104D01*
X70033776Y-52116104D02*
X70071871Y-52154200D01*
X70071871Y-52154200D02*
X70148062Y-52192295D01*
X70148062Y-52192295D02*
X70224252Y-52192295D01*
X70224252Y-52192295D02*
X70300443Y-52154200D01*
X70300443Y-52154200D02*
X70338538Y-52116104D01*
X70338538Y-52116104D02*
X70376633Y-52039914D01*
X70376633Y-52039914D02*
X70414729Y-51887533D01*
X70414729Y-51887533D02*
X70414729Y-51697057D01*
X70414729Y-51697057D02*
X70376633Y-51544676D01*
X70376633Y-51544676D02*
X70338538Y-51468485D01*
X70338538Y-51468485D02*
X70300443Y-51430390D01*
X70300443Y-51430390D02*
X70224252Y-51392295D01*
X69043300Y-51354200D02*
X69729014Y-52382771D01*
X68776633Y-52192295D02*
X68776633Y-51392295D01*
X68776633Y-51392295D02*
X68586157Y-51392295D01*
X68586157Y-51392295D02*
X68471871Y-51430390D01*
X68471871Y-51430390D02*
X68395681Y-51506580D01*
X68395681Y-51506580D02*
X68357586Y-51582771D01*
X68357586Y-51582771D02*
X68319490Y-51735152D01*
X68319490Y-51735152D02*
X68319490Y-51849438D01*
X68319490Y-51849438D02*
X68357586Y-52001819D01*
X68357586Y-52001819D02*
X68395681Y-52078009D01*
X68395681Y-52078009D02*
X68471871Y-52154200D01*
X68471871Y-52154200D02*
X68586157Y-52192295D01*
X68586157Y-52192295D02*
X68776633Y-52192295D01*
X68052824Y-51392295D02*
X67557586Y-51392295D01*
X67557586Y-51392295D02*
X67824252Y-51697057D01*
X67824252Y-51697057D02*
X67709967Y-51697057D01*
X67709967Y-51697057D02*
X67633776Y-51735152D01*
X67633776Y-51735152D02*
X67595681Y-51773247D01*
X67595681Y-51773247D02*
X67557586Y-51849438D01*
X67557586Y-51849438D02*
X67557586Y-52039914D01*
X67557586Y-52039914D02*
X67595681Y-52116104D01*
X67595681Y-52116104D02*
X67633776Y-52154200D01*
X67633776Y-52154200D02*
X67709967Y-52192295D01*
X67709967Y-52192295D02*
X67938538Y-52192295D01*
X67938538Y-52192295D02*
X68014729Y-52154200D01*
X68014729Y-52154200D02*
X68052824Y-52116104D01*
X60962809Y-74633247D02*
X60848523Y-74671342D01*
X60848523Y-74671342D02*
X60810428Y-74709438D01*
X60810428Y-74709438D02*
X60772332Y-74785628D01*
X60772332Y-74785628D02*
X60772332Y-74899914D01*
X60772332Y-74899914D02*
X60810428Y-74976104D01*
X60810428Y-74976104D02*
X60848523Y-75014200D01*
X60848523Y-75014200D02*
X60924713Y-75052295D01*
X60924713Y-75052295D02*
X61229475Y-75052295D01*
X61229475Y-75052295D02*
X61229475Y-74252295D01*
X61229475Y-74252295D02*
X60962809Y-74252295D01*
X60962809Y-74252295D02*
X60886618Y-74290390D01*
X60886618Y-74290390D02*
X60848523Y-74328485D01*
X60848523Y-74328485D02*
X60810428Y-74404676D01*
X60810428Y-74404676D02*
X60810428Y-74480866D01*
X60810428Y-74480866D02*
X60848523Y-74557057D01*
X60848523Y-74557057D02*
X60886618Y-74595152D01*
X60886618Y-74595152D02*
X60962809Y-74633247D01*
X60962809Y-74633247D02*
X61229475Y-74633247D01*
X60505666Y-74252295D02*
X60010428Y-74252295D01*
X60010428Y-74252295D02*
X60277094Y-74557057D01*
X60277094Y-74557057D02*
X60162809Y-74557057D01*
X60162809Y-74557057D02*
X60086618Y-74595152D01*
X60086618Y-74595152D02*
X60048523Y-74633247D01*
X60048523Y-74633247D02*
X60010428Y-74709438D01*
X60010428Y-74709438D02*
X60010428Y-74899914D01*
X60010428Y-74899914D02*
X60048523Y-74976104D01*
X60048523Y-74976104D02*
X60086618Y-75014200D01*
X60086618Y-75014200D02*
X60162809Y-75052295D01*
X60162809Y-75052295D02*
X60391380Y-75052295D01*
X60391380Y-75052295D02*
X60467571Y-75014200D01*
X60467571Y-75014200D02*
X60505666Y-74976104D01*
X60962809Y-77173247D02*
X60848523Y-77211342D01*
X60848523Y-77211342D02*
X60810428Y-77249438D01*
X60810428Y-77249438D02*
X60772332Y-77325628D01*
X60772332Y-77325628D02*
X60772332Y-77439914D01*
X60772332Y-77439914D02*
X60810428Y-77516104D01*
X60810428Y-77516104D02*
X60848523Y-77554200D01*
X60848523Y-77554200D02*
X60924713Y-77592295D01*
X60924713Y-77592295D02*
X61229475Y-77592295D01*
X61229475Y-77592295D02*
X61229475Y-76792295D01*
X61229475Y-76792295D02*
X60962809Y-76792295D01*
X60962809Y-76792295D02*
X60886618Y-76830390D01*
X60886618Y-76830390D02*
X60848523Y-76868485D01*
X60848523Y-76868485D02*
X60810428Y-76944676D01*
X60810428Y-76944676D02*
X60810428Y-77020866D01*
X60810428Y-77020866D02*
X60848523Y-77097057D01*
X60848523Y-77097057D02*
X60886618Y-77135152D01*
X60886618Y-77135152D02*
X60962809Y-77173247D01*
X60962809Y-77173247D02*
X61229475Y-77173247D01*
X60467571Y-76868485D02*
X60429475Y-76830390D01*
X60429475Y-76830390D02*
X60353285Y-76792295D01*
X60353285Y-76792295D02*
X60162809Y-76792295D01*
X60162809Y-76792295D02*
X60086618Y-76830390D01*
X60086618Y-76830390D02*
X60048523Y-76868485D01*
X60048523Y-76868485D02*
X60010428Y-76944676D01*
X60010428Y-76944676D02*
X60010428Y-77020866D01*
X60010428Y-77020866D02*
X60048523Y-77135152D01*
X60048523Y-77135152D02*
X60505666Y-77592295D01*
X60505666Y-77592295D02*
X60010428Y-77592295D01*
X61191380Y-52192295D02*
X61458047Y-51811342D01*
X61648523Y-52192295D02*
X61648523Y-51392295D01*
X61648523Y-51392295D02*
X61343761Y-51392295D01*
X61343761Y-51392295D02*
X61267571Y-51430390D01*
X61267571Y-51430390D02*
X61229476Y-51468485D01*
X61229476Y-51468485D02*
X61191380Y-51544676D01*
X61191380Y-51544676D02*
X61191380Y-51658961D01*
X61191380Y-51658961D02*
X61229476Y-51735152D01*
X61229476Y-51735152D02*
X61267571Y-51773247D01*
X61267571Y-51773247D02*
X61343761Y-51811342D01*
X61343761Y-51811342D02*
X61648523Y-51811342D01*
X60886619Y-51963723D02*
X60505666Y-51963723D01*
X60962809Y-52192295D02*
X60696142Y-51392295D01*
X60696142Y-51392295D02*
X60429476Y-52192295D01*
X60239000Y-51392295D02*
X60048524Y-52192295D01*
X60048524Y-52192295D02*
X59896143Y-51620866D01*
X59896143Y-51620866D02*
X59743762Y-52192295D01*
X59743762Y-52192295D02*
X59553286Y-51392295D01*
X60900213Y-57204200D02*
X60785927Y-57242295D01*
X60785927Y-57242295D02*
X60595451Y-57242295D01*
X60595451Y-57242295D02*
X60519260Y-57204200D01*
X60519260Y-57204200D02*
X60481165Y-57166104D01*
X60481165Y-57166104D02*
X60443070Y-57089914D01*
X60443070Y-57089914D02*
X60443070Y-57013723D01*
X60443070Y-57013723D02*
X60481165Y-56937533D01*
X60481165Y-56937533D02*
X60519260Y-56899438D01*
X60519260Y-56899438D02*
X60595451Y-56861342D01*
X60595451Y-56861342D02*
X60747832Y-56823247D01*
X60747832Y-56823247D02*
X60824022Y-56785152D01*
X60824022Y-56785152D02*
X60862117Y-56747057D01*
X60862117Y-56747057D02*
X60900213Y-56670866D01*
X60900213Y-56670866D02*
X60900213Y-56594676D01*
X60900213Y-56594676D02*
X60862117Y-56518485D01*
X60862117Y-56518485D02*
X60824022Y-56480390D01*
X60824022Y-56480390D02*
X60747832Y-56442295D01*
X60747832Y-56442295D02*
X60557355Y-56442295D01*
X60557355Y-56442295D02*
X60443070Y-56480390D01*
X60214498Y-56442295D02*
X59757355Y-56442295D01*
X59985927Y-57242295D02*
X59985927Y-56442295D01*
X72170523Y-59050390D02*
X72246713Y-59012295D01*
X72246713Y-59012295D02*
X72360999Y-59012295D01*
X72360999Y-59012295D02*
X72475285Y-59050390D01*
X72475285Y-59050390D02*
X72551475Y-59126580D01*
X72551475Y-59126580D02*
X72589570Y-59202771D01*
X72589570Y-59202771D02*
X72627666Y-59355152D01*
X72627666Y-59355152D02*
X72627666Y-59469438D01*
X72627666Y-59469438D02*
X72589570Y-59621819D01*
X72589570Y-59621819D02*
X72551475Y-59698009D01*
X72551475Y-59698009D02*
X72475285Y-59774200D01*
X72475285Y-59774200D02*
X72360999Y-59812295D01*
X72360999Y-59812295D02*
X72284808Y-59812295D01*
X72284808Y-59812295D02*
X72170523Y-59774200D01*
X72170523Y-59774200D02*
X72132427Y-59736104D01*
X72132427Y-59736104D02*
X72132427Y-59469438D01*
X72132427Y-59469438D02*
X72284808Y-59469438D01*
X71789570Y-59812295D02*
X71789570Y-59012295D01*
X71789570Y-59012295D02*
X71332427Y-59812295D01*
X71332427Y-59812295D02*
X71332427Y-59012295D01*
X70951475Y-59812295D02*
X70951475Y-59012295D01*
X70951475Y-59012295D02*
X70760999Y-59012295D01*
X70760999Y-59012295D02*
X70646713Y-59050390D01*
X70646713Y-59050390D02*
X70570523Y-59126580D01*
X70570523Y-59126580D02*
X70532428Y-59202771D01*
X70532428Y-59202771D02*
X70494332Y-59355152D01*
X70494332Y-59355152D02*
X70494332Y-59469438D01*
X70494332Y-59469438D02*
X70532428Y-59621819D01*
X70532428Y-59621819D02*
X70570523Y-59698009D01*
X70570523Y-59698009D02*
X70646713Y-59774200D01*
X70646713Y-59774200D02*
X70760999Y-59812295D01*
X70760999Y-59812295D02*
X70951475Y-59812295D01*
X72151475Y-62352295D02*
X72151475Y-61552295D01*
X72151475Y-61552295D02*
X71960999Y-61552295D01*
X71960999Y-61552295D02*
X71846713Y-61590390D01*
X71846713Y-61590390D02*
X71770523Y-61666580D01*
X71770523Y-61666580D02*
X71732428Y-61742771D01*
X71732428Y-61742771D02*
X71694332Y-61895152D01*
X71694332Y-61895152D02*
X71694332Y-62009438D01*
X71694332Y-62009438D02*
X71732428Y-62161819D01*
X71732428Y-62161819D02*
X71770523Y-62238009D01*
X71770523Y-62238009D02*
X71846713Y-62314200D01*
X71846713Y-62314200D02*
X71960999Y-62352295D01*
X71960999Y-62352295D02*
X72151475Y-62352295D01*
X70932428Y-62352295D02*
X71389571Y-62352295D01*
X71160999Y-62352295D02*
X71160999Y-61552295D01*
X71160999Y-61552295D02*
X71237190Y-61666580D01*
X71237190Y-61666580D02*
X71313380Y-61742771D01*
X71313380Y-61742771D02*
X71389571Y-61780866D01*
X72151475Y-67432295D02*
X72151475Y-66632295D01*
X72151475Y-66632295D02*
X71960999Y-66632295D01*
X71960999Y-66632295D02*
X71846713Y-66670390D01*
X71846713Y-66670390D02*
X71770523Y-66746580D01*
X71770523Y-66746580D02*
X71732428Y-66822771D01*
X71732428Y-66822771D02*
X71694332Y-66975152D01*
X71694332Y-66975152D02*
X71694332Y-67089438D01*
X71694332Y-67089438D02*
X71732428Y-67241819D01*
X71732428Y-67241819D02*
X71770523Y-67318009D01*
X71770523Y-67318009D02*
X71846713Y-67394200D01*
X71846713Y-67394200D02*
X71960999Y-67432295D01*
X71960999Y-67432295D02*
X72151475Y-67432295D01*
X71008618Y-66898961D02*
X71008618Y-67432295D01*
X71199094Y-66594200D02*
X71389571Y-67165628D01*
X71389571Y-67165628D02*
X70894332Y-67165628D01*
X60962809Y-79713247D02*
X60848523Y-79751342D01*
X60848523Y-79751342D02*
X60810428Y-79789438D01*
X60810428Y-79789438D02*
X60772332Y-79865628D01*
X60772332Y-79865628D02*
X60772332Y-79979914D01*
X60772332Y-79979914D02*
X60810428Y-80056104D01*
X60810428Y-80056104D02*
X60848523Y-80094200D01*
X60848523Y-80094200D02*
X60924713Y-80132295D01*
X60924713Y-80132295D02*
X61229475Y-80132295D01*
X61229475Y-80132295D02*
X61229475Y-79332295D01*
X61229475Y-79332295D02*
X60962809Y-79332295D01*
X60962809Y-79332295D02*
X60886618Y-79370390D01*
X60886618Y-79370390D02*
X60848523Y-79408485D01*
X60848523Y-79408485D02*
X60810428Y-79484676D01*
X60810428Y-79484676D02*
X60810428Y-79560866D01*
X60810428Y-79560866D02*
X60848523Y-79637057D01*
X60848523Y-79637057D02*
X60886618Y-79675152D01*
X60886618Y-79675152D02*
X60962809Y-79713247D01*
X60962809Y-79713247D02*
X61229475Y-79713247D01*
X60086618Y-79332295D02*
X60238999Y-79332295D01*
X60238999Y-79332295D02*
X60315190Y-79370390D01*
X60315190Y-79370390D02*
X60353285Y-79408485D01*
X60353285Y-79408485D02*
X60429475Y-79522771D01*
X60429475Y-79522771D02*
X60467571Y-79675152D01*
X60467571Y-79675152D02*
X60467571Y-79979914D01*
X60467571Y-79979914D02*
X60429475Y-80056104D01*
X60429475Y-80056104D02*
X60391380Y-80094200D01*
X60391380Y-80094200D02*
X60315190Y-80132295D01*
X60315190Y-80132295D02*
X60162809Y-80132295D01*
X60162809Y-80132295D02*
X60086618Y-80094200D01*
X60086618Y-80094200D02*
X60048523Y-80056104D01*
X60048523Y-80056104D02*
X60010428Y-79979914D01*
X60010428Y-79979914D02*
X60010428Y-79789438D01*
X60010428Y-79789438D02*
X60048523Y-79713247D01*
X60048523Y-79713247D02*
X60086618Y-79675152D01*
X60086618Y-79675152D02*
X60162809Y-79637057D01*
X60162809Y-79637057D02*
X60315190Y-79637057D01*
X60315190Y-79637057D02*
X60391380Y-79675152D01*
X60391380Y-79675152D02*
X60429475Y-79713247D01*
X60429475Y-79713247D02*
X60467571Y-79789438D01*
X72151475Y-54732295D02*
X72151475Y-53932295D01*
X72151475Y-53932295D02*
X71960999Y-53932295D01*
X71960999Y-53932295D02*
X71846713Y-53970390D01*
X71846713Y-53970390D02*
X71770523Y-54046580D01*
X71770523Y-54046580D02*
X71732428Y-54122771D01*
X71732428Y-54122771D02*
X71694332Y-54275152D01*
X71694332Y-54275152D02*
X71694332Y-54389438D01*
X71694332Y-54389438D02*
X71732428Y-54541819D01*
X71732428Y-54541819D02*
X71770523Y-54618009D01*
X71770523Y-54618009D02*
X71846713Y-54694200D01*
X71846713Y-54694200D02*
X71960999Y-54732295D01*
X71960999Y-54732295D02*
X72151475Y-54732295D01*
X71389571Y-54008485D02*
X71351475Y-53970390D01*
X71351475Y-53970390D02*
X71275285Y-53932295D01*
X71275285Y-53932295D02*
X71084809Y-53932295D01*
X71084809Y-53932295D02*
X71008618Y-53970390D01*
X71008618Y-53970390D02*
X70970523Y-54008485D01*
X70970523Y-54008485D02*
X70932428Y-54084676D01*
X70932428Y-54084676D02*
X70932428Y-54160866D01*
X70932428Y-54160866D02*
X70970523Y-54275152D01*
X70970523Y-54275152D02*
X71427666Y-54732295D01*
X71427666Y-54732295D02*
X70932428Y-54732295D01*
X61248523Y-53970390D02*
X61324713Y-53932295D01*
X61324713Y-53932295D02*
X61438999Y-53932295D01*
X61438999Y-53932295D02*
X61553285Y-53970390D01*
X61553285Y-53970390D02*
X61629475Y-54046580D01*
X61629475Y-54046580D02*
X61667570Y-54122771D01*
X61667570Y-54122771D02*
X61705666Y-54275152D01*
X61705666Y-54275152D02*
X61705666Y-54389438D01*
X61705666Y-54389438D02*
X61667570Y-54541819D01*
X61667570Y-54541819D02*
X61629475Y-54618009D01*
X61629475Y-54618009D02*
X61553285Y-54694200D01*
X61553285Y-54694200D02*
X61438999Y-54732295D01*
X61438999Y-54732295D02*
X61362808Y-54732295D01*
X61362808Y-54732295D02*
X61248523Y-54694200D01*
X61248523Y-54694200D02*
X61210427Y-54656104D01*
X61210427Y-54656104D02*
X61210427Y-54389438D01*
X61210427Y-54389438D02*
X61362808Y-54389438D01*
X60867570Y-54732295D02*
X60867570Y-53932295D01*
X60867570Y-53932295D02*
X60410427Y-54732295D01*
X60410427Y-54732295D02*
X60410427Y-53932295D01*
X60029475Y-54732295D02*
X60029475Y-53932295D01*
X60029475Y-53932295D02*
X59838999Y-53932295D01*
X59838999Y-53932295D02*
X59724713Y-53970390D01*
X59724713Y-53970390D02*
X59648523Y-54046580D01*
X59648523Y-54046580D02*
X59610428Y-54122771D01*
X59610428Y-54122771D02*
X59572332Y-54275152D01*
X59572332Y-54275152D02*
X59572332Y-54389438D01*
X59572332Y-54389438D02*
X59610428Y-54541819D01*
X59610428Y-54541819D02*
X59648523Y-54618009D01*
X59648523Y-54618009D02*
X59724713Y-54694200D01*
X59724713Y-54694200D02*
X59838999Y-54732295D01*
X59838999Y-54732295D02*
X60029475Y-54732295D01*
X60905666Y-61933247D02*
X61172332Y-61933247D01*
X61172332Y-62352295D02*
X61172332Y-61552295D01*
X61172332Y-61552295D02*
X60791380Y-61552295D01*
X60143761Y-61818961D02*
X60143761Y-62352295D01*
X60334237Y-61514200D02*
X60524714Y-62085628D01*
X60524714Y-62085628D02*
X60029475Y-62085628D01*
X60905666Y-69553247D02*
X61172332Y-69553247D01*
X61172332Y-69972295D02*
X61172332Y-69172295D01*
X61172332Y-69172295D02*
X60791380Y-69172295D01*
X60562809Y-69172295D02*
X60029475Y-69172295D01*
X60029475Y-69172295D02*
X60372333Y-69972295D01*
X61705666Y-59012295D02*
X61438999Y-59812295D01*
X61438999Y-59812295D02*
X61172333Y-59012295D01*
X60448523Y-59736104D02*
X60486619Y-59774200D01*
X60486619Y-59774200D02*
X60600904Y-59812295D01*
X60600904Y-59812295D02*
X60677095Y-59812295D01*
X60677095Y-59812295D02*
X60791381Y-59774200D01*
X60791381Y-59774200D02*
X60867571Y-59698009D01*
X60867571Y-59698009D02*
X60905666Y-59621819D01*
X60905666Y-59621819D02*
X60943762Y-59469438D01*
X60943762Y-59469438D02*
X60943762Y-59355152D01*
X60943762Y-59355152D02*
X60905666Y-59202771D01*
X60905666Y-59202771D02*
X60867571Y-59126580D01*
X60867571Y-59126580D02*
X60791381Y-59050390D01*
X60791381Y-59050390D02*
X60677095Y-59012295D01*
X60677095Y-59012295D02*
X60600904Y-59012295D01*
X60600904Y-59012295D02*
X60486619Y-59050390D01*
X60486619Y-59050390D02*
X60448523Y-59088485D01*
X59648523Y-59736104D02*
X59686619Y-59774200D01*
X59686619Y-59774200D02*
X59800904Y-59812295D01*
X59800904Y-59812295D02*
X59877095Y-59812295D01*
X59877095Y-59812295D02*
X59991381Y-59774200D01*
X59991381Y-59774200D02*
X60067571Y-59698009D01*
X60067571Y-59698009D02*
X60105666Y-59621819D01*
X60105666Y-59621819D02*
X60143762Y-59469438D01*
X60143762Y-59469438D02*
X60143762Y-59355152D01*
X60143762Y-59355152D02*
X60105666Y-59202771D01*
X60105666Y-59202771D02*
X60067571Y-59126580D01*
X60067571Y-59126580D02*
X59991381Y-59050390D01*
X59991381Y-59050390D02*
X59877095Y-59012295D01*
X59877095Y-59012295D02*
X59800904Y-59012295D01*
X59800904Y-59012295D02*
X59686619Y-59050390D01*
X59686619Y-59050390D02*
X59648523Y-59088485D01*
X72170523Y-56510390D02*
X72246713Y-56472295D01*
X72246713Y-56472295D02*
X72360999Y-56472295D01*
X72360999Y-56472295D02*
X72475285Y-56510390D01*
X72475285Y-56510390D02*
X72551475Y-56586580D01*
X72551475Y-56586580D02*
X72589570Y-56662771D01*
X72589570Y-56662771D02*
X72627666Y-56815152D01*
X72627666Y-56815152D02*
X72627666Y-56929438D01*
X72627666Y-56929438D02*
X72589570Y-57081819D01*
X72589570Y-57081819D02*
X72551475Y-57158009D01*
X72551475Y-57158009D02*
X72475285Y-57234200D01*
X72475285Y-57234200D02*
X72360999Y-57272295D01*
X72360999Y-57272295D02*
X72284808Y-57272295D01*
X72284808Y-57272295D02*
X72170523Y-57234200D01*
X72170523Y-57234200D02*
X72132427Y-57196104D01*
X72132427Y-57196104D02*
X72132427Y-56929438D01*
X72132427Y-56929438D02*
X72284808Y-56929438D01*
X71789570Y-57272295D02*
X71789570Y-56472295D01*
X71789570Y-56472295D02*
X71332427Y-57272295D01*
X71332427Y-57272295D02*
X71332427Y-56472295D01*
X70951475Y-57272295D02*
X70951475Y-56472295D01*
X70951475Y-56472295D02*
X70760999Y-56472295D01*
X70760999Y-56472295D02*
X70646713Y-56510390D01*
X70646713Y-56510390D02*
X70570523Y-56586580D01*
X70570523Y-56586580D02*
X70532428Y-56662771D01*
X70532428Y-56662771D02*
X70494332Y-56815152D01*
X70494332Y-56815152D02*
X70494332Y-56929438D01*
X70494332Y-56929438D02*
X70532428Y-57081819D01*
X70532428Y-57081819D02*
X70570523Y-57158009D01*
X70570523Y-57158009D02*
X70646713Y-57234200D01*
X70646713Y-57234200D02*
X70760999Y-57272295D01*
X70760999Y-57272295D02*
X70951475Y-57272295D01*
X72151475Y-72512295D02*
X72151475Y-71712295D01*
X72151475Y-71712295D02*
X71960999Y-71712295D01*
X71960999Y-71712295D02*
X71846713Y-71750390D01*
X71846713Y-71750390D02*
X71770523Y-71826580D01*
X71770523Y-71826580D02*
X71732428Y-71902771D01*
X71732428Y-71902771D02*
X71694332Y-72055152D01*
X71694332Y-72055152D02*
X71694332Y-72169438D01*
X71694332Y-72169438D02*
X71732428Y-72321819D01*
X71732428Y-72321819D02*
X71770523Y-72398009D01*
X71770523Y-72398009D02*
X71846713Y-72474200D01*
X71846713Y-72474200D02*
X71960999Y-72512295D01*
X71960999Y-72512295D02*
X72151475Y-72512295D01*
X71427666Y-71712295D02*
X70894332Y-71712295D01*
X70894332Y-71712295D02*
X71237190Y-72512295D01*
X71694332Y-69896104D02*
X71732428Y-69934200D01*
X71732428Y-69934200D02*
X71846713Y-69972295D01*
X71846713Y-69972295D02*
X71922904Y-69972295D01*
X71922904Y-69972295D02*
X72037190Y-69934200D01*
X72037190Y-69934200D02*
X72113380Y-69858009D01*
X72113380Y-69858009D02*
X72151475Y-69781819D01*
X72151475Y-69781819D02*
X72189571Y-69629438D01*
X72189571Y-69629438D02*
X72189571Y-69515152D01*
X72189571Y-69515152D02*
X72151475Y-69362771D01*
X72151475Y-69362771D02*
X72113380Y-69286580D01*
X72113380Y-69286580D02*
X72037190Y-69210390D01*
X72037190Y-69210390D02*
X71922904Y-69172295D01*
X71922904Y-69172295D02*
X71846713Y-69172295D01*
X71846713Y-69172295D02*
X71732428Y-69210390D01*
X71732428Y-69210390D02*
X71694332Y-69248485D01*
X71008618Y-69172295D02*
X71160999Y-69172295D01*
X71160999Y-69172295D02*
X71237190Y-69210390D01*
X71237190Y-69210390D02*
X71275285Y-69248485D01*
X71275285Y-69248485D02*
X71351475Y-69362771D01*
X71351475Y-69362771D02*
X71389571Y-69515152D01*
X71389571Y-69515152D02*
X71389571Y-69819914D01*
X71389571Y-69819914D02*
X71351475Y-69896104D01*
X71351475Y-69896104D02*
X71313380Y-69934200D01*
X71313380Y-69934200D02*
X71237190Y-69972295D01*
X71237190Y-69972295D02*
X71084809Y-69972295D01*
X71084809Y-69972295D02*
X71008618Y-69934200D01*
X71008618Y-69934200D02*
X70970523Y-69896104D01*
X70970523Y-69896104D02*
X70932428Y-69819914D01*
X70932428Y-69819914D02*
X70932428Y-69629438D01*
X70932428Y-69629438D02*
X70970523Y-69553247D01*
X70970523Y-69553247D02*
X71008618Y-69515152D01*
X71008618Y-69515152D02*
X71084809Y-69477057D01*
X71084809Y-69477057D02*
X71237190Y-69477057D01*
X71237190Y-69477057D02*
X71313380Y-69515152D01*
X71313380Y-69515152D02*
X71351475Y-69553247D01*
X71351475Y-69553247D02*
X71389571Y-69629438D01*
X72151475Y-64892295D02*
X72151475Y-64092295D01*
X72151475Y-64092295D02*
X71960999Y-64092295D01*
X71960999Y-64092295D02*
X71846713Y-64130390D01*
X71846713Y-64130390D02*
X71770523Y-64206580D01*
X71770523Y-64206580D02*
X71732428Y-64282771D01*
X71732428Y-64282771D02*
X71694332Y-64435152D01*
X71694332Y-64435152D02*
X71694332Y-64549438D01*
X71694332Y-64549438D02*
X71732428Y-64701819D01*
X71732428Y-64701819D02*
X71770523Y-64778009D01*
X71770523Y-64778009D02*
X71846713Y-64854200D01*
X71846713Y-64854200D02*
X71960999Y-64892295D01*
X71960999Y-64892295D02*
X72151475Y-64892295D01*
X71199094Y-64092295D02*
X71122904Y-64092295D01*
X71122904Y-64092295D02*
X71046713Y-64130390D01*
X71046713Y-64130390D02*
X71008618Y-64168485D01*
X71008618Y-64168485D02*
X70970523Y-64244676D01*
X70970523Y-64244676D02*
X70932428Y-64397057D01*
X70932428Y-64397057D02*
X70932428Y-64587533D01*
X70932428Y-64587533D02*
X70970523Y-64739914D01*
X70970523Y-64739914D02*
X71008618Y-64816104D01*
X71008618Y-64816104D02*
X71046713Y-64854200D01*
X71046713Y-64854200D02*
X71122904Y-64892295D01*
X71122904Y-64892295D02*
X71199094Y-64892295D01*
X71199094Y-64892295D02*
X71275285Y-64854200D01*
X71275285Y-64854200D02*
X71313380Y-64816104D01*
X71313380Y-64816104D02*
X71351475Y-64739914D01*
X71351475Y-64739914D02*
X71389571Y-64587533D01*
X71389571Y-64587533D02*
X71389571Y-64397057D01*
X71389571Y-64397057D02*
X71351475Y-64244676D01*
X71351475Y-64244676D02*
X71313380Y-64168485D01*
X71313380Y-64168485D02*
X71275285Y-64130390D01*
X71275285Y-64130390D02*
X71199094Y-64092295D01*
X71884809Y-79713247D02*
X71770523Y-79751342D01*
X71770523Y-79751342D02*
X71732428Y-79789438D01*
X71732428Y-79789438D02*
X71694332Y-79865628D01*
X71694332Y-79865628D02*
X71694332Y-79979914D01*
X71694332Y-79979914D02*
X71732428Y-80056104D01*
X71732428Y-80056104D02*
X71770523Y-80094200D01*
X71770523Y-80094200D02*
X71846713Y-80132295D01*
X71846713Y-80132295D02*
X72151475Y-80132295D01*
X72151475Y-80132295D02*
X72151475Y-79332295D01*
X72151475Y-79332295D02*
X71884809Y-79332295D01*
X71884809Y-79332295D02*
X71808618Y-79370390D01*
X71808618Y-79370390D02*
X71770523Y-79408485D01*
X71770523Y-79408485D02*
X71732428Y-79484676D01*
X71732428Y-79484676D02*
X71732428Y-79560866D01*
X71732428Y-79560866D02*
X71770523Y-79637057D01*
X71770523Y-79637057D02*
X71808618Y-79675152D01*
X71808618Y-79675152D02*
X71884809Y-79713247D01*
X71884809Y-79713247D02*
X72151475Y-79713247D01*
X70970523Y-79332295D02*
X71351475Y-79332295D01*
X71351475Y-79332295D02*
X71389571Y-79713247D01*
X71389571Y-79713247D02*
X71351475Y-79675152D01*
X71351475Y-79675152D02*
X71275285Y-79637057D01*
X71275285Y-79637057D02*
X71084809Y-79637057D01*
X71084809Y-79637057D02*
X71008618Y-79675152D01*
X71008618Y-79675152D02*
X70970523Y-79713247D01*
X70970523Y-79713247D02*
X70932428Y-79789438D01*
X70932428Y-79789438D02*
X70932428Y-79979914D01*
X70932428Y-79979914D02*
X70970523Y-80056104D01*
X70970523Y-80056104D02*
X71008618Y-80094200D01*
X71008618Y-80094200D02*
X71084809Y-80132295D01*
X71084809Y-80132295D02*
X71275285Y-80132295D01*
X71275285Y-80132295D02*
X71351475Y-80094200D01*
X71351475Y-80094200D02*
X71389571Y-80056104D01*
X71884809Y-77173247D02*
X71770523Y-77211342D01*
X71770523Y-77211342D02*
X71732428Y-77249438D01*
X71732428Y-77249438D02*
X71694332Y-77325628D01*
X71694332Y-77325628D02*
X71694332Y-77439914D01*
X71694332Y-77439914D02*
X71732428Y-77516104D01*
X71732428Y-77516104D02*
X71770523Y-77554200D01*
X71770523Y-77554200D02*
X71846713Y-77592295D01*
X71846713Y-77592295D02*
X72151475Y-77592295D01*
X72151475Y-77592295D02*
X72151475Y-76792295D01*
X72151475Y-76792295D02*
X71884809Y-76792295D01*
X71884809Y-76792295D02*
X71808618Y-76830390D01*
X71808618Y-76830390D02*
X71770523Y-76868485D01*
X71770523Y-76868485D02*
X71732428Y-76944676D01*
X71732428Y-76944676D02*
X71732428Y-77020866D01*
X71732428Y-77020866D02*
X71770523Y-77097057D01*
X71770523Y-77097057D02*
X71808618Y-77135152D01*
X71808618Y-77135152D02*
X71884809Y-77173247D01*
X71884809Y-77173247D02*
X72151475Y-77173247D01*
X71008618Y-77058961D02*
X71008618Y-77592295D01*
X71199094Y-76754200D02*
X71389571Y-77325628D01*
X71389571Y-77325628D02*
X70894332Y-77325628D01*
X72113380Y-74633247D02*
X71846714Y-74633247D01*
X71732428Y-75052295D02*
X72113380Y-75052295D01*
X72113380Y-75052295D02*
X72113380Y-74252295D01*
X72113380Y-74252295D02*
X71732428Y-74252295D01*
X71046713Y-74252295D02*
X71199094Y-74252295D01*
X71199094Y-74252295D02*
X71275285Y-74290390D01*
X71275285Y-74290390D02*
X71313380Y-74328485D01*
X71313380Y-74328485D02*
X71389570Y-74442771D01*
X71389570Y-74442771D02*
X71427666Y-74595152D01*
X71427666Y-74595152D02*
X71427666Y-74899914D01*
X71427666Y-74899914D02*
X71389570Y-74976104D01*
X71389570Y-74976104D02*
X71351475Y-75014200D01*
X71351475Y-75014200D02*
X71275285Y-75052295D01*
X71275285Y-75052295D02*
X71122904Y-75052295D01*
X71122904Y-75052295D02*
X71046713Y-75014200D01*
X71046713Y-75014200D02*
X71008618Y-74976104D01*
X71008618Y-74976104D02*
X70970523Y-74899914D01*
X70970523Y-74899914D02*
X70970523Y-74709438D01*
X70970523Y-74709438D02*
X71008618Y-74633247D01*
X71008618Y-74633247D02*
X71046713Y-74595152D01*
X71046713Y-74595152D02*
X71122904Y-74557057D01*
X71122904Y-74557057D02*
X71275285Y-74557057D01*
X71275285Y-74557057D02*
X71351475Y-74595152D01*
X71351475Y-74595152D02*
X71389570Y-74633247D01*
X71389570Y-74633247D02*
X71427666Y-74709438D01*
D11*
%TO.C,U1*%
X57210000Y-48020000D02*
X57210000Y-81040000D01*
X57210000Y-81040000D02*
X74990000Y-81040000D01*
X72450000Y-53100000D02*
X72450000Y-50560000D01*
X74990000Y-48020000D02*
X57210000Y-48020000D01*
X74990000Y-50560000D02*
X72450000Y-50560000D01*
X74990000Y-53100000D02*
X72450000Y-53100000D01*
X74990000Y-81040000D02*
X74990000Y-48020000D01*
D10*
X61668432Y-56539360D02*
X61168432Y-56539360D01*
X61168432Y-56439360D01*
X61668432Y-56439360D01*
X61668432Y-56539360D01*
G36*
X61668432Y-56539360D02*
G01*
X61168432Y-56539360D01*
X61168432Y-56439360D01*
X61668432Y-56439360D01*
X61668432Y-56539360D01*
G37*
X61268432Y-56739360D02*
X61168432Y-56739360D01*
X61168432Y-56439360D01*
X61268432Y-56439360D01*
X61268432Y-56739360D01*
G36*
X61268432Y-56739360D02*
G01*
X61168432Y-56739360D01*
X61168432Y-56439360D01*
X61268432Y-56439360D01*
X61268432Y-56739360D01*
G37*
X61268432Y-57239360D02*
X61168432Y-57239360D01*
X61168432Y-57039360D01*
X61268432Y-57039360D01*
X61268432Y-57239360D01*
G36*
X61268432Y-57239360D02*
G01*
X61168432Y-57239360D01*
X61168432Y-57039360D01*
X61268432Y-57039360D01*
X61268432Y-57239360D01*
G37*
X61468432Y-56939360D02*
X61368432Y-56939360D01*
X61368432Y-56839360D01*
X61468432Y-56839360D01*
X61468432Y-56939360D01*
G36*
X61468432Y-56939360D02*
G01*
X61368432Y-56939360D01*
X61368432Y-56839360D01*
X61468432Y-56839360D01*
X61468432Y-56939360D01*
G37*
X61668432Y-57239360D02*
X61568432Y-57239360D01*
X61568432Y-56439360D01*
X61668432Y-56439360D01*
X61668432Y-57239360D01*
G36*
X61668432Y-57239360D02*
G01*
X61568432Y-57239360D01*
X61568432Y-56439360D01*
X61668432Y-56439360D01*
X61668432Y-57239360D01*
G37*
%TD*%
D12*
%TO.C,U1*%
X73720000Y-51830000D03*
D13*
X73720000Y-54370000D03*
X73720000Y-56910000D03*
X73720000Y-59450000D03*
X73720000Y-61990000D03*
X73720000Y-64530000D03*
X73720000Y-67070000D03*
X73720000Y-69610000D03*
X73720000Y-72150000D03*
X73720000Y-74690000D03*
X73720000Y-77230000D03*
X73720000Y-79770000D03*
X58480000Y-79770000D03*
X58480000Y-77230000D03*
X58480000Y-74690000D03*
X58480000Y-72150000D03*
X58480000Y-69610000D03*
X58480000Y-67070000D03*
X58480000Y-64530000D03*
X58480000Y-61990000D03*
X58480000Y-59450000D03*
X58480000Y-56910000D03*
X58480000Y-54370000D03*
X58480000Y-51830000D03*
%TD*%
M02*
