%TF.GenerationSoftware,KiCad,Pcbnew,8.0.6*%
%TF.CreationDate,2025-04-17T08:46:24+02:00*%
%TF.ProjectId,KYBR_ORTHO,4b594252-5f4f-4525-9448-4f2e6b696361,rev?*%
%TF.SameCoordinates,Original*%
%TF.FileFunction,Copper,L2,Bot*%
%TF.FilePolarity,Positive*%
%FSLAX46Y46*%
G04 Gerber Fmt 4.6, Leading zero omitted, Abs format (unit mm)*
G04 Created by KiCad (PCBNEW 8.0.6) date 2025-04-17 08:46:24*
%MOMM*%
%LPD*%
G01*
G04 APERTURE LIST*
%TA.AperFunction,ComponentPad*%
%ADD10C,2.200000*%
%TD*%
%TA.AperFunction,ComponentPad*%
%ADD11R,2.250000X2.250000*%
%TD*%
%TA.AperFunction,ComponentPad*%
%ADD12C,2.250000*%
%TD*%
%TA.AperFunction,ComponentPad*%
%ADD13R,1.752600X1.752600*%
%TD*%
%TA.AperFunction,ComponentPad*%
%ADD14C,1.752600*%
%TD*%
%TA.AperFunction,Conductor*%
%ADD15C,0.200000*%
%TD*%
G04 APERTURE END LIST*
D10*
%TO.P,S20,1,1*%
%TO.N,Column 9*%
X250900000Y-78100000D03*
%TO.P,S20,2,2*%
%TO.N,Net-(D26-A)*%
X255900000Y-80200000D03*
%TD*%
D11*
%TO.P,SW1,1,1*%
%TO.N,GND*%
X62750000Y-84900000D03*
D12*
%TO.P,SW1,2,2*%
%TO.N,RST*%
X69250000Y-84900000D03*
%TD*%
D10*
%TO.P,S24,1,1*%
%TO.N,Column 3*%
X141700000Y-95300000D03*
%TO.P,S24,2,2*%
%TO.N,Net-(D12-A)*%
X146700000Y-97400000D03*
%TD*%
%TO.P,S14,1,1*%
%TO.N,Column 3*%
X141700000Y-78100000D03*
%TO.P,S14,2,2*%
%TO.N,Net-(D11-A)*%
X146700000Y-80200000D03*
%TD*%
%TO.P,S22,1,1*%
%TO.N,Column 1*%
X105250000Y-95300000D03*
%TO.P,S22,2,2*%
%TO.N,Net-(D6-A)*%
X110250000Y-97400000D03*
%TD*%
%TO.P,S13,1,1*%
%TO.N,Column 2*%
X123500000Y-78100000D03*
%TO.P,S13,2,2*%
%TO.N,Net-(D8-A)*%
X128500000Y-80200000D03*
%TD*%
%TO.P,S4,1,1*%
%TO.N,Column 3*%
X141700000Y-60900000D03*
%TO.P,S4,2,2*%
%TO.N,Net-(D10-A)*%
X146700000Y-63000000D03*
%TD*%
%TO.P,S2,1,1*%
%TO.N,Column 1*%
X105250000Y-60850000D03*
%TO.P,S2,2,2*%
%TO.N,Net-(D2-A)*%
X110250000Y-62950000D03*
%TD*%
%TO.P,S23,1,1*%
%TO.N,Column 2*%
X123500000Y-95300000D03*
%TO.P,S23,2,2*%
%TO.N,Net-(D9-A)*%
X128500000Y-97400000D03*
%TD*%
%TO.P,S30,1,1*%
%TO.N,Column 9*%
X250900000Y-95300000D03*
%TO.P,S30,2,2*%
%TO.N,Net-(D27-A)*%
X255900000Y-97400000D03*
%TD*%
%TO.P,S32,1,1*%
%TO.N,Column 5*%
X182600000Y-112500000D03*
%TO.P,S32,2,2*%
%TO.N,Net-(D32-A)*%
X187600000Y-114600000D03*
%TD*%
%TO.P,S18,1,1*%
%TO.N,Column 7*%
X214500000Y-78100000D03*
%TO.P,S18,2,2*%
%TO.N,Net-(D24-A)*%
X219500000Y-80200000D03*
%TD*%
%TO.P,S26,1,1*%
%TO.N,Column 5*%
X178100000Y-95300000D03*
%TO.P,S26,2,2*%
%TO.N,Net-(D18-A)*%
X183100000Y-97400000D03*
%TD*%
%TO.P,S11,1,1*%
%TO.N,Column 0*%
X87000000Y-78150000D03*
%TO.P,S11,2,2*%
%TO.N,Net-(D3-A)*%
X92000000Y-80250000D03*
%TD*%
%TO.P,S21,1,1*%
%TO.N,Column 0*%
X87000000Y-95300000D03*
%TO.P,S21,2,2*%
%TO.N,Net-(D5-A)*%
X92000000Y-97400000D03*
%TD*%
%TO.P,S10,1,1*%
%TO.N,Column 9*%
X250900000Y-60900000D03*
%TO.P,S10,2,2*%
%TO.N,Net-(D22-A)*%
X255900000Y-63000000D03*
%TD*%
%TO.P,S25,1,1*%
%TO.N,Column 4*%
X159900000Y-95300000D03*
%TO.P,S25,2,2*%
%TO.N,Net-(D15-A)*%
X164900000Y-97400000D03*
%TD*%
%TO.P,S17,1,1*%
%TO.N,Column 6*%
X196300000Y-78100000D03*
%TO.P,S17,2,2*%
%TO.N,Net-(D23-A)*%
X201300000Y-80200000D03*
%TD*%
%TO.P,S9,1,1*%
%TO.N,Column 8*%
X232700000Y-60900000D03*
%TO.P,S9,2,2*%
%TO.N,Net-(D21-A)*%
X237700000Y-63000000D03*
%TD*%
%TO.P,S7,1,1*%
%TO.N,Column 6*%
X196300000Y-60900000D03*
%TO.P,S7,2,2*%
%TO.N,Net-(D19-A)*%
X201300000Y-63000000D03*
%TD*%
%TO.P,S29,1,1*%
%TO.N,Column 8*%
X232700000Y-95300000D03*
%TO.P,S29,2,2*%
%TO.N,Net-(D28-A)*%
X237700000Y-97400000D03*
%TD*%
%TO.P,S31,1,1*%
%TO.N,Column 4*%
X155400000Y-112500000D03*
%TO.P,S31,2,2*%
%TO.N,Net-(D31-A)*%
X160400000Y-114600000D03*
%TD*%
%TO.P,S15,1,1*%
%TO.N,Column 4*%
X159900000Y-78100000D03*
%TO.P,S15,2,2*%
%TO.N,Net-(D14-A)*%
X164900000Y-80200000D03*
%TD*%
%TO.P,S8,1,1*%
%TO.N,Column 7*%
X214500000Y-60900000D03*
%TO.P,S8,2,2*%
%TO.N,Net-(D20-A)*%
X219500000Y-63000000D03*
%TD*%
%TO.P,S5,1,1*%
%TO.N,Column 4*%
X159900000Y-60900000D03*
%TO.P,S5,2,2*%
%TO.N,Net-(D13-A)*%
X164900000Y-63000000D03*
%TD*%
%TO.P,S19,1,1*%
%TO.N,Column 8*%
X232700000Y-78100000D03*
%TO.P,S19,2,2*%
%TO.N,Net-(D25-A)*%
X237700000Y-80200000D03*
%TD*%
%TO.P,S27,1,1*%
%TO.N,Column 6*%
X196300000Y-95300000D03*
%TO.P,S27,2,2*%
%TO.N,Net-(D30-A)*%
X201300000Y-97400000D03*
%TD*%
%TO.P,S3,1,1*%
%TO.N,Column 2*%
X123500000Y-60900000D03*
%TO.P,S3,2,2*%
%TO.N,Net-(D7-A)*%
X128500000Y-63000000D03*
%TD*%
%TO.P,S12,1,1*%
%TO.N,Column 1*%
X105250000Y-78100000D03*
%TO.P,S12,2,2*%
%TO.N,Net-(D4-A)*%
X110250000Y-80200000D03*
%TD*%
%TO.P,S16,1,1*%
%TO.N,Column 5*%
X178100000Y-78100000D03*
%TO.P,S16,2,2*%
%TO.N,Net-(D17-A)*%
X183100000Y-80200000D03*
%TD*%
%TO.P,S1,1,1*%
%TO.N,Column 0*%
X87000000Y-60850000D03*
%TO.P,S1,2,2*%
%TO.N,Net-(D1-A)*%
X92000000Y-62950000D03*
%TD*%
%TO.P,S6,1,1*%
%TO.N,Column 5*%
X178100000Y-60900000D03*
%TO.P,S6,2,2*%
%TO.N,Net-(D16-A)*%
X183100000Y-63000000D03*
%TD*%
%TO.P,S28,1,1*%
%TO.N,Column 7*%
X214500000Y-95300000D03*
%TO.P,S28,2,2*%
%TO.N,Net-(D29-A)*%
X219500000Y-97400000D03*
%TD*%
D13*
%TO.P,U1,1,TX0/PD3*%
%TO.N,unconnected-(U1-TX0{slash}PD3-Pad1)*%
X73720000Y-51830000D03*
D14*
%TO.P,U1,2,RX1/PD2*%
%TO.N,unconnected-(U1-RX1{slash}PD2-Pad2)*%
X73720000Y-54370000D03*
%TO.P,U1,3,GND*%
%TO.N,unconnected-(U1-GND-Pad3)*%
X73720000Y-56910000D03*
%TO.P,U1,4,GND*%
%TO.N,unconnected-(U1-GND-Pad4)*%
X73720000Y-59450000D03*
%TO.P,U1,5,2/PD1*%
%TO.N,Column 0*%
X73720000Y-61990000D03*
%TO.P,U1,6,3/PD0*%
%TO.N,Column 1*%
X73720000Y-64530000D03*
%TO.P,U1,7,4/PD4*%
%TO.N,Column 2*%
X73720000Y-67070000D03*
%TO.P,U1,8,5/PC6*%
%TO.N,Column 3*%
X73720000Y-69610000D03*
%TO.P,U1,9,6/PD7*%
%TO.N,Column 4*%
X73720000Y-72150000D03*
%TO.P,U1,10,7/PE6*%
%TO.N,Column 5*%
X73720000Y-74690000D03*
%TO.P,U1,11,8/PB4*%
%TO.N,Column 6*%
X73720000Y-77230000D03*
%TO.P,U1,12,9/PB5*%
%TO.N,Column 7*%
X73720000Y-79770000D03*
%TO.P,U1,13,10/PB6*%
%TO.N,unconnected-(U1-10{slash}PB6-Pad13)*%
X58480000Y-79770000D03*
%TO.P,U1,14,16/PB2*%
%TO.N,unconnected-(U1-16{slash}PB2-Pad14)*%
X58480000Y-77230000D03*
%TO.P,U1,15,14/PB3*%
%TO.N,Row 3*%
X58480000Y-74690000D03*
%TO.P,U1,16,15/PB1*%
%TO.N,Row 2*%
X58480000Y-72150000D03*
%TO.P,U1,17,A0/PF7*%
%TO.N,Row 1*%
X58480000Y-69610000D03*
%TO.P,U1,18,A1/PF6*%
%TO.N,Row 0*%
X58480000Y-67070000D03*
%TO.P,U1,19,A2/PF5*%
%TO.N,Column 9*%
X58480000Y-64530000D03*
%TO.P,U1,20,A3/PF4*%
%TO.N,Column 8*%
X58480000Y-61990000D03*
%TO.P,U1,21,VCC*%
%TO.N,unconnected-(U1-VCC-Pad21)*%
X58480000Y-59450000D03*
%TO.P,U1,22,RST*%
%TO.N,RST*%
X58480000Y-56910000D03*
%TO.P,U1,23,GND*%
%TO.N,GND*%
X58480000Y-54370000D03*
%TO.P,U1,24,RAW*%
%TO.N,unconnected-(U1-RAW-Pad24)*%
X58480000Y-51830000D03*
%TD*%
D15*
%TO.N,Column 0*%
X87000000Y-78150000D02*
X84925000Y-80225000D01*
X75459802Y-84100000D02*
X72040198Y-84100000D01*
X77800000Y-60859802D02*
X77800000Y-81759802D01*
X77800000Y-81759802D02*
X75459802Y-84100000D01*
X69000000Y-64800000D02*
X71810000Y-61990000D01*
X87000000Y-60850000D02*
X84925000Y-62925000D01*
X84925000Y-76075000D02*
X87000000Y-78150000D01*
X87000000Y-60850000D02*
X86000000Y-59850000D01*
X86000000Y-59850000D02*
X78809802Y-59850000D01*
X78809802Y-59850000D02*
X77800000Y-60859802D01*
X69000000Y-81059802D02*
X69000000Y-64800000D01*
X84925000Y-62925000D02*
X84925000Y-76075000D01*
X84925000Y-80225000D02*
X84925000Y-93525000D01*
X72040198Y-84100000D02*
X69000000Y-81059802D01*
X84925000Y-93425000D02*
X87000000Y-95500000D01*
X71810000Y-61990000D02*
X73720000Y-61990000D01*
%TO.N,Column 1*%
X77400000Y-81594116D02*
X75294116Y-83700000D01*
X103850000Y-59450000D02*
X78644116Y-59450000D01*
X103175000Y-62925000D02*
X103175000Y-76025000D01*
X105250000Y-60850000D02*
X103850000Y-59450000D01*
X103175000Y-80175000D02*
X103175000Y-93525000D01*
X78644116Y-59450000D02*
X77400000Y-60694116D01*
X105250000Y-60850000D02*
X103175000Y-62925000D01*
X72205884Y-83700000D02*
X69400000Y-80894116D01*
X103175000Y-93425000D02*
X105250000Y-95500000D01*
X69400000Y-67000000D02*
X71870000Y-64530000D01*
X69400000Y-80894116D02*
X69400000Y-67000000D01*
X75294116Y-83700000D02*
X72205884Y-83700000D01*
X105250000Y-78100000D02*
X103175000Y-80175000D01*
X103175000Y-76025000D02*
X105250000Y-78100000D01*
X77400000Y-60694116D02*
X77400000Y-81594116D01*
X71870000Y-64530000D02*
X73720000Y-64530000D01*
%TO.N,Column 2*%
X70100000Y-81028430D02*
X70100000Y-68900000D01*
X77000000Y-60528430D02*
X77000000Y-81428430D01*
X121425000Y-75925000D02*
X123500000Y-78000000D01*
X123500000Y-60900000D02*
X121650000Y-59050000D01*
X121650000Y-59050000D02*
X78478430Y-59050000D01*
X70100000Y-68900000D02*
X71930000Y-67070000D01*
X75128430Y-83300000D02*
X72371570Y-83300000D01*
X123500000Y-60850000D02*
X121425000Y-62925000D01*
X71930000Y-67070000D02*
X73720000Y-67070000D01*
X121425000Y-62925000D02*
X121425000Y-75925000D01*
X77000000Y-81428430D02*
X75128430Y-83300000D01*
X72371570Y-83300000D02*
X70100000Y-81028430D01*
X121425000Y-80325000D02*
X121425000Y-93525000D01*
X121425000Y-93425000D02*
X123500000Y-95500000D01*
X78478430Y-59050000D02*
X77000000Y-60528430D01*
X123500000Y-78000000D02*
X123500000Y-78250000D01*
X123500000Y-78250000D02*
X121425000Y-80325000D01*
%TO.N,Column 3*%
X70500000Y-80862744D02*
X70500000Y-71000000D01*
X74962744Y-82900000D02*
X72537256Y-82900000D01*
X139675000Y-62825000D02*
X139675000Y-75925000D01*
X76600000Y-81262744D02*
X74962744Y-82900000D01*
X71910000Y-69610000D02*
X73720000Y-69610000D01*
X141700000Y-59400000D02*
X140950000Y-58650000D01*
X76600000Y-60362744D02*
X76600000Y-81262744D01*
X139675000Y-75925000D02*
X141750000Y-78000000D01*
X141700000Y-60900000D02*
X141700000Y-59400000D01*
X140950000Y-58650000D02*
X78312744Y-58650000D01*
X71900000Y-69600000D02*
X71910000Y-69610000D01*
X141750000Y-78000000D02*
X139675000Y-80075000D01*
X139675000Y-80075000D02*
X139675000Y-93525000D01*
X141750000Y-60750000D02*
X139675000Y-62825000D01*
X72537256Y-82900000D02*
X70500000Y-80862744D01*
X139675000Y-93425000D02*
X141750000Y-95500000D01*
X78312744Y-58650000D02*
X76600000Y-60362744D01*
X70500000Y-71000000D02*
X71900000Y-69600000D01*
%TO.N,Column 4*%
X155500000Y-102238478D02*
X155500000Y-112750000D01*
X160000000Y-97738478D02*
X155500000Y-102238478D01*
X160000000Y-95500000D02*
X160000000Y-97738478D01*
X78147058Y-58250000D02*
X76200000Y-60197058D01*
X74797058Y-82500000D02*
X72702942Y-82500000D01*
X71950000Y-72150000D02*
X73720000Y-72150000D01*
X157925000Y-75925000D02*
X160000000Y-78000000D01*
X159900000Y-60900000D02*
X157250000Y-58250000D01*
X160000000Y-60600000D02*
X157925000Y-62675000D01*
X72702942Y-82500000D02*
X70900000Y-80697058D01*
X157925000Y-62675000D02*
X157925000Y-75925000D01*
X76200000Y-60197058D02*
X76200000Y-81097058D01*
X160000000Y-78000000D02*
X157925000Y-80075000D01*
X157925000Y-93425000D02*
X160000000Y-95500000D01*
X76200000Y-81097058D02*
X74797058Y-82500000D01*
X157925000Y-80075000D02*
X157925000Y-93525000D01*
X70900000Y-80697058D02*
X70900000Y-73200000D01*
X157250000Y-58250000D02*
X78147058Y-58250000D01*
X70900000Y-73200000D02*
X71950000Y-72150000D01*
%TO.N,Column 5*%
X71300000Y-80531372D02*
X71300000Y-75300000D01*
X178250000Y-78000000D02*
X176175000Y-80075000D01*
X71900000Y-74700000D02*
X72200000Y-74700000D01*
X176175000Y-80075000D02*
X176175000Y-93525000D01*
X75800000Y-60031372D02*
X75800000Y-80931372D01*
X176175000Y-93425000D02*
X178250000Y-95500000D01*
X75800000Y-80931372D02*
X74631372Y-82100000D01*
X182750000Y-102965507D02*
X182750000Y-112750000D01*
X77981372Y-57850000D02*
X75800000Y-60031372D01*
X72868628Y-82100000D02*
X71300000Y-80531372D01*
X72200000Y-74700000D02*
X72210000Y-74690000D01*
X176175000Y-62675000D02*
X176175000Y-75925000D01*
X178250000Y-95500000D02*
X178250000Y-98465507D01*
X178100000Y-60900000D02*
X175050000Y-57850000D01*
X178250000Y-98465507D02*
X182750000Y-102965507D01*
X72210000Y-74690000D02*
X73720000Y-74690000D01*
X178250000Y-60600000D02*
X176175000Y-62675000D01*
X74631372Y-82100000D02*
X72868628Y-82100000D01*
X175050000Y-57850000D02*
X77981372Y-57850000D01*
X176175000Y-75925000D02*
X178250000Y-78000000D01*
X71300000Y-75300000D02*
X71900000Y-74700000D01*
%TO.N,Column 6*%
X194425000Y-62675000D02*
X194425000Y-75925000D01*
X194425000Y-93425000D02*
X196500000Y-95500000D01*
X74465686Y-81700000D02*
X73034314Y-81700000D01*
X71700000Y-80365686D02*
X71700000Y-77700000D01*
X194425000Y-80075000D02*
X194425000Y-93525000D01*
X71700000Y-77700000D02*
X72170000Y-77230000D01*
X75400000Y-59865686D02*
X75400000Y-80765686D01*
X73034314Y-81700000D02*
X71700000Y-80365686D01*
X196500000Y-78000000D02*
X194425000Y-80075000D01*
X194425000Y-75925000D02*
X196500000Y-78000000D01*
X196500000Y-60600000D02*
X194425000Y-62675000D01*
X77865686Y-57400000D02*
X75400000Y-59865686D01*
X72170000Y-77230000D02*
X73720000Y-77230000D01*
X192800000Y-57400000D02*
X77865686Y-57400000D01*
X75400000Y-80765686D02*
X74465686Y-81700000D01*
X196300000Y-60900000D02*
X192800000Y-57400000D01*
%TO.N,Column 7*%
X212675000Y-80075000D02*
X212675000Y-93525000D01*
X210600000Y-57000000D02*
X77700000Y-57000000D01*
X212675000Y-93425000D02*
X214750000Y-95500000D01*
X75000000Y-80600000D02*
X74300000Y-81300000D01*
X72200000Y-80000000D02*
X72430000Y-79770000D01*
X73200000Y-81300000D02*
X72200000Y-80300000D01*
X212675000Y-62675000D02*
X212675000Y-75925000D01*
X214500000Y-60900000D02*
X210600000Y-57000000D01*
X77700000Y-57000000D02*
X75000000Y-59700000D01*
X214750000Y-60600000D02*
X212675000Y-62675000D01*
X74300000Y-81300000D02*
X73200000Y-81300000D01*
X212675000Y-75925000D02*
X214750000Y-78000000D01*
X72200000Y-80300000D02*
X72200000Y-80000000D01*
X214750000Y-78000000D02*
X212675000Y-80075000D01*
X72430000Y-79770000D02*
X73720000Y-79770000D01*
X75000000Y-59700000D02*
X75000000Y-80600000D01*
%TO.N,Column 8*%
X230925000Y-75925000D02*
X233000000Y-78000000D01*
X80900000Y-110000000D02*
X78100000Y-107200000D01*
X232700000Y-95300000D02*
X236300000Y-98900000D01*
X68600000Y-67700000D02*
X62890000Y-61990000D01*
X235100000Y-109700000D02*
X188000000Y-109700000D01*
X230925000Y-62675000D02*
X230925000Y-75925000D01*
X71874512Y-84500000D02*
X68600000Y-81225488D01*
X75600000Y-84500000D02*
X71874512Y-84500000D01*
X156717157Y-113917157D02*
X150117157Y-113917157D01*
X236300000Y-98900000D02*
X236300000Y-108500000D01*
X230925000Y-80075000D02*
X230925000Y-93525000D01*
X188000000Y-109700000D02*
X183400000Y-114300000D01*
X230925000Y-93425000D02*
X233000000Y-95500000D01*
X157834314Y-112800000D02*
X156717157Y-113917157D01*
X150117157Y-113917157D02*
X146200000Y-110000000D01*
X68600000Y-81225488D02*
X68600000Y-67700000D01*
X233000000Y-60600000D02*
X230925000Y-62675000D01*
X146200000Y-110000000D02*
X80900000Y-110000000D01*
X236300000Y-108500000D02*
X235100000Y-109700000D01*
X233000000Y-78000000D02*
X230925000Y-80075000D01*
X162000000Y-112800000D02*
X157834314Y-112800000D01*
X163500000Y-114300000D02*
X162000000Y-112800000D01*
X62890000Y-61990000D02*
X58480000Y-61990000D01*
X78100000Y-87000000D02*
X75600000Y-84500000D01*
X183400000Y-114300000D02*
X163500000Y-114300000D01*
X78100000Y-107200000D02*
X78100000Y-87000000D01*
%TO.N,Column 9*%
X163300000Y-114700000D02*
X161800000Y-113200000D01*
X249175000Y-93425000D02*
X251250000Y-95500000D01*
X249175000Y-80075000D02*
X249175000Y-93525000D01*
X188165686Y-110100000D02*
X183565686Y-114700000D01*
X149951471Y-114317157D02*
X146034314Y-110400000D01*
X252400000Y-110100000D02*
X188165686Y-110100000D01*
X64817157Y-64482843D02*
X64770000Y-64530000D01*
X64770000Y-64530000D02*
X58480000Y-64530000D01*
X183565686Y-114700000D02*
X163300000Y-114700000D01*
X249175000Y-75925000D02*
X251250000Y-78000000D01*
X77700000Y-87200000D02*
X75500000Y-85000000D01*
X161800000Y-113200000D02*
X158000000Y-113200000D01*
X68200000Y-67865686D02*
X64817157Y-64482843D01*
X77700000Y-107365686D02*
X77700000Y-87200000D01*
X249175000Y-61119366D02*
X249175000Y-75925000D01*
X71700000Y-85000000D02*
X68200000Y-81500000D01*
X80734314Y-110400000D02*
X77700000Y-107365686D01*
X146034314Y-110400000D02*
X80734314Y-110400000D01*
X251250000Y-78000000D02*
X249175000Y-80075000D01*
X75500000Y-85000000D02*
X71700000Y-85000000D01*
X251250000Y-60600000D02*
X249694366Y-60600000D01*
X68200000Y-81500000D02*
X68200000Y-67865686D01*
X156882843Y-114317157D02*
X149951471Y-114317157D01*
X253900000Y-108600000D02*
X252400000Y-110100000D01*
X158000000Y-113200000D02*
X156882843Y-114317157D01*
X249694366Y-60600000D02*
X249175000Y-61119366D01*
X253900000Y-98300000D02*
X253900000Y-108600000D01*
X250900000Y-95300000D02*
X253900000Y-98300000D01*
%TO.N,unconnected-(U1-GND-Pad4)*%
X73703872Y-59942157D02*
X73596028Y-60050000D01*
%TD*%
M02*
