%TF.GenerationSoftware,KiCad,Pcbnew,8.0.6*%
%TF.CreationDate,2025-04-17T08:46:24+02:00*%
%TF.ProjectId,KYBR_ORTHO,4b594252-5f4f-4525-9448-4f2e6b696361,rev?*%
%TF.SameCoordinates,Original*%
%TF.FileFunction,Paste,Top*%
%TF.FilePolarity,Positive*%
%FSLAX46Y46*%
G04 Gerber Fmt 4.6, Leading zero omitted, Abs format (unit mm)*
G04 Created by KiCad (PCBNEW 8.0.6) date 2025-04-17 08:46:24*
%MOMM*%
%LPD*%
G01*
G04 APERTURE LIST*
G04 Aperture macros list*
%AMRoundRect*
0 Rectangle with rounded corners*
0 $1 Rounding radius*
0 $2 $3 $4 $5 $6 $7 $8 $9 X,Y pos of 4 corners*
0 Add a 4 corners polygon primitive as box body*
4,1,4,$2,$3,$4,$5,$6,$7,$8,$9,$2,$3,0*
0 Add four circle primitives for the rounded corners*
1,1,$1+$1,$2,$3*
1,1,$1+$1,$4,$5*
1,1,$1+$1,$6,$7*
1,1,$1+$1,$8,$9*
0 Add four rect primitives between the rounded corners*
20,1,$1+$1,$2,$3,$4,$5,0*
20,1,$1+$1,$4,$5,$6,$7,0*
20,1,$1+$1,$6,$7,$8,$9,0*
20,1,$1+$1,$8,$9,$2,$3,0*%
G04 Aperture macros list end*
%ADD10RoundRect,0.225000X0.375000X-0.225000X0.375000X0.225000X-0.375000X0.225000X-0.375000X-0.225000X0*%
%ADD11RoundRect,0.225000X-0.375000X0.225000X-0.375000X-0.225000X0.375000X-0.225000X0.375000X0.225000X0*%
G04 APERTURE END LIST*
D10*
%TO.C,D14*%
X150750000Y-85650000D03*
X150750000Y-82350000D03*
%TD*%
%TO.C,D4*%
X96250000Y-85650000D03*
X96250000Y-82350000D03*
%TD*%
%TO.C,D12*%
X132500000Y-103050000D03*
X132500000Y-99750000D03*
%TD*%
%TO.C,D21*%
X224000000Y-68650000D03*
X224000000Y-65350000D03*
%TD*%
%TO.C,D10*%
X132500000Y-68650000D03*
X132500000Y-65350000D03*
%TD*%
%TO.C,D11*%
X132500000Y-85650000D03*
X132500000Y-82350000D03*
%TD*%
%TO.C,D24*%
X205600000Y-85650000D03*
X205600000Y-82350000D03*
%TD*%
%TO.C,D22*%
X241800000Y-68550000D03*
X241800000Y-65250000D03*
%TD*%
%TO.C,D3*%
X78000000Y-85650000D03*
X78000000Y-82350000D03*
%TD*%
%TO.C,D20*%
X205400000Y-68650000D03*
X205400000Y-65350000D03*
%TD*%
%TO.C,D25*%
X224000000Y-85650000D03*
X224000000Y-82350000D03*
%TD*%
D11*
%TO.C,D31*%
X167500000Y-112000000D03*
X167500000Y-115300000D03*
%TD*%
D10*
%TO.C,D28*%
X224000000Y-103050000D03*
X224000000Y-99750000D03*
%TD*%
%TO.C,D9*%
X114250000Y-103050000D03*
X114250000Y-99750000D03*
%TD*%
%TO.C,D18*%
X169250000Y-103050000D03*
X169250000Y-99750000D03*
%TD*%
%TO.C,D7*%
X114500000Y-68650000D03*
X114500000Y-65350000D03*
%TD*%
%TO.C,D8*%
X114500000Y-85650000D03*
X114500000Y-82350000D03*
%TD*%
%TO.C,D16*%
X169000000Y-68650000D03*
X169000000Y-65350000D03*
%TD*%
%TO.C,D30*%
X187500000Y-103050000D03*
X187500000Y-99750000D03*
%TD*%
%TO.C,D19*%
X187250000Y-68650000D03*
X187250000Y-65350000D03*
%TD*%
%TO.C,D26*%
X242250000Y-85650000D03*
X242250000Y-82350000D03*
%TD*%
%TO.C,D23*%
X187250000Y-85650000D03*
X187250000Y-82350000D03*
%TD*%
%TO.C,D17*%
X169250000Y-85650000D03*
X169250000Y-82350000D03*
%TD*%
%TO.C,D15*%
X151000000Y-103050000D03*
X151000000Y-99750000D03*
%TD*%
%TO.C,D13*%
X150750000Y-68650000D03*
X150750000Y-65350000D03*
%TD*%
%TO.C,D1*%
X77750000Y-68650000D03*
X77750000Y-65350000D03*
%TD*%
%TO.C,D29*%
X205750000Y-103050000D03*
X205750000Y-99750000D03*
%TD*%
%TO.C,D5*%
X78000000Y-103150000D03*
X78000000Y-99850000D03*
%TD*%
%TO.C,D27*%
X242250000Y-103050000D03*
X242250000Y-99750000D03*
%TD*%
%TO.C,D2*%
X96250000Y-68650000D03*
X96250000Y-65350000D03*
%TD*%
%TO.C,D6*%
X96000000Y-103050000D03*
X96000000Y-99750000D03*
%TD*%
D11*
%TO.C,D32*%
X170750000Y-112000000D03*
X170750000Y-115300000D03*
%TD*%
M02*
